<?xml version="1.0" standalone="no"?>
<!DOCTYPE svg PUBLIC "-//W3C//DTD SVG 20010904//EN"
 "http://www.w3.org/TR/2001/REC-SVG-20010904/DTD/svg10.dtd">
<svg version="1.0" xmlns="http://www.w3.org/2000/svg"
 width="280.000000pt" height="280.000000pt" viewBox="0 0 280.000000 280.000000"
 preserveAspectRatio="xMidYMid meet">
<metadata>
Created by potrace 1.14, written by Peter Selinger 2001-2017
</metadata>
<g transform="translate(0.000000,280.000000) scale(0.100000,-0.100000)"
fill="#000000" stroke="none">
<path d="M1333 2580 c-64 -39 -63 -26 -63 -587 0 -479 1 -510 19 -539 20 -32
74 -64 110 -64 40 0 90 28 111 62 19 32 20 49 20 549 0 508 0 517 -21 543 -44
56 -118 72 -176 36z"/>
<path d="M628 2106 c-98 -35 -166 -94 -216 -189 l-27 -52 0 -700 0 -700 27
-57 c34 -73 103 -142 176 -176 l57 -27 755 0 755 0 57 27 c73 34 142 103 176
176 l27 57 0 695 0 695 -33 67 c-36 74 -96 133 -170 170 -45 22 -60 23 -294
26 l-248 3 0 -125 0 -126 205 0 c232 0 256 -6 281 -65 22 -53 21 -1243 -1
-1290 -30 -62 -1 -60 -755 -60 -732 0 -718 -1 -750 48 -23 34 -28 1250 -6
1302 25 58 54 65 286 65 l200 0 0 125 0 125 -232 0 c-165 -1 -244 -5 -270 -14z"/>
<path d="M906 980 c-60 -18 -106 -83 -106 -150 0 -113 111 -187 213 -142 123
55 128 219 7 280 -47 23 -67 26 -114 12z"/>
<path d="M1784 971 c-82 -38 -115 -130 -75 -209 76 -148 291 -96 291 71 0 110
-117 185 -216 138z"/>
</g>
</svg>
