<svg height="230pt" stroke-linejoin="round" viewBox="0 0 460 230" width="460pt" xmlns="http://www.w3.org/2000/svg" xmlns:xlink="http://www.w3.org/1999/xlink"><defs stroke-linejoin="round"><clipPath id="a" stroke-linejoin="round"><path d="m46.64 13.32h195.02v175.12h-195.02z"/></clipPath><clipPath id="b" stroke-linejoin="round"><path d="m254.98 13.32h195.02v175.12h-195.02z"/></clipPath><path id="c" d="m0 3c.795609 0 1.55874-.316099 2.12132-.87868.562581-.56258.87868-1.325711.87868-2.12132s-.316099-1.55874-.87868-2.12132c-.56258-.562581-1.325711-.87868-2.12132-.87868s-1.55874.316099-2.12132.87868c-.562581.56258-.87868 1.325711-.87868 2.12132s.316099 1.55874.87868 2.12132c.56258.562581 1.325711.87868 2.12132.87868z" stroke="#00f" stroke-linejoin="round" stroke-opacity=".5"/><path id="d" d="m0 3c.795609 0 1.55874-.316099 2.12132-.87868.562581-.56258.87868-1.325711.87868-2.12132s-.316099-1.55874-.87868-2.12132c-.56258-.562581-1.325711-.87868-2.12132-.87868s-1.55874.316099-2.12132.87868c-.562581.56258-.87868 1.325711-.87868 2.12132s.316099 1.55874.87868 2.12132c.56258.562581 1.325711.87868 2.12132.87868z" stroke="#f00" stroke-linejoin="round" stroke-opacity=".5"/><path id="e" d="m0 3c.795609 0 1.55874-.316099 2.12132-.87868.562581-.56258.87868-1.325711.87868-2.12132s-.316099-1.55874-.87868-2.12132c-.56258-.562581-1.325711-.87868-2.12132-.87868s-1.55874.316099-2.12132.87868c-.562581.56258-.87868 1.325711-.87868 2.12132s.316099 1.55874.87868 2.12132c.56258.562581 1.325711.87868 2.12132.87868z" stroke="#ff0" stroke-linejoin="round" stroke-opacity=".5"/><path id="f" d="m0 3c.795609 0 1.55874-.316099 2.12132-.87868.562581-.56258.87868-1.325711.87868-2.12132s-.316099-1.55874-.87868-2.12132c-.56258-.562581-1.325711-.87868-2.12132-.87868s-1.55874.316099-2.12132.87868c-.562581.56258-.87868 1.325711-.87868 2.12132s.316099 1.55874.87868 2.12132c.56258.562581 1.325711.87868 2.12132.87868z" stroke="#808080" stroke-linejoin="round" stroke-opacity=".5"/><path id="g" d="m0 3c.795609 0 1.55874-.316099 2.12132-.87868.562581-.56258.87868-1.325711.87868-2.12132s-.316099-1.55874-.87868-2.12132c-.56258-.562581-1.325711-.87868-2.12132-.87868s-1.55874.316099-2.12132.87868c-.562581.56258-.87868 1.325711-.87868 2.12132s.316099 1.55874.87868 2.12132c.56258.562581 1.325711.87868 2.12132.87868z" stroke="#ffa500" stroke-linejoin="round" stroke-opacity=".5"/><path id="h" d="m0 3c.795609 0 1.55874-.316099 2.12132-.87868.562581-.56258.87868-1.325711.87868-2.12132s-.316099-1.55874-.87868-2.12132c-.56258-.562581-1.325711-.87868-2.12132-.87868s-1.55874.316099-2.12132.87868c-.562581.56258-.87868 1.325711-.87868 2.12132s.316099 1.55874.87868 2.12132c.56258.562581 1.325711.87868 2.12132.87868z" stroke="#f0f" stroke-linejoin="round" stroke-opacity=".5"/><path id="i" d="m0 3c.795609 0 1.55874-.316099 2.12132-.87868.562581-.56258.87868-1.325711.87868-2.12132s-.316099-1.55874-.87868-2.12132c-.56258-.562581-1.325711-.87868-2.12132-.87868s-1.55874.316099-2.12132.87868c-.562581.56258-.87868 1.325711-.87868 2.12132s.316099 1.55874.87868 2.12132c.56258.562581 1.325711.87868 2.12132.87868z" stroke="#0ff" stroke-linejoin="round" stroke-opacity=".5"/><path id="j" d="m0 3c.795609 0 1.55874-.316099 2.12132-.87868.562581-.56258.87868-1.325711.87868-2.12132s-.316099-1.55874-.87868-2.12132c-.56258-.562581-1.325711-.87868-2.12132-.87868s-1.55874.316099-2.12132.87868c-.562581.56258-.87868 1.325711-.87868 2.12132s.316099 1.55874.87868 2.12132c.56258.562581 1.325711.87868 2.12132.87868z" stroke="#0f0" stroke-linejoin="round" stroke-opacity=".5"/><path id="k" d="m0 3c.795609 0 1.55874-.316099 2.12132-.87868.562581-.56258.87868-1.325711.87868-2.12132s-.316099-1.55874-.87868-2.12132c-.56258-.562581-1.325711-.87868-2.12132-.87868s-1.55874.316099-2.12132.87868c-.562581.56258-.87868 1.325711-.87868 2.12132s.316099 1.55874.87868 2.12132c.56258.562581 1.325711.87868 2.12132.87868z" stroke="#4b0082" stroke-linejoin="round" stroke-opacity=".5"/><path id="l" d="m0 3c.795609 0 1.55874-.316099 2.12132-.87868.562581-.56258.87868-1.325711.87868-2.12132s-.316099-1.55874-.87868-2.12132c-.56258-.562581-1.325711-.87868-2.12132-.87868s-1.55874.316099-2.12132.87868c-.562581.56258-.87868 1.325711-.87868 2.12132s.316099 1.55874.87868 2.12132c.56258.562581 1.325711.87868 2.12132.87868z" stroke="#ff7f50" stroke-linejoin="round" stroke-opacity=".5"/><path id="m" d="m0 3c.795609 0 1.55874-.316099 2.12132-.87868.562581-.56258.87868-1.325711.87868-2.12132s-.316099-1.55874-.87868-2.12132c-.56258-.562581-1.325711-.87868-2.12132-.87868s-1.55874.316099-2.12132.87868c-.562581.56258-.87868 1.325711-.87868 2.12132s.316099 1.55874.87868 2.12132c.56258.562581 1.325711.87868 2.12132.87868z" stroke="#000" stroke-linejoin="round" stroke-opacity=".5"/><path id="n" d="m0 0v3.5" stroke="#000" stroke-linejoin="round" stroke-width=".8"/><path id="o" d="m10.59375 35.5h62.59375v-8.296875h-62.59375z" stroke-linejoin="round"/><path id="p" d="m19.1875 8.296875h34.421875v-8.296875h-46.28125v8.296875q5.609375 5.8125 15.296875 15.59375 9.703125 9.796875 12.1875 12.640625 4.734375 5.3125 6.609375 9 1.890625 3.6875 1.890625 7.25 0 5.8125-4.078125 9.46875-4.078125 3.671875-10.625 3.671875-4.640625 0-9.796875-1.609375-5.140625-1.609375-11-4.890625v9.96875q5.953125 2.390625 11.125 3.609375 5.1875 1.21875 9.484375 1.21875 11.328125 0 18.0625-5.671875 6.734375-5.65625 6.734375-15.125 0-4.5-1.6875-8.53125-1.671875-4.015625-6.125-9.484375-1.21875-1.421875-7.765625-8.1875-6.53125-6.765625-18.453125-18.921875z" stroke-linejoin="round"/><path id="q" d="m31.78125 66.40625q-7.609375 0-11.453125-7.5-3.828125-7.484375-3.828125-22.53125 0-14.984375 3.828125-22.484375 3.84375-7.5 11.453125-7.5 7.671875 0 11.5 7.5 3.84375 7.5 3.84375 22.484375 0 15.046875-3.84375 22.53125-3.828125 7.5-11.5 7.5zm0 7.8125q12.265625 0 18.734375-9.703125 6.46875-9.6875 6.46875-28.140625 0-18.40625-6.46875-28.109375-6.46875-9.6875-18.734375-9.6875-12.25 0-18.71875 9.6875-6.46875 9.703125-6.46875 28.109375 0 18.453125 6.46875 28.140625 6.46875 9.703125 18.71875 9.703125z" stroke-linejoin="round"/><path id="r" d="m37.796875 64.3125-24.90625-38.921875h24.90625zm-2.59375 8.59375h12.40625v-47.515625h10.40625v-8.203125h-10.40625v-17.1875h-9.8125v17.1875h-32.90625v9.515625z" stroke-linejoin="round"/><path id="s" d="m5.609375 72.90625h57.28125v-7.53125l-46.09375-57.078125h47.21875v-8.296875h-59.515625v7.515625l46.09375 57.078125h-44.984375z" stroke-linejoin="round"/><path id="t" d="m0 0h-3.5" stroke="#000" stroke-linejoin="round" stroke-width=".8"/><path id="u" d="m12.40625 8.296875h16.109375v55.625l-17.53125-3.515625v8.984375l17.4375 3.515625h9.859375v-64.609375h16.109375v-8.296875h-41.984375z" stroke-linejoin="round"/><path id="v" d="m40.578125 39.3125q7.078125-1.515625 11.046875-6.3125 3.984375-4.78125 3.984375-11.8125 0-10.78125-7.421875-16.703125-7.421875-5.90625-21.09375-5.90625-4.578125 0-9.4375.90625-4.859375.90625-10.03125 2.71875v9.515625q4.09375-2.390625 8.96875-3.609375 4.890625-1.21875 10.21875-1.21875 9.265625 0 14.125 3.65625 4.859375 3.65625 4.859375 10.640625 0 6.453125-4.515625 10.078125-4.515625 3.640625-12.5625 3.640625h-8.5v8.109375h8.890625q7.265625 0 11.125 2.90625 3.859375 2.90625 3.859375 8.375 0 5.609375-3.984375 8.609375-3.96875 3.015625-11.390625 3.015625-4.0625 0-8.703125-.890625-4.640625-.875-10.203125-2.71875v8.78125q5.625 1.5625 10.53125 2.34375 4.90625.78125 9.25.78125 11.234375 0 17.765625-5.109375 6.546875-5.09375 6.546875-13.78125 0-6.0625-3.46875-10.234375-3.46875-4.171875-9.859375-5.78125z" stroke-linejoin="round"/><path id="w" d="m44.28125 53.078125v-8.5q-3.796875 1.953125-7.90625 2.921875-4.09375.984375-8.5.984375-6.6875 0-10.03125-2.046875-3.34375-2.046875-3.34375-6.15625 0-3.125 2.390625-4.90625 2.390625-1.78125 9.625-3.390625l3.078125-.6875q9.5625-2.046875 13.59375-5.78125 4.03125-3.734375 4.03125-10.421875 0-7.625-6.03125-12.078125-6.03125-4.4375-16.578125-4.4375-4.390625 0-9.15625.859375-4.765625.859375-10.03125 2.5625v9.28125q4.984375-2.59375 9.8125-3.890625 4.828125-1.28125 9.578125-1.28125 6.34375 0 9.75 2.171875 3.421875 2.171875 3.421875 6.125 0 3.65625-2.46875 5.609375-2.453125 1.953125-10.8125 3.765625l-3.125.734375q-8.34375 1.75-12.0625 5.390625-3.703125 3.640625-3.703125 9.984375 0 7.71875 5.46875 11.90625 5.46875 4.203125 15.53125 4.203125 4.96875 0 9.359375-.734375 4.40625-.71875 8.109375-2.1875z" stroke-linejoin="round"/><path id="x" d="m18.109375 8.203125v-29h-9.03125v75.484375h9.03125v-8.296875q2.84375 4.875 7.15625 7.234375 4.328125 2.375 10.328125 2.375 9.96875 0 16.1875-7.90625 6.234375-7.90625 6.234375-20.796875 0-12.890625-6.234375-20.8125-6.21875-7.90625-16.1875-7.90625-6 0-10.328125 2.375-4.3125 2.375-7.15625 7.25zm30.578125 19.09375q0 9.90625-4.078125 15.546875-4.078125 5.640625-11.203125 5.640625-7.140625 0-11.21875-5.640625-4.078125-5.640625-4.078125-15.546875 0-9.90625 4.078125-15.546875 4.078125-5.640625 11.21875-5.640625 7.125 0 11.203125 5.640625 4.078125 5.640625 4.078125 15.546875z" stroke-linejoin="round"/><path id="y" d="m41.109375 46.296875q-1.515625.875-3.296875 1.28125-1.78125.421875-3.921875.421875-7.625 0-11.703125-4.953125-4.078125-4.953125-4.078125-14.234375v-28.8125h-9.03125v54.6875h9.03125v-8.5q2.84375 4.984375 7.375 7.390625 4.546875 2.421875 11.046875 2.421875.921875 0 2.046875-.125 1.125-.109375 2.484375-.359375z" stroke-linejoin="round"/><path id="z" d="m34.28125 27.484375q-10.890625 0-15.09375-2.484375-4.203125-2.484375-4.203125-8.5 0-4.78125 3.15625-7.59375 3.15625-2.796875 8.5625-2.796875 7.484375 0 12 5.296875 4.515625 5.296875 4.515625 14.078125v2zm17.921875 3.71875v-31.203125h-8.984375v8.296875q-3.078125-4.96875-7.671875-7.34375-4.59375-2.375-11.234375-2.375-8.390625 0-13.359375 4.71875-4.953125 4.71875-4.953125 12.625 0 9.21875 6.171875 13.90625 6.1875 4.6875 18.4375 4.6875h12.609375v.890625q0 6.203125-4.078125 9.59375-4.078125 3.390625-11.453125 3.390625-4.6875 0-9.140625-1.125-4.4375-1.125-8.53125-3.375v8.3125q4.921875 1.90625 9.5625 2.84375 4.640625.953125 9.03125.953125 11.875 0 17.734375-6.15625 5.859375-6.140625 5.859375-18.640625z" stroke-linejoin="round"/><path id="A" d="m32.171875-5.078125q-3.796875-9.765625-7.421875-12.734375-3.609375-2.984375-9.65625-2.984375h-7.1875v7.515625h5.28125q3.703125 0 5.75 1.765625 2.0625 1.75 4.546875 8.296875l1.609375 4.09375-22.109375 53.8125h9.515625l17.09375-42.765625 17.09375 42.765625h9.515625z" stroke-linejoin="round"/><path id="B" d="m50.984375-16.609375v-6.96875h-51.96875v6.96875z" stroke-linejoin="round"/><path id="C" d="m48.78125 52.59375v-8.40625q-3.8125 2.109375-7.640625 3.15625-3.828125 1.046875-7.734375 1.046875-8.75 0-13.59375-5.546875-4.828125-5.53125-4.828125-15.546875 0-10.015625 4.828125-15.5625 4.84375-5.53125 13.59375-5.53125 3.90625 0 7.734375 1.046875 3.828125 1.046875 7.640625 3.15625v-8.3125q-3.765625-1.75-7.796875-2.625-4.015625-.890625-8.5625-.890625-12.359375 0-19.640625 7.765625-7.265625 7.765625-7.265625 20.953125 0 13.375 7.34375 21.03125 7.359375 7.671875 20.15625 7.671875 4.140625 0 8.09375-.859375 3.953125-.84375 7.671875-2.546875z" stroke-linejoin="round"/><path id="D" d="m54.890625 33.015625v-33.015625h-8.984375v32.71875q0 7.765625-3.03125 11.609375-3.03125 3.859375-9.078125 3.859375-7.28125 0-11.484375-4.640625-4.203125-4.625-4.203125-12.640625v-30.90625h-9.03125v54.6875h9.03125v-8.5q3.234375 4.9375 7.59375 7.375 4.375 2.4375 10.09375 2.4375 9.421875 0 14.25-5.828125 4.84375-5.828125 4.84375-17.15625z" stroke-linejoin="round"/><path id="E" d="m48.6875 27.296875q0 9.90625-4.078125 15.546875-4.078125 5.640625-11.203125 5.640625-7.140625 0-11.21875-5.640625-4.078125-5.640625-4.078125-15.546875 0-9.90625 4.078125-15.546875 4.078125-5.640625 11.21875-5.640625 7.125 0 11.203125 5.640625 4.078125 5.640625 4.078125 15.546875zm-30.578125 19.09375q2.84375 4.875 7.15625 7.234375 4.328125 2.375 10.328125 2.375 9.96875 0 16.1875-7.90625 6.234375-7.90625 6.234375-20.796875 0-12.890625-6.234375-20.8125-6.21875-7.90625-16.1875-7.90625-6 0-10.328125 2.375-4.3125 2.375-7.15625 7.25v-8.203125h-9.03125v75.984375h9.03125z" stroke-linejoin="round"/><path id="F" d="m30.609375 48.390625q-7.21875 0-11.421875-5.640625-4.203125-5.640625-4.203125-15.453125 0-9.8125 4.171875-15.453125 4.1875-5.640625 11.453125-5.640625 7.1875 0 11.375 5.65625 4.203125 5.671875 4.203125 15.4375 0 9.71875-4.203125 15.40625-4.1875 5.6875-11.375 5.6875zm0 7.609375q11.71875 0 18.40625-7.625 6.703125-7.609375 6.703125-21.078125 0-13.421875-6.703125-21.078125-6.6875-7.640625-18.40625-7.640625-11.765625 0-18.4375 7.640625-6.65625 7.65625-6.65625 21.078125 0 13.46875 6.65625 21.078125 6.671875 7.625 18.4375 7.625z" stroke-linejoin="round"/><path id="G" d="m18.3125 70.21875v-15.53125h18.5v-6.984375h-18.5v-29.6875q0-6.6875 1.828125-8.59375 1.828125-1.90625 7.453125-1.90625h9.21875v-7.515625h-9.21875q-10.40625 0-14.359375 3.875-3.953125 3.890625-3.953125 14.140625v29.6875h-6.59375v6.984375h6.59375v15.53125z" stroke-linejoin="round"/><path id="H" d="m9.421875 75.984375h8.984375v-75.984375h-8.984375z" stroke-linejoin="round"/><path id="I" d="m56.203125 29.59375v-4.390625h-41.3125q.59375-9.28125 5.59375-14.140625 5-4.859375 13.9375-4.859375 5.171875 0 10.03125 1.265625 4.859375 1.265625 9.65625 3.8125v-8.5q-4.84375-2.046875-9.921875-3.125-5.078125-1.078125-10.296875-1.078125-13.09375 0-20.734375 7.609375-7.640625 7.625-7.640625 20.625 0 13.421875 7.25 21.296875 7.25 7.890625 19.5625 7.890625 11.03125 0 17.453125-7.109375 6.421875-7.09375 6.421875-19.296875zm-8.984375 2.640625q-.09375 7.359375-4.125 11.75-4.03125 4.40625-10.671875 4.40625-7.515625 0-12.03125-4.25-4.515625-4.25-5.203125-11.96875z" stroke-linejoin="round"/><path id="J" d="m45.40625 27.984375q0 9.765625-4.03125 15.125-4.015625 5.375-11.296875 5.375-7.21875 0-11.25-5.375-4.03125-5.359375-4.03125-15.125 0-9.71875 4.03125-15.09375 4.03125-5.375 11.25-5.375 7.28125 0 11.296875 5.375 4.03125 5.375 4.03125 15.09375zm8.984375-21.203125q0-13.953125-6.203125-20.765625-6.1875-6.8125-18.984375-6.8125-4.734375 0-8.9375.703125-4.203125.703125-8.15625 2.171875v8.734375q3.953125-2.140625 7.8125-3.15625 3.859375-1.03125 7.859375-1.03125 8.84375 0 13.234375 4.609375 4.390625 4.609375 4.390625 13.9375v4.453125q-2.78125-4.84375-7.125-7.234375-4.34375-2.390625-10.40625-2.390625-10.046875 0-16.203125 7.65625-6.15625 7.671875-6.15625 20.328125 0 12.6875 6.15625 20.34375 6.15625 7.671875 16.203125 7.671875 6.0625 0 10.40625-2.390625 4.34375-2.390625 7.125-7.21875v8.296875h8.984375z" stroke-linejoin="round"/><path id="K" d="m8.5 21.578125v33.109375h8.984375v-32.765625q0-7.765625 3.015625-11.65625 3.03125-3.875 9.09375-3.875 7.265625 0 11.484375 4.640625 4.234375 4.640625 4.234375 12.65625v31h8.984375v-54.6875h-8.984375v8.40625q-3.265625-4.984375-7.59375-7.40625-4.3125-2.421875-10.03125-2.421875-9.421875 0-14.3125 5.859375-4.875 5.859375-4.875 17.140625z" stroke-linejoin="round"/><path id="L" d="m45.40625 46.390625v29.59375h8.984375v-75.984375h-8.984375v8.203125q-2.828125-4.875-7.15625-7.25-4.3125-2.375-10.375-2.375-9.90625 0-16.140625 7.90625-6.21875 7.921875-6.21875 20.8125 0 12.890625 6.21875 20.796875 6.234375 7.90625 16.140625 7.90625 6.0625 0 10.375-2.375 4.328125-2.359375 7.15625-7.234375zm-30.609375-19.09375q0-9.90625 4.078125-15.546875 4.078125-5.640625 11.203125-5.640625 7.125 0 11.21875 5.640625 4.109375 5.640625 4.109375 15.546875 0 9.90625-4.109375 15.546875-4.09375 5.640625-11.21875 5.640625-7.125 0-11.203125-5.640625-4.078125-5.640625-4.078125-15.546875z" stroke-linejoin="round"/><path id="M" d="m9.421875 54.6875h8.984375v-54.6875h-8.984375zm0 21.296875h8.984375v-11.390625h-8.984375z" stroke-linejoin="round"/><path id="N" d="m9.078125 75.984375h9.03125v-44.875l26.8125 23.578125h11.46875l-29-25.578125 30.234375-29.109375h-11.71875l-27.796875 26.703125v-26.703125h-9.03125z" stroke-linejoin="round"/><path id="O" d="m37.109375 75.984375v-7.484375h-8.59375q-4.828125 0-6.71875-1.953125-1.875-1.953125-1.875-7.03125v-4.828125h14.796875v-6.984375h-14.796875v-47.703125h-9.03125v47.703125h-8.59375v6.984375h8.59375v3.8125q0 9.125 4.25 13.296875 4.25 4.1875 13.46875 4.1875z" stroke-linejoin="round"/></defs><g stroke-linejoin="round"><path d="m0 230.4h460.8v-230.4h-460.8z" fill="#fff"/><g><g stroke-linejoin="round"><path d="m46.64 188.44h195.02v-175.12h-195.02z" fill="#fff"/><g clip-path="url(#a)"><use fill="#00f" fill-opacity=".5" stroke="#00f" stroke-linejoin="round" stroke-opacity=".5" x="192.764249" xlink:href="#c" y="53.024185"/></g><g clip-path="url(#a)"><use fill="#00f" fill-opacity=".5" stroke="#00f" stroke-linejoin="round" stroke-opacity=".5" x="193.850299" xlink:href="#c" y="52.086299"/></g><g clip-path="url(#a)"><use fill="#00f" fill-opacity=".5" stroke="#00f" stroke-linejoin="round" stroke-opacity=".5" x="134.518982" xlink:href="#c" y="90.116583"/></g><g clip-path="url(#a)"><use fill="#00f" fill-opacity=".5" stroke="#00f" stroke-linejoin="round" stroke-opacity=".5" x="131.741483" xlink:href="#c" y="80.839847"/></g><g clip-path="url(#a)"><use fill="#00f" fill-opacity=".5" stroke="#00f" stroke-linejoin="round" stroke-opacity=".5" x="156.02995" xlink:href="#c" y="36.22713"/></g><g clip-path="url(#a)"><use fill="#00f" fill-opacity=".5" stroke="#00f" stroke-linejoin="round" stroke-opacity=".5" x="157.659402" xlink:href="#c" y="71.252787"/></g><g clip-path="url(#a)"><use fill="#f00" fill-opacity=".5" stroke="#f00" stroke-linejoin="round" stroke-opacity=".5" x="128.476792" xlink:href="#d" y="142.725211"/></g><g clip-path="url(#a)"><use fill="#f00" fill-opacity=".5" stroke="#f00" stroke-linejoin="round" stroke-opacity=".5" x="118.688637" xlink:href="#d" y="138.959906"/></g><g clip-path="url(#a)"><use fill="#f00" fill-opacity=".5" stroke="#f00" stroke-linejoin="round" stroke-opacity=".5" x="126.952263" xlink:href="#d" y="137.805045"/></g><g clip-path="url(#a)"><use fill="#f00" fill-opacity=".5" stroke="#f00" stroke-linejoin="round" stroke-opacity=".5" x="127.396619" xlink:href="#d" y="137.70691"/></g><g clip-path="url(#a)"><use fill="#f00" fill-opacity=".5" stroke="#f00" stroke-linejoin="round" stroke-opacity=".5" x="127.62094" xlink:href="#d" y="135.897867"/></g><g clip-path="url(#a)"><use fill="#f00" fill-opacity=".5" stroke="#f00" stroke-linejoin="round" stroke-opacity=".5" x="116.461347" xlink:href="#d" y="136.861379"/></g><g clip-path="url(#a)"><use fill="#f00" fill-opacity=".5" stroke="#f00" stroke-linejoin="round" stroke-opacity=".5" x="129.472585" xlink:href="#d" y="137.64099"/></g><g clip-path="url(#a)"><use fill="#f00" fill-opacity=".5" stroke="#f00" stroke-linejoin="round" stroke-opacity=".5" x="123.533365" xlink:href="#d" y="145.663708"/></g><g clip-path="url(#a)"><use fill="#f00" fill-opacity=".5" stroke="#f00" stroke-linejoin="round" stroke-opacity=".5" x="130.534854" xlink:href="#d" y="139.060903"/></g><g clip-path="url(#a)"><use fill="#f00" fill-opacity=".5" stroke="#f00" stroke-linejoin="round" stroke-opacity=".5" x="126.088501" xlink:href="#d" y="141.877595"/></g><g clip-path="url(#a)"><use fill="#ff0" fill-opacity=".5" stroke="#ff0" stroke-linejoin="round" stroke-opacity=".5" x="142.568561" xlink:href="#e" y="108.907205"/></g><g clip-path="url(#a)"><use fill="#ff0" fill-opacity=".5" stroke="#ff0" stroke-linejoin="round" stroke-opacity=".5" x="151.853545" xlink:href="#e" y="92.068382"/></g><g clip-path="url(#a)"><use fill="#ff0" fill-opacity=".5" stroke="#ff0" stroke-linejoin="round" stroke-opacity=".5" x="140.90043" xlink:href="#e" y="109.435121"/></g><g clip-path="url(#a)"><use fill="#ff0" fill-opacity=".5" stroke="#ff0" stroke-linejoin="round" stroke-opacity=".5" x="115.691654" xlink:href="#e" y="111.103887"/></g><g clip-path="url(#a)"><use fill="#808080" fill-opacity=".5" stroke="#808080" stroke-linejoin="round" stroke-opacity=".5" x="130.327235" xlink:href="#f" y="149.049693"/></g><g clip-path="url(#a)"><use fill="#808080" fill-opacity=".5" stroke="#808080" stroke-linejoin="round" stroke-opacity=".5" x="129.777026" xlink:href="#f" y="147.634338"/></g><g clip-path="url(#a)"><use fill="#808080" fill-opacity=".5" stroke="#808080" stroke-linejoin="round" stroke-opacity=".5" x="120.127386" xlink:href="#f" y="137.29996"/></g><g clip-path="url(#a)"><use fill="#808080" fill-opacity=".5" stroke="#808080" stroke-linejoin="round" stroke-opacity=".5" x="131.055065" xlink:href="#f" y="143.192346"/></g><g clip-path="url(#a)"><use fill="#808080" fill-opacity=".5" stroke="#808080" stroke-linejoin="round" stroke-opacity=".5" x="134.692588" xlink:href="#f" y="147.697841"/></g><g clip-path="url(#a)"><use fill="#808080" fill-opacity=".5" stroke="#808080" stroke-linejoin="round" stroke-opacity=".5" x="133.556397" xlink:href="#f" y="148.318365"/></g><g clip-path="url(#a)"><use fill="#ffa500" fill-opacity=".5" stroke="#ffa500" stroke-linejoin="round" stroke-opacity=".5" x="71.931143" xlink:href="#g" y="54.94891"/></g><g clip-path="url(#a)"><use fill="#ffa500" fill-opacity=".5" stroke="#ffa500" stroke-linejoin="round" stroke-opacity=".5" x="96.046899" xlink:href="#g" y="123.777937"/></g><g clip-path="url(#a)"><use fill="#ffa500" fill-opacity=".5" stroke="#ffa500" stroke-linejoin="round" stroke-opacity=".5" x="74.683244" xlink:href="#g" y="84.084889"/></g><g clip-path="url(#a)"><use fill="#ffa500" fill-opacity=".5" stroke="#ffa500" stroke-linejoin="round" stroke-opacity=".5" x="71.188534" xlink:href="#g" y="68.784782"/></g><g clip-path="url(#a)"><use fill="#ffa500" fill-opacity=".5" stroke="#ffa500" stroke-linejoin="round" stroke-opacity=".5" x="90.775085" xlink:href="#g" y="76.46601"/></g><g clip-path="url(#a)"><use fill="#ffa500" fill-opacity=".5" stroke="#ffa500" stroke-linejoin="round" stroke-opacity=".5" x="83.989106" xlink:href="#g" y="91.710316"/></g><g clip-path="url(#a)"><use fill="#f0f" fill-opacity=".5" stroke="#f0f" stroke-linejoin="round" stroke-opacity=".5" x="79.587022" xlink:href="#h" y="140.054344"/></g><g clip-path="url(#a)"><use fill="#f0f" fill-opacity=".5" stroke="#f0f" stroke-linejoin="round" stroke-opacity=".5" x="78.371406" xlink:href="#h" y="140.229167"/></g><g clip-path="url(#a)"><use fill="#f0f" fill-opacity=".5" stroke="#f0f" stroke-linejoin="round" stroke-opacity=".5" x="68.257506" xlink:href="#h" y="118.506361"/></g><g clip-path="url(#a)"><use fill="#f0f" fill-opacity=".5" stroke="#f0f" stroke-linejoin="round" stroke-opacity=".5" x="79.03711" xlink:href="#h" y="146.657766"/></g><g clip-path="url(#a)"><use fill="#f0f" fill-opacity=".5" stroke="#f0f" stroke-linejoin="round" stroke-opacity=".5" x="57.369672" xlink:href="#h" y="128.483728"/></g><g clip-path="url(#a)"><use fill="#0ff" fill-opacity=".5" stroke="#0ff" stroke-linejoin="round" stroke-opacity=".5" x="101.36472" xlink:href="#i" y="125.939014"/></g><g clip-path="url(#a)"><use fill="#0ff" fill-opacity=".5" stroke="#0ff" stroke-linejoin="round" stroke-opacity=".5" x="108.456331" xlink:href="#i" y="107.90245"/></g><g clip-path="url(#a)"><use fill="#0ff" fill-opacity=".5" stroke="#0ff" stroke-linejoin="round" stroke-opacity=".5" x="108.069489" xlink:href="#i" y="109.285518"/></g><g clip-path="url(#a)"><use fill="#0ff" fill-opacity=".5" stroke="#0ff" stroke-linejoin="round" stroke-opacity=".5" x="108.112636" xlink:href="#i" y="112.689847"/></g><g clip-path="url(#a)"><use fill="#0f0" fill-opacity=".5" stroke="#0f0" stroke-linejoin="round" stroke-opacity=".5" x="88.819915" xlink:href="#j" y="123.421097"/></g><g clip-path="url(#a)"><use fill="#0f0" fill-opacity=".5" stroke="#0f0" stroke-linejoin="round" stroke-opacity=".5" x="90.792492" xlink:href="#j" y="123.452805"/></g><g clip-path="url(#a)"><use fill="#0f0" fill-opacity=".5" stroke="#0f0" stroke-linejoin="round" stroke-opacity=".5" x="90.01598" xlink:href="#j" y="125.213373"/></g><g clip-path="url(#a)"><use fill="#0f0" fill-opacity=".5" stroke="#0f0" stroke-linejoin="round" stroke-opacity=".5" x="84.927094" xlink:href="#j" y="120.402514"/></g><g clip-path="url(#a)"><use fill="#0f0" fill-opacity=".5" stroke="#0f0" stroke-linejoin="round" stroke-opacity=".5" x="90.030642" xlink:href="#j" y="121.111866"/></g><g clip-path="url(#a)"><use fill="#0f0" fill-opacity=".5" stroke="#0f0" stroke-linejoin="round" stroke-opacity=".5" x="80.102281" xlink:href="#j" y="116.267255"/></g><g clip-path="url(#a)"><use fill="#0f0" fill-opacity=".5" stroke="#0f0" stroke-linejoin="round" stroke-opacity=".5" x="101.346909" xlink:href="#j" y="136.283738"/></g><g clip-path="url(#a)"><use fill="#0f0" fill-opacity=".5" stroke="#0f0" stroke-linejoin="round" stroke-opacity=".5" x="103.939385" xlink:href="#j" y="142.818264"/></g><g clip-path="url(#a)"><use fill="#0f0" fill-opacity=".5" stroke="#0f0" stroke-linejoin="round" stroke-opacity=".5" x="95.126576" xlink:href="#j" y="128.20783"/></g><g clip-path="url(#a)"><use fill="#0f0" fill-opacity=".5" stroke="#0f0" stroke-linejoin="round" stroke-opacity=".5" x="107.866537" xlink:href="#j" y="136.635431"/></g><g clip-path="url(#a)"><use fill="#4b0082" fill-opacity=".5" stroke="#4b0082" stroke-linejoin="round" stroke-opacity=".5" x="107.284837" xlink:href="#k" y="22.848926"/></g><g clip-path="url(#a)"><use fill="#4b0082" fill-opacity=".5" stroke="#4b0082" stroke-linejoin="round" stroke-opacity=".5" x="157.293605" xlink:href="#k" y="139.178212"/></g><g clip-path="url(#a)"><use fill="#4b0082" fill-opacity=".5" stroke="#4b0082" stroke-linejoin="round" stroke-opacity=".5" x="155.492576" xlink:href="#k" y="133.412825"/></g><g clip-path="url(#a)"><use fill="#4b0082" fill-opacity=".5" stroke="#4b0082" stroke-linejoin="round" stroke-opacity=".5" x="154.731867" xlink:href="#k" y="133.602627"/></g><g clip-path="url(#a)"><use fill="#4b0082" fill-opacity=".5" stroke="#4b0082" stroke-linejoin="round" stroke-opacity=".5" x="157.62545" xlink:href="#k" y="130.534468"/></g><g clip-path="url(#a)"><use fill="#ff7f50" fill-opacity=".5" stroke="#ff7f50" stroke-linejoin="round" stroke-opacity=".5" x="155.847092" xlink:href="#l" y="167.824362"/></g><g clip-path="url(#a)"><use fill="#ff7f50" fill-opacity=".5" stroke="#ff7f50" stroke-linejoin="round" stroke-opacity=".5" x="150.507948" xlink:href="#l" y="160.971043"/></g><g clip-path="url(#a)"><use fill="#ff7f50" fill-opacity=".5" stroke="#ff7f50" stroke-linejoin="round" stroke-opacity=".5" x="150.101846" xlink:href="#l" y="163.376678"/></g><g clip-path="url(#a)"><use fill="#ff7f50" fill-opacity=".5" stroke="#ff7f50" stroke-linejoin="round" stroke-opacity=".5" x="154.06789" xlink:href="#l" y="158.723562"/></g><g clip-path="url(#a)"><use fill="#ff7f50" fill-opacity=".5" stroke="#ff7f50" stroke-linejoin="round" stroke-opacity=".5" x="173.107838" xlink:href="#l" y="147.296033"/></g><g clip-path="url(#a)"><use fill="#ff7f50" fill-opacity=".5" stroke="#ff7f50" stroke-linejoin="round" stroke-opacity=".5" x="176.666302" xlink:href="#l" y="166.844222"/></g><g clip-path="url(#a)"><use fill="#ff7f50" fill-opacity=".5" stroke="#ff7f50" stroke-linejoin="round" stroke-opacity=".5" x="165.769109" xlink:href="#l" y="164.428937"/></g><g clip-path="url(#a)"><use fill="#ff7f50" fill-opacity=".5" stroke="#ff7f50" stroke-linejoin="round" stroke-opacity=".5" x="163.58337" xlink:href="#l" y="178.454238"/></g><g clip-path="url(#a)"><use fill-opacity=".5" stroke="#000" stroke-linejoin="round" stroke-opacity=".5" x="227.725113" xlink:href="#m" y="142.768135"/></g><g clip-path="url(#a)"><use fill-opacity=".5" stroke="#000" stroke-linejoin="round" stroke-opacity=".5" x="230.245003" xlink:href="#m" y="146.127846"/></g><g clip-path="url(#a)"><use fill-opacity=".5" stroke="#000" stroke-linejoin="round" stroke-opacity=".5" x="208.945189" xlink:href="#m" y="148.150533"/></g><g><g><path clip-path="url(#a)" d="m62.388113 188.44v-175.12" fill="none" stroke="#b0b0b0" stroke-linecap="square" stroke-width=".8"/><use stroke="#000" stroke-width=".8" x="62.388113" xlink:href="#n" y="188.44"/><g transform="matrix(.1 0 0 -.1 55.017019 203.038437)"><use xlink:href="#o"/><use x="83.789062" xlink:href="#p"/></g></g><g><path clip-path="url(#a)" d="m113.116403 188.44v-175.12" fill="none" stroke="#b0b0b0" stroke-linecap="square" stroke-width=".8"/><use stroke="#000" stroke-width=".8" x="113.116403" xlink:href="#n" y="188.44"/><use transform="matrix(.1 0 0 -.1 109.935153 203.038437)" xlink:href="#q"/></g><g><path clip-path="url(#a)" d="m163.844694 188.44v-175.12" fill="none" stroke="#b0b0b0" stroke-linecap="square" stroke-width=".8"/><use stroke="#000" stroke-width=".8" x="163.844694" xlink:href="#n" y="188.44"/><use transform="matrix(.1 0 0 -.1 160.663444 203.038437)" xlink:href="#p"/></g><g><path clip-path="url(#a)" d="m214.572985 188.44v-175.12" fill="none" stroke="#b0b0b0" stroke-linecap="square" stroke-width=".8"/><use stroke="#000" stroke-width=".8" x="214.572985" xlink:href="#n" y="188.44"/><use transform="matrix(.1 0 0 -.1 211.391735 203.038437)" xlink:href="#r"/></g><g transform="matrix(.1 0 0 -.1 137.54375 216.716562)"><use xlink:href="#s"/><use x="68.505859" xlink:href="#q"/></g></g><g><g><path clip-path="url(#a)" d="m46.64 184.281491h195.02" fill="none" stroke="#b0b0b0" stroke-linecap="square" stroke-width=".8"/><use stroke="#000" stroke-width=".8" x="46.64" xlink:href="#t" y="184.281491"/><g transform="matrix(.1 0 0 -.1 24.897813 188.08071)"><use xlink:href="#o"/><use x="83.789062" xlink:href="#p"/></g></g><g><path clip-path="url(#a)" d="m46.64 157.225502h195.02" fill="none" stroke="#b0b0b0" stroke-linecap="square" stroke-width=".8"/><use stroke="#000" stroke-width=".8" x="46.64" xlink:href="#t" y="157.225502"/><g transform="matrix(.1 0 0 -.1 24.897813 161.024721)"><use xlink:href="#o"/><use x="83.789062" xlink:href="#u"/></g></g><g><path clip-path="url(#a)" d="m46.64 130.169513h195.02" fill="none" stroke="#b0b0b0" stroke-linecap="square" stroke-width=".8"/><use stroke="#000" stroke-width=".8" x="46.64" xlink:href="#t" y="130.169513"/><use transform="matrix(.1 0 0 -.1 33.2775 133.968732)" xlink:href="#q"/></g><g><path clip-path="url(#a)" d="m46.64 103.113524h195.02" fill="none" stroke="#b0b0b0" stroke-linecap="square" stroke-width=".8"/><use stroke="#000" stroke-width=".8" x="46.64" xlink:href="#t" y="103.113524"/><use transform="matrix(.1 0 0 -.1 33.2775 106.912743)" xlink:href="#u"/></g><g><path clip-path="url(#a)" d="m46.64 76.057535h195.02" fill="none" stroke="#b0b0b0" stroke-linecap="square" stroke-width=".8"/><use stroke="#000" stroke-width=".8" x="46.64" xlink:href="#t" y="76.057535"/><use transform="matrix(.1 0 0 -.1 33.2775 79.856754)" xlink:href="#p"/></g><g><path clip-path="url(#a)" d="m46.64 49.001546h195.02" fill="none" stroke="#b0b0b0" stroke-linecap="square" stroke-width=".8"/><use stroke="#000" stroke-width=".8" x="46.64" xlink:href="#t" y="49.001546"/><use transform="matrix(.1 0 0 -.1 33.2775 52.800765)" xlink:href="#v"/></g><g><path clip-path="url(#a)" d="m46.64 21.945557h195.02" fill="none" stroke="#b0b0b0" stroke-linecap="square" stroke-width=".8"/><use stroke="#000" stroke-width=".8" x="46.64" xlink:href="#t" y="21.945557"/><use transform="matrix(.1 0 0 -.1 33.2775 25.744776)" xlink:href="#r"/></g><g transform="matrix(0 -.1 -.1 0 18.818125 107.48625)"><use xlink:href="#s"/><use x="68.505859" xlink:href="#u"/></g></g></g><path d="m46.64 188.44v-175.12" fill="none" stroke="#000" stroke-linecap="square" stroke-linejoin="miter" stroke-width=".8"/><path d="m241.66 188.44v-175.12" fill="none" stroke="#000" stroke-linecap="square" stroke-linejoin="miter" stroke-width=".8"/><path d="m46.64 188.44h195.02" fill="none" stroke="#000" stroke-linecap="square" stroke-linejoin="miter" stroke-width=".8"/><path d="m46.64 13.32h195.02" fill="none" stroke="#000" stroke-linecap="square" stroke-linejoin="miter" stroke-width=".8"/></g><g><g clip-path="url(#b)"><path d="m0 3c.795609 0 1.55874-.316099 2.12132-.87868.562581-.56258.87868-1.325711.87868-2.12132s-.316099-1.55874-.87868-2.12132c-.56258-.562581-1.325711-.87868-2.12132-.87868s-1.55874.316099-2.12132.87868c-.562581.56258-.87868 1.325711-.87868 2.12132s.316099 1.55874.87868 2.12132c.56258.562581 1.325711.87868 2.12132.87868z" fill="#00f" stroke="#00f" stroke-linejoin="round" transform="translate(262.480769 180.286273)"/></g><g clip-path="url(#b)"><path d="m0 3c.795609 0 1.55874-.316099 2.12132-.87868.562581-.56258.87868-1.325711.87868-2.12132s-.316099-1.55874-.87868-2.12132c-.56258-.562581-1.325711-.87868-2.12132-.87868s-1.55874.316099-2.12132.87868c-.562581.56258-.87868 1.325711-.87868 2.12132s.316099 1.55874.87868 2.12132c.56258.562581 1.325711.87868 2.12132.87868z" fill="#f00" stroke="#f00" stroke-linejoin="round" transform="translate(262.480769 164.580043)"/></g><g clip-path="url(#b)"><path d="m0 3c.795609 0 1.55874-.316099 2.12132-.87868.562581-.56258.87868-1.325711.87868-2.12132s-.316099-1.55874-.87868-2.12132c-.56258-.562581-1.325711-.87868-2.12132-.87868s-1.55874.316099-2.12132.87868c-.562581.56258-.87868 1.325711-.87868 2.12132s.316099 1.55874.87868 2.12132c.56258.562581 1.325711.87868 2.12132.87868z" fill="#ff0" stroke="#ff0" stroke-linejoin="round" transform="translate(262.480769 148.873812)"/></g><g clip-path="url(#b)"><path d="m0 3c.795609 0 1.55874-.316099 2.12132-.87868.562581-.56258.87868-1.325711.87868-2.12132s-.316099-1.55874-.87868-2.12132c-.56258-.562581-1.325711-.87868-2.12132-.87868s-1.55874.316099-2.12132.87868c-.562581.56258-.87868 1.325711-.87868 2.12132s.316099 1.55874.87868 2.12132c.56258.562581 1.325711.87868 2.12132.87868z" fill="#808080" stroke="#808080" stroke-linejoin="round" transform="translate(262.480769 133.167582)"/></g><g clip-path="url(#b)"><path d="m0 3c.795609 0 1.55874-.316099 2.12132-.87868.562581-.56258.87868-1.325711.87868-2.12132s-.316099-1.55874-.87868-2.12132c-.56258-.562581-1.325711-.87868-2.12132-.87868s-1.55874.316099-2.12132.87868c-.562581.56258-.87868 1.325711-.87868 2.12132s.316099 1.55874.87868 2.12132c.56258.562581 1.325711.87868 2.12132.87868z" fill="#ffa500" stroke="#ffa500" stroke-linejoin="round" transform="translate(262.480769 117.461352)"/></g><g clip-path="url(#b)"><path d="m0 3c.795609 0 1.55874-.316099 2.12132-.87868.562581-.56258.87868-1.325711.87868-2.12132s-.316099-1.55874-.87868-2.12132c-.56258-.562581-1.325711-.87868-2.12132-.87868s-1.55874.316099-2.12132.87868c-.562581.56258-.87868 1.325711-.87868 2.12132s.316099 1.55874.87868 2.12132c.56258.562581 1.325711.87868 2.12132.87868z" fill="#f0f" stroke="#f0f" stroke-linejoin="round" transform="translate(262.480769 101.755121)"/></g><g clip-path="url(#b)"><path d="m0 3c.795609 0 1.55874-.316099 2.12132-.87868.562581-.56258.87868-1.325711.87868-2.12132s-.316099-1.55874-.87868-2.12132c-.56258-.562581-1.325711-.87868-2.12132-.87868s-1.55874.316099-2.12132.87868c-.562581.56258-.87868 1.325711-.87868 2.12132s.316099 1.55874.87868 2.12132c.56258.562581 1.325711.87868 2.12132.87868z" fill="#0ff" stroke="#0ff" stroke-linejoin="round" transform="translate(262.480769 86.048891)"/></g><g clip-path="url(#b)"><path d="m0 3c.795609 0 1.55874-.316099 2.12132-.87868.562581-.56258.87868-1.325711.87868-2.12132s-.316099-1.55874-.87868-2.12132c-.56258-.562581-1.325711-.87868-2.12132-.87868s-1.55874.316099-2.12132.87868c-.562581.56258-.87868 1.325711-.87868 2.12132s.316099 1.55874.87868 2.12132c.56258.562581 1.325711.87868 2.12132.87868z" fill="#0f0" stroke="#0f0" stroke-linejoin="round" transform="translate(262.480769 70.34266)"/></g><g clip-path="url(#b)"><path d="m0 3c.795609 0 1.55874-.316099 2.12132-.87868.562581-.56258.87868-1.325711.87868-2.12132s-.316099-1.55874-.87868-2.12132c-.56258-.562581-1.325711-.87868-2.12132-.87868s-1.55874.316099-2.12132.87868c-.562581.56258-.87868 1.325711-.87868 2.12132s.316099 1.55874.87868 2.12132c.56258.562581 1.325711.87868 2.12132.87868z" fill="#4b0082" stroke="#4b0082" stroke-linejoin="round" transform="translate(262.480769 54.63643)"/></g><g clip-path="url(#b)"><path d="m0 3c.795609 0 1.55874-.316099 2.12132-.87868.562581-.56258.87868-1.325711.87868-2.12132s-.316099-1.55874-.87868-2.12132c-.56258-.562581-1.325711-.87868-2.12132-.87868s-1.55874.316099-2.12132.87868c-.562581.56258-.87868 1.325711-.87868 2.12132s.316099 1.55874.87868 2.12132c.56258.562581 1.325711.87868 2.12132.87868z" fill="#ff7f50" stroke="#ff7f50" stroke-linejoin="round" transform="translate(262.480769 38.9302)"/></g><g clip-path="url(#b)"><path d="m0 3c.795609 0 1.55874-.316099 2.12132-.87868.562581-.56258.87868-1.325711.87868-2.12132s-.316099-1.55874-.87868-2.12132c-.56258-.562581-1.325711-.87868-2.12132-.87868s-1.55874.316099-2.12132.87868c-.562581.56258-.87868 1.325711-.87868 2.12132s.316099 1.55874.87868 2.12132c.56258.562581 1.325711.87868 2.12132.87868z" stroke="#000" stroke-linejoin="round" transform="translate(262.480769 23.223969)"/></g><use transform="matrix(.16 0 0 -.16 281.232692 184.701273)" xlink:href="#q"/><g transform="matrix(.16 0 0 -.16 303.735 184.256273)"><use xlink:href="#w"/><use x="52.099609" xlink:href="#x"/><use x="115.576172" xlink:href="#y"/><use x="156.689453" xlink:href="#z"/><use x="217.96875" xlink:href="#A"/><use x="277.148438" xlink:href="#B"/><use x="327.148438" xlink:href="#C"/><use x="382.128906" xlink:href="#z"/><use x="443.408203" xlink:href="#D"/><use x="506.787109" xlink:href="#w"/></g><use transform="matrix(.16 0 0 -.16 281.232692 168.995043)" xlink:href="#u"/><g transform="matrix(.16 0 0 -.16 303.735 168.772543)"><path d="m19.671875 64.796875v-27.390625h12.40625q6.890625 0 10.640625 3.5625 3.765625 3.5625 3.765625 10.15625 0 6.546875-3.765625 10.109375-3.75 3.5625-10.640625 3.5625zm-9.859375 8.109375h22.265625q12.265625 0 18.53125-5.546875 6.28125-5.546875 6.28125-16.234375 0-10.796875-6.28125-16.3125-6.265625-5.515625-18.53125-5.515625h-12.40625v-29.296875h-9.859375z"/><path d="m9.8125 72.90625h46.09375v-8.3125h-36.234375v-21.578125h34.71875v-8.296875h-34.71875v-26.421875h37.109375v-8.296875h-46.96875z" transform="translate(60.302734)"/><path d="m-.296875 72.90625h61.671875v-8.3125h-25.875v-64.59375h-9.90625v64.59375h-25.890625z" transform="translate(123.486328)"/><use x="184.570312" xlink:href="#B"/><use x="234.570312" xlink:href="#E"/><use x="298.046875" xlink:href="#F"/><use x="359.228516" xlink:href="#G"/><use x="398.4375" xlink:href="#G"/><use x="437.646484" xlink:href="#H"/><use x="465.429688" xlink:href="#I"/><use x="526.953125" xlink:href="#w"/></g><use transform="matrix(.16 0 0 -.16 281.232692 153.288812)" xlink:href="#p"/><g transform="matrix(.16 0 0 -.16 303.735 153.066312)"><use xlink:href="#J"/><use x="63.476562" xlink:href="#H"/><use x="91.259766" xlink:href="#z"/><use x="152.539062" xlink:href="#w"/><use x="204.638672" xlink:href="#w"/><use x="256.738281" xlink:href="#B"/><use x="306.738281" xlink:href="#E"/><use x="370.214844" xlink:href="#F"/><use x="431.396484" xlink:href="#G"/><use x="470.605469" xlink:href="#G"/><use x="509.814453" xlink:href="#H"/><use x="537.597656" xlink:href="#I"/><use x="599.121094" xlink:href="#w"/></g><use transform="matrix(.16 0 0 -.16 281.232692 137.582582)" xlink:href="#v"/><g transform="matrix(.16 0 0 -.16 303.735 137.360082)"><use xlink:href="#C"/><use x="54.980469" xlink:href="#K"/><use x="118.359375" xlink:href="#x"/><use x="181.835938" xlink:href="#B"/><path d="m9.8125 72.90625h13.28125l32.328125-60.984375v60.984375h9.5625v-72.90625h-13.28125l-32.3125 60.984375v-60.984375h-9.578125z" transform="translate(231.835938)"/><use x="306.640625" xlink:href="#F"/><use x="367.822266" xlink:href="#F"/><use x="429.003906" xlink:href="#L"/><use x="492.480469" xlink:href="#H"/><use x="520.263672" xlink:href="#I"/><use x="581.787109" xlink:href="#w"/></g><use transform="matrix(.16 0 0 -.16 281.232692 121.876352)" xlink:href="#r"/><g transform="matrix(.16 0 0 -.16 303.735 121.876352)"><use xlink:href="#w"/><path d="m54.890625 33.015625v-33.015625h-8.984375v32.71875q0 7.765625-3.03125 11.609375-3.03125 3.859375-9.078125 3.859375-7.28125 0-11.484375-4.640625-4.203125-4.625-4.203125-12.640625v-30.90625h-9.03125v75.984375h9.03125v-29.796875q3.234375 4.9375 7.59375 7.375 4.375 2.4375 10.09375 2.4375 9.421875 0 14.25-5.828125 4.84375-5.828125 4.84375-17.15625z" transform="translate(52.099609)"/><use x="115.478516" xlink:href="#z"/><path d="m52 44.1875q3.375 6.0625 8.0625 8.9375 4.6875 2.875 11.03125 2.875 8.546875 0 13.1875-5.984375 4.640625-5.96875 4.640625-17v-33.015625h-9.03125v32.71875q0 7.859375-2.796875 11.65625-2.78125 3.8125-8.484375 3.8125-6.984375 0-11.046875-4.640625-4.046875-4.625-4.046875-12.640625v-30.90625h-9.03125v32.71875q0 7.90625-2.78125 11.6875-2.78125 3.78125-8.59375 3.78125-6.890625 0-10.953125-4.65625-4.046875-4.65625-4.046875-12.625v-30.90625h-9.03125v54.6875h9.03125v-8.5q3.078125 5.03125 7.375 7.421875 4.296875 2.390625 10.203125 2.390625 5.96875 0 10.140625-3.03125 4.171875-3.015625 6.171875-8.78125z" transform="translate(176.757812)"/><use x="274.169922" xlink:href="#x"/><use x="337.646484" xlink:href="#F"/><use x="398.828125" xlink:href="#F"/><use x="460.009766" xlink:href="#w"/></g><path d="m10.796875 72.90625h38.71875v-8.3125h-29.6875v-17.859375q2.140625.734375 4.28125 1.09375 2.15625.359375 4.3125.359375 12.203125 0 19.328125-6.6875 7.140625-6.6875 7.140625-18.109375 0-11.765625-7.328125-18.296875-7.328125-6.515625-20.65625-6.515625-4.59375 0-9.359375.78125-4.75.78125-9.828125 2.34375v9.921875q4.390625-2.390625 9.078125-3.5625 4.6875-1.171875 9.90625-1.171875 8.453125 0 13.375 4.4375 4.9375 4.4375 4.9375 12.0625 0 7.609375-4.9375 12.046875-4.921875 4.453125-13.375 4.453125-3.953125 0-7.890625-.875-3.921875-.875-8.015625-2.734375z" transform="matrix(.16 0 0 -.16 281.232692 106.170121)"/><g transform="matrix(.16 0 0 -.16 303.735 105.947621)"><use xlink:href="#C"/><use x="54.980469" xlink:href="#H"/><use x="82.763672" xlink:href="#I"/><use x="144.287109" xlink:href="#z"/><use x="205.566406" xlink:href="#D"/><use x="268.945312" xlink:href="#M"/><use x="296.728516" xlink:href="#D"/><use x="360.107422" xlink:href="#J"/><use x="423.583984" xlink:href="#B"/><use x="473.583984" xlink:href="#G"/><use x="512.792969" xlink:href="#F"/><use x="573.974609" xlink:href="#F"/><use x="635.15625" xlink:href="#H"/></g><path d="m33.015625 40.375q-6.640625 0-10.53125-4.546875-3.875-4.53125-3.875-12.4375 0-7.859375 3.875-12.4375 3.890625-4.5625 10.53125-4.5625 6.640625 0 10.515625 4.5625 3.875 4.578125 3.875 12.4375 0 7.90625-3.875 12.4375-3.875 4.546875-10.515625 4.546875zm19.578125 30.921875v-8.984375q-3.71875 1.75-7.5 2.671875-3.78125.9375-7.5.9375-9.765625 0-14.921875-6.59375-5.140625-6.59375-5.875-19.921875 2.875 4.25 7.21875 6.515625 4.359375 2.265625 9.578125 2.265625 10.984375 0 17.359375-6.671875 6.375-6.65625 6.375-18.125 0-11.234375-6.640625-18.03125-6.640625-6.78125-17.671875-6.78125-12.65625 0-19.34375 9.6875-6.6875 9.703125-6.6875 28.109375 0 17.28125 8.203125 27.5625 8.203125 10.28125 22.015625 10.28125 3.71875 0 7.5-.734375 3.78125-.734375 7.890625-2.1875z" transform="matrix(.16 0 0 -.16 281.232692 90.463891)"/><g transform="matrix(.16 0 0 -.16 303.735 90.241391)"><use xlink:href="#w"/><use x="52.099609" xlink:href="#G"/><use x="91.308594" xlink:href="#M"/><use x="119.091797" xlink:href="#C"/><use x="174.072266" xlink:href="#N"/><use x="231.935547" xlink:href="#A"/><use x="291.115234" xlink:href="#B"/><use x="341.115234" xlink:href="#w"/><use x="393.214844" xlink:href="#D"/><use x="456.59375" xlink:href="#z"/><use x="517.873047" xlink:href="#C"/><use x="572.853516" xlink:href="#N"/><use x="630.763672" xlink:href="#w"/></g><path d="m8.203125 72.90625h46.875v-4.203125l-26.46875-68.703125h-10.296875l24.90625 64.59375h-35.015625z" transform="matrix(.16 0 0 -.16 281.232692 74.75766)"/><g transform="matrix(.16 0 0 -.16 303.735 74.53516)"><use xlink:href="#E"/><use x="63.476562" xlink:href="#F"/><path d="m54.890625 54.6875-19.78125-26.609375 20.796875-28.078125h-10.59375l-15.921875 21.484375-15.90625-21.484375h-10.609375l21.25 28.609375-19.4375 26.078125h10.59375l14.5-19.484375 14.5 19.484375z" transform="translate(124.611328)"/><use x="183.791016" xlink:href="#B"/><use x="233.791016" xlink:href="#w"/><use x="285.890625" xlink:href="#D"/><use x="349.269531" xlink:href="#z"/><use x="410.548828" xlink:href="#C"/><use x="465.529297" xlink:href="#N"/><use x="523.439453" xlink:href="#w"/></g><path d="m31.78125 34.625q-7.03125 0-11.0625-3.765625-4.015625-3.765625-4.015625-10.34375 0-6.59375 4.015625-10.359375 4.03125-3.765625 11.0625-3.765625 7.03125 0 11.078125 3.78125 4.0625 3.796875 4.0625 10.34375 0 6.578125-4.03125 10.34375-4.015625 3.765625-11.109375 3.765625zm-9.859375 4.1875q-6.34375 1.5625-9.890625 5.90625-3.53125 4.359375-3.53125 10.609375 0 8.734375 6.21875 13.8125 6.234375 5.078125 17.0625 5.078125 10.890625 0 17.09375-5.078125 6.203125-5.078125 6.203125-13.8125 0-6.25-3.546875-10.609375-3.53125-4.34375-9.828125-5.90625 7.125-1.65625 11.09375-6.5 3.984375-4.828125 3.984375-11.796875 0-10.609375-6.46875-16.28125-6.46875-5.65625-18.53125-5.65625-12.046875 0-18.53125 5.65625-6.46875 5.671875-6.46875 16.28125 0 6.96875 4 11.796875 4.015625 4.84375 11.140625 6.5zm-3.609375 15.578125q0-5.65625 3.53125-8.828125 3.546875-3.171875 9.9375-3.171875 6.359375 0 9.9375 3.171875 3.59375 3.171875 3.59375 8.828125 0 5.671875-3.59375 8.84375-3.578125 3.171875-9.9375 3.171875-6.390625 0-9.9375-3.171875-3.53125-3.171875-3.53125-8.84375z" transform="matrix(.16 0 0 -.16 281.232692 59.05143)"/><g transform="matrix(.16 0 0 -.16 303.735 59.05143)"><use xlink:href="#A"/><use x="59.179688" xlink:href="#z"/><use x="120.458984" xlink:href="#y"/><use x="161.556641" xlink:href="#D"/><use x="224.935547" xlink:href="#w"/></g><path d="m10.984375 1.515625v8.984375q3.71875-1.765625 7.515625-2.6875 3.8125-.921875 7.484375-.921875 9.765625 0 14.90625 6.5625 5.15625 6.5625 5.890625 19.953125-2.828125-4.203125-7.1875-6.453125-4.34375-2.25-9.609375-2.25-10.9375 0-17.3125 6.609375-6.375 6.625-6.375 18.109375 0 11.21875 6.640625 18 6.640625 6.796875 17.671875 6.796875 12.65625 0 19.3125-9.703125 6.671875-9.6875 6.671875-28.140625 0-17.234375-8.1875-27.515625-8.171875-10.28125-21.984375-10.28125-3.71875 0-7.53125.734375-3.796875.734375-7.90625 2.203125zm19.625 30.90625q6.640625 0 10.515625 4.53125 3.890625 4.546875 3.890625 12.46875 0 7.859375-3.890625 12.421875-3.875 4.5625-10.515625 4.5625-6.640625 0-10.515625-4.5625-3.875-4.5625-3.875-12.421875 0-7.921875 3.875-12.46875 3.875-4.53125 10.515625-4.53125z" transform="matrix(.16 0 0 -.16 281.232692 43.3452)"/><g transform="matrix(.16 0 0 -.16 303.735 43.1227)"><use xlink:href="#w"/><use x="52.099609" xlink:href="#G"/><use x="91.308594" xlink:href="#K"/><use x="154.6875" xlink:href="#O"/><use x="189.892578" xlink:href="#O"/><use x="225.097656" xlink:href="#I"/><use x="286.621094" xlink:href="#L"/><use x="350.097656" xlink:href="#B"/><use x="400.097656" xlink:href="#G"/><use x="439.306641" xlink:href="#F"/><use x="500.488281" xlink:href="#A"/><use x="559.667969" xlink:href="#w"/></g><g transform="matrix(.16 0 0 -.16 281.232692 27.638969)"><use xlink:href="#u"/><use x="63.623047" xlink:href="#q"/></g><g transform="matrix(.16 0 0 -.16 303.735 27.416469)"><use xlink:href="#w"/><use x="52.099609" xlink:href="#F"/><use x="113.28125" xlink:href="#K"/><use x="176.660156" xlink:href="#D"/><use x="240.039062" xlink:href="#L"/><use x="303.515625" xlink:href="#B"/><use x="353.515625" xlink:href="#w"/><use x="405.615234" xlink:href="#G"/><use x="444.824219" xlink:href="#K"/><use x="508.203125" xlink:href="#O"/><use x="543.408203" xlink:href="#O"/><use x="578.613281" xlink:href="#I"/><use x="640.136719" xlink:href="#L"/><use x="703.613281" xlink:href="#B"/><use x="753.613281" xlink:href="#G"/><use x="792.822266" xlink:href="#F"/><use x="854.003906" xlink:href="#A"/><use x="913.183594" xlink:href="#w"/></g></g></g></svg>