<svg id="レイヤー_1" data-name="レイヤー 1" xmlns="http://www.w3.org/2000/svg" viewBox="0 0 640 320"><defs><style>.cls-1,.cls-11,.cls-12,.cls-9{fill:#fff;stroke-width:2px}.cls-1,.cls-4{stroke:#b3b3b3}.cls-1,.cls-11,.cls-12,.cls-4,.cls-6,.cls-7,.cls-8,.cls-9{stroke-miterlimit:10}.cls-2{font-size:16px}.cls-2,.cls-3{font-family:TimesNewRomanPS-BoldItalicMT,Times New Roman;font-style:italic}.cls-10,.cls-2,.cls-3{font-weight:700}.cls-3{font-size:8px}.cls-4{fill:none}.cls-4,.cls-6,.cls-7,.cls-8{stroke-width:3px}.cls-5{fill:#b3b3b3}.cls-6{fill:#00f}.cls-11,.cls-6{stroke:#00f}.cls-6,.cls-7,.cls-8{stroke-dasharray:4}.cls-6,.cls-7{opacity:.3}.cls-7{fill:red}.cls-12,.cls-7{stroke:red}.cls-8{fill:#f7931e;opacity:.5}.cls-8,.cls-9{stroke:#f7931e}.cls-10{font-size:20px;font-family:YuGothic-Bold,Yu Gothic}</style></defs><title>MutualMDP_640x320</title><circle class="cls-1" cx="225.5" cy="109.5" r="14"/><text class="cls-2" transform="translate(213.36 115.66)">Z</text><text class="cls-3" transform="translate(224.28 108.35)">env<tspan x=".09" y="8">t-1</tspan></text><circle class="cls-1" cx="224" cy="211" r="14"/><text class="cls-2" transform="translate(211.86 217.16)">Z</text><text class="cls-3" transform="translate(222.78 209.85)">self<tspan x=".09" y="8">t-1</tspan></text><line class="cls-4" x1="224.07" y1="130.89" x2="223.57" y2="188.61"/><polygon class="cls-5" points="233.18 132.19 214.95 132.03 224.14 123 233.18 132.19"/><polygon class="cls-5" points="232.69 187.47 214.47 187.31 223.5 196.5 232.69 187.47"/><line class="cls-4" x1="224.14" y1="226" x2="224.67" y2="248.12"/><polygon class="cls-5" points="233.75 246.68 215.53 247.11 224.86 256 233.75 246.68"/><circle class="cls-1" cx="225" cy="270" r="14"/><text class="cls-2" transform="translate(212.86 276.15)">X</text><text class="cls-3" transform="translate(224.78 268.85)">self<tspan x=".09" y="8">t-1</tspan></text><line class="cls-4" x1="224.33" y1="73.88" x2="224.86" y2="96"/><polygon class="cls-5" points="233.47 74.89 215.25 75.32 224.14 66 233.47 74.89"/><circle class="cls-1" cx="224" cy="51" r="14"/><text class="cls-2" transform="translate(211.86 57.13)">X</text><text class="cls-3" transform="translate(223.78 49.85)">env<tspan x=".09" y="8">t-1</tspan></text><circle class="cls-1" cx="333.5" cy="109.5" r="14"/><text class="cls-2" transform="translate(321.36 115.66)">Z</text><text class="cls-3" transform="translate(332.28 108.35)">env<tspan x=".09" y="8">t</tspan></text><circle class="cls-1" cx="332" cy="211" r="14"/><text class="cls-2" transform="translate(319.86 217.16)">Z</text><text class="cls-3" transform="translate(330.78 209.85)">self<tspan x=".09" y="8">t</tspan></text><line class="cls-4" x1="332.07" y1="130.89" x2="331.57" y2="188.61"/><polygon class="cls-5" points="341.18 132.19 322.95 132.03 332.14 123 341.18 132.19"/><polygon class="cls-5" points="340.69 187.47 322.47 187.31 331.5 196.5 340.69 187.47"/><line class="cls-4" x1="332.14" y1="226" x2="332.67" y2="248.12"/><polygon class="cls-5" points="341.75 246.68 323.53 247.11 332.86 256 341.75 246.68"/><circle class="cls-1" cx="333" cy="270" r="14"/><text class="cls-2" transform="translate(320.86 276.15)">X</text><text class="cls-3" transform="translate(332.78 268.85)">self<tspan x=".09" y="8">t</tspan></text><line class="cls-4" x1="332.33" y1="73.88" x2="332.86" y2="96"/><polygon class="cls-5" points="341.47 74.89 323.25 75.32 332.14 66 341.47 74.89"/><circle class="cls-1" cx="332" cy="51" r="14"/><text class="cls-2" transform="translate(319.86 57.13)">X</text><text class="cls-3" transform="translate(331.78 49.85)">env<tspan x=".09" y="8">t</tspan></text><circle class="cls-1" cx="441.5" cy="109.5" r="14"/><text class="cls-2" transform="translate(429.36 115.66)">Z</text><text class="cls-3" transform="translate(440.28 108.35)">env<tspan x=".09" y="8">t+1</tspan></text><circle class="cls-1" cx="440" cy="211" r="14"/><text class="cls-2" transform="translate(427.86 217.16)">Z</text><text class="cls-3" transform="translate(438.78 209.85)">self<tspan x=".09" y="8">t+1</tspan></text><line class="cls-4" x1="440.07" y1="130.89" x2="439.57" y2="188.61"/><polygon class="cls-5" points="449.18 132.19 430.95 132.03 440.14 123 449.18 132.19"/><polygon class="cls-5" points="448.69 187.47 430.47 187.31 439.5 196.5 448.69 187.47"/><line class="cls-4" x1="440.14" y1="226" x2="440.67" y2="248.12"/><polygon class="cls-5" points="449.75 246.68 431.53 247.11 440.86 256 449.75 246.68"/><circle class="cls-1" cx="441" cy="270" r="14"/><text class="cls-2" transform="translate(428.86 276.15)">X</text><text class="cls-3" transform="translate(440.78 268.85)">self<tspan x=".09" y="8">t+1</tspan></text><line class="cls-4" x1="440.33" y1="73.88" x2="440.86" y2="96"/><polygon class="cls-5" points="449.47 74.89 431.25 75.32 440.14 66 449.47 74.89"/><circle class="cls-1" cx="440" cy="51" r="14"/><text class="cls-2" transform="translate(427.86 57.13)">X</text><text class="cls-3" transform="translate(439.78 49.85)">env<tspan x=".09" y="8">t+1</tspan></text><line class="cls-4" x1="239.5" y1="109.5" x2="312.11" y2="109.5"/><polygon class="cls-5" points="310.89 100.39 310.89 118.61 320 109.5 310.89 100.39"/><line class="cls-4" x1="238.5" y1="209.5" x2="311.11" y2="209.5"/><polygon class="cls-5" points="309.89 200.39 309.89 218.61 319 209.5 309.89 200.39"/><line class="cls-4" x1="345.75" y1="209.5" x2="417.86" y2="209.5"/><polygon class="cls-5" points="416.64 200.39 416.64 218.61 425.75 209.5 416.64 200.39"/><line class="cls-4" x1="347.5" y1="109.5" x2="420.11" y2="109.5"/><polygon class="cls-5" points="418.89 100.39 418.89 118.61 428 109.5 418.89 100.39"/><line class="cls-4" x1="455.75" y1="109.5" x2="532.61" y2="109.5"/><polygon class="cls-5" points="531.39 100.39 531.39 118.61 540.5 109.5 531.39 100.39"/><line class="cls-4" x1="455" y1="209.5" x2="532.61" y2="209.5"/><polygon class="cls-5" points="531.39 200.39 531.39 218.61 540.5 209.5 531.39 200.39"/><line class="cls-4" x1="107.5" y1="109.5" x2="202.11" y2="109.5"/><polygon class="cls-5" points="200.89 100.39 200.89 118.61 210 109.5 200.89 100.39"/><line class="cls-4" x1="107.5" y1="209.5" x2="201.11" y2="209.5"/><polygon class="cls-5" points="199.89 200.39 199.89 218.61 209 209.5 199.89 200.39"/><rect class="cls-6" x="161.5" y="24.51" width="340" height="110.87" rx="12" ry="12" transform="translate(0.71 -2.9) rotate(0.5)"/><rect class="cls-7" x="162.5" y="178.5" width="343" height="110" rx="12" ry="12"/><rect class="cls-8" x="132.5" y="89.5" width="389" height="144" rx="12" ry="12"/><rect class="cls-9" x="25.19" y="152.5" width="91.31" height="20"/><text class="cls-10" transform="translate(29.69 164.94) scale(0.58)">相互関係表現部</text><rect class="cls-11" x="24.19" y="49.5" width="91.31" height="20"/><text class="cls-10" transform="translate(28.69 61.94) scale(0.58)">環境状態表現部</text><rect class="cls-12" x="24.19" y="250.5" width="91.31" height="20"/><text class="cls-10" transform="translate(28.69 262.94) scale(0.58)">自己状態表現部</text></svg>