<svg id="レイヤー_1" data-name="レイヤー 1" xmlns="http://www.w3.org/2000/svg" viewBox="0 0 640 320"><defs><style>.cls-1,.cls-8{fill:#fff;stroke-width:2px;}.cls-1,.cls-3,.cls-5,.cls-8,.cls-9{stroke:#b3b3b3;}.cls-1,.cls-3,.cls-5{stroke-miterlimit:10;}.cls-2,.cls-6{font-size:16px;}.cls-2{font-family:AdobeDevanagari-Regular, Adobe Devanagari;}.cls-3,.cls-5,.cls-9{fill:none;stroke-width:3px;}.cls-4{fill:#b3b3b3;}.cls-5{stroke-linecap:square;}.cls-6,.cls-7{font-family:TimesNewRomanPS-BoldItalicMT, Times New Roman;font-weight:700;font-style:italic;}</style></defs><title>MVAE_Env_640x320</title><rect class="cls-1" x="24.34" y="214.95" width="53" height="36"/><text class="cls-2" transform="translate(27.51 228.94)">Vision <tspan x="0" y="16">Info.</tspan></text><rect class="cls-1" x="168.5" y="214.95" width="53" height="36"/><text class="cls-2" transform="translate(171.68 228.94)">Tacttile <tspan x="0" y="16">Info.</tspan></text><rect class="cls-1" x="96.5" y="214.95" width="53" height="36"/><text class="cls-2" transform="translate(99.68 228.94)">Audio <tspan x="0" y="16">Info.</tspan></text><line class="cls-3" x1="50.5" y1="199.5" x2="194.5" y2="199.5"/><line class="cls-3" x1="194.5" y1="215" x2="194.5" y2="200"/><line class="cls-3" x1="122.5" y1="215" x2="122.5" y2="192.89"/><polygon class="cls-4" points="113.39 194.11 131.61 194.11 122.5 185 113.39 194.11"/><line class="cls-5" x1="50.5" y1="215" x2="50.5" y2="200"/><rect class="cls-1" x="158.5" y="99.5" width="20" height="20"/><text class="cls-6" transform="translate(159.68 111.99)">σ</text><text class="cls-6" transform="translate(168.3 117.31) scale(0.58)">z</text><text class="cls-6" transform="translate(171.93 111.99)">2</text><rect class="cls-1" x="68.5" y="98.5" width="20" height="20"/><text class="cls-2" transform="translate(69.68 110.74)"> <tspan class="cls-7" x="3.24" y="0.49">µ</tspan></text><text class="cls-6" transform="translate(82.14 116.31) scale(0.58)">z</text><rect class="cls-1" x="96.5" y="148.72" width="53" height="36"/><text class="cls-2" transform="translate(99.68 162.72)">Info. <tspan x="0" y="16">Fusion</tspan></text><line class="cls-3" x1="122.5" y1="148.5" x2="122.5" y2="133.5"/><line class="cls-3" x1="78.5" y1="134" x2="78.5" y2="126.89"/><polygon class="cls-4" points="69.39 128.11 87.61 128.11 78.5 119 69.39 128.11"/><line class="cls-3" x1="78" y1="133.5" x2="168" y2="133.5"/><line class="cls-3" x1="168.5" y1="134" x2="168.5" y2="126.89"/><polygon class="cls-4" points="159.39 128.11 177.61 128.11 168.5 119 159.39 128.11"/><polyline class="cls-3" points="78.5 99 78.5 84 78.5 84.5 168.5 84.5 168.5 85 168.5 100"/><line class="cls-3" x1="122.5" y1="85" x2="122.5" y2="77.89"/><polygon class="cls-4" points="113.39 79.11 131.61 79.11 122.5 70 113.39 79.11"/><rect class="cls-1" x="112.5" y="49.5" width="20" height="20"/><text class="cls-2" transform="translate(115.68 63.74)"> <tspan class="cls-7" x="3.24" y="0.49">z</tspan></text><polyline class="cls-3" points="432 140.11 432 30.5 122.5 30.5 122.5 31.11 122.5 49.28"/><polygon class="cls-4" points="422.89 138.89 441.11 138.89 432 148 422.89 138.89"/><rect class="cls-1" x="379.5" y="148.5" width="98" height="36"/><text class="cls-2" transform="translate(381.84 162.49)">Info.<tspan x="0" y="16">Reconstruction</tspan></text><rect class="cls-1" x="25.34" y="265.95" width="53" height="36"/><text class="cls-2" transform="translate(28.51 279.94)">Vision <tspan x="0" y="16">Info.</tspan></text><rect class="cls-1" x="169.5" y="265.95" width="53" height="36"/><text class="cls-2" transform="translate(172.68 279.94)">Tacttile <tspan x="0" y="16">Info.</tspan></text><rect class="cls-1" x="97.5" y="265.95" width="53" height="36"/><text class="cls-2" transform="translate(100.68 279.94)">Audio <tspan x="0" y="16">Info.</tspan></text><line class="cls-3" x1="50.5" y1="266" x2="50.5" y2="258.89"/><polygon class="cls-4" points="41.39 260.11 59.61 260.11 50.5 251 41.39 260.11"/><line class="cls-3" x1="123.5" y1="266" x2="123.5" y2="258.89"/><polygon class="cls-4" points="114.39 260.11 132.61 260.11 123.5 251 114.39 260.11"/><line class="cls-3" x1="194.5" y1="266" x2="194.5" y2="258.89"/><polygon class="cls-4" points="185.39 260.11 203.61 260.11 194.5 251 185.39 260.11"/><rect class="cls-1" x="279.5" y="214.5" width="97" height="36"/><text class="cls-2" transform="translate(281 228.49)">Vision <tspan x="0" y="16">Reconstruction</tspan></text><line class="cls-3" x1="327.5" y1="199.5" x2="527.5" y2="199.5"/><line class="cls-3" x1="527.5" y1="206.61" x2="527.5" y2="199.5"/><polygon class="cls-4" points="518.39 205.39 536.61 205.39 527.5 214.5 518.39 205.39"/><line class="cls-3" x1="428.5" y1="207.11" x2="428.5" y2="185"/><polygon class="cls-4" points="419.39 205.89 437.61 205.89 428.5 215 419.39 205.89"/><line class="cls-5" x1="327.5" y1="206.61" x2="327.5" y2="199.5"/><polygon class="cls-4" points="318.39 205.39 336.61 205.39 327.5 214.5 318.39 205.39"/><rect class="cls-8" x="300.5" y="280.61" width="20" height="20" transform="translate(-3.29 3.56) rotate(-0.65)"/><text class="cls-2" transform="translate(300.79 293.97) rotate(-0.65)"> <tspan class="cls-7" x="3.24" y="0.49">µ</tspan></text><text class="cls-6" transform="translate(313.32 299.4) rotate(-0.65) scale(0.58)">v</text><rect class="cls-8" x="331" y="281" width="23" height="20"/><text class="cls-6" transform="translate(331.68 293.99)">σ</text><text class="cls-6" transform="translate(340.3 299.31) scale(0.58)">v</text><text class="cls-6" transform="translate(344.44 293.99)">2</text><line class="cls-3" x1="326.5" y1="250.5" x2="326.5" y2="258.5"/><line class="cls-9" x1="309.5" y1="258.5" x2="310.14" y2="272.62"/><polygon class="cls-4" points="319.19 270.99 300.98 271.81 310.5 280.5 319.19 270.99"/><rect class="cls-8" x="402.5" y="280.61" width="20" height="20" transform="translate(-3.29 4.72) rotate(-0.65)"/><text class="cls-2" transform="translate(402.79 293.97) rotate(-0.65)"> <tspan class="cls-7" x="3.24" y="0.49">µ</tspan></text><text class="cls-6" transform="translate(415.32 299.4) rotate(-0.65) scale(0.58)">a</text><rect class="cls-8" x="432.5" y="280.5" width="23" height="20"/><text class="cls-6" transform="translate(433.68 293.99)">σ</text><text class="cls-6" transform="translate(442.3 299.31) scale(0.58)">a</text><text class="cls-6" transform="translate(446.96 293.99)">2</text><rect class="cls-8" x="501.5" y="280.61" width="20" height="20" transform="translate(-3.28 5.85) rotate(-0.65)"/><text class="cls-2" transform="translate(501.79 293.97) rotate(-0.65)"> <tspan class="cls-7" x="3.24" y="0.49">µ</tspan></text><text class="cls-6" transform="translate(514.32 299.4) rotate(-0.65) scale(0.58)">t</text><rect class="cls-8" x="531.5" y="280.5" width="23" height="20"/><text class="cls-6" transform="translate(532.68 293.99)">σ</text><text class="cls-6" transform="translate(541.3 299.31) scale(0.58)">t</text><text class="cls-6" transform="translate(543.89 293.99)">2</text><rect class="cls-1" x="381.5" y="214.5" width="97" height="36"/><text class="cls-2" transform="translate(383 228.49)">Audio <tspan x="0" y="16">Reconstruction</tspan></text><rect class="cls-1" x="482.5" y="214.5" width="97" height="36"/><text class="cls-2" transform="translate(484 228.49)">Tacttile<tspan x="0" y="16">Reconstruction</tspan></text><line class="cls-3" x1="310" y1="258.5" x2="342" y2="258.5"/><line class="cls-3" x1="342.5" y1="258.5" x2="342.5" y2="272.61"/><polygon class="cls-4" points="351.61 271.39 333.39 271.39 342.5 280.5 351.61 271.39"/><line class="cls-3" x1="429.5" y1="249.5" x2="429.5" y2="257.5"/><line class="cls-9" x1="412.5" y1="257.5" x2="413.14" y2="271.62"/><polygon class="cls-4" points="422.19 269.99 403.98 270.81 413.5 279.5 422.19 269.99"/><line class="cls-3" x1="413" y1="257.5" x2="445" y2="257.5"/><line class="cls-3" x1="445.5" y1="257.5" x2="445.5" y2="271.61"/><polygon class="cls-4" points="454.61 270.39 436.39 270.39 445.5 279.5 454.61 270.39"/><line class="cls-3" x1="528.5" y1="251.5" x2="528.5" y2="259.5"/><line class="cls-9" x1="511.5" y1="259.5" x2="512.14" y2="273.62"/><polygon class="cls-4" points="521.19 271.99 502.98 272.81 512.5 281.5 521.19 271.99"/><line class="cls-3" x1="512" y1="259.5" x2="544" y2="259.5"/><line class="cls-3" x1="544.5" y1="259.5" x2="544.5" y2="273.61"/><polygon class="cls-4" points="553.61 272.39 535.39 272.39 544.5 281.5 553.61 272.39"/></svg>