<?xml version="1.0" encoding="utf-8" standalone="no"?>
<!DOCTYPE svg PUBLIC "-//W3C//DTD SVG 1.1//EN"
  "http://www.w3.org/Graphics/SVG/1.1/DTD/svg11.dtd">
<!-- Created with matplotlib (http://matplotlib.org/) -->
<svg height="288pt" version="1.1" viewBox="0 0 432 288" width="432pt" xmlns="http://www.w3.org/2000/svg" xmlns:xlink="http://www.w3.org/1999/xlink">
 <defs>
  <style type="text/css">
*{stroke-linecap:butt;stroke-linejoin:round;}
  </style>
 </defs>
 <g id="figure_1">
  <g id="patch_1">
   <path d="M 0 288 
L 432 288 
L 432 0 
L 0 0 
z
" style="fill:#ffffff;"/>
  </g>
  <g id="axes_1">
   <g id="patch_2">
    <path d="M 27.88 129.52 
L 418.68 129.52 
L 418.68 25.44 
L 27.88 25.44 
z
" style="fill:#ffffff;"/>
   </g>
   <g id="matplotlib.axis_1">
    <g id="xtick_1">
     <g id="line2d_1">
      <defs>
       <path d="M 0 0 
L 0 3.5 
" id="md5dbb7e7df" style="stroke:#000000;stroke-width:0.8;"/>
      </defs>
      <g>
       <use style="stroke:#000000;stroke-width:0.8;" x="45.643636" xlink:href="#md5dbb7e7df" y="129.52"/>
      </g>
     </g>
    </g>
    <g id="xtick_2">
     <g id="line2d_2">
      <g>
       <use style="stroke:#000000;stroke-width:0.8;" x="125.254788" xlink:href="#md5dbb7e7df" y="129.52"/>
      </g>
     </g>
    </g>
    <g id="xtick_3">
     <g id="line2d_3">
      <g>
       <use style="stroke:#000000;stroke-width:0.8;" x="204.865941" xlink:href="#md5dbb7e7df" y="129.52"/>
      </g>
     </g>
    </g>
    <g id="xtick_4">
     <g id="line2d_4">
      <g>
       <use style="stroke:#000000;stroke-width:0.8;" x="284.477093" xlink:href="#md5dbb7e7df" y="129.52"/>
      </g>
     </g>
    </g>
    <g id="xtick_5">
     <g id="line2d_5">
      <g>
       <use style="stroke:#000000;stroke-width:0.8;" x="364.088245" xlink:href="#md5dbb7e7df" y="129.52"/>
      </g>
     </g>
    </g>
   </g>
   <g id="matplotlib.axis_2">
    <g id="ytick_1">
     <g id="line2d_6">
      <defs>
       <path d="M 0 0 
L -3.5 0 
" id="mbf589bd79c" style="stroke:#000000;stroke-width:0.8;"/>
      </defs>
      <g>
       <use style="stroke:#000000;stroke-width:0.8;" x="27.88" xlink:href="#mbf589bd79c" y="125.698421"/>
      </g>
     </g>
    </g>
    <g id="ytick_2">
     <g id="line2d_7">
      <g>
       <use style="stroke:#000000;stroke-width:0.8;" x="27.88" xlink:href="#mbf589bd79c" y="101.768683"/>
      </g>
     </g>
    </g>
    <g id="ytick_3">
     <g id="line2d_8">
      <g>
       <use style="stroke:#000000;stroke-width:0.8;" x="27.88" xlink:href="#mbf589bd79c" y="77.838946"/>
      </g>
     </g>
    </g>
    <g id="ytick_4">
     <g id="line2d_9">
      <g>
       <use style="stroke:#000000;stroke-width:0.8;" x="27.88" xlink:href="#mbf589bd79c" y="53.909209"/>
      </g>
     </g>
    </g>
    <g id="ytick_5">
     <g id="line2d_10">
      <g>
       <use style="stroke:#000000;stroke-width:0.8;" x="27.88" xlink:href="#mbf589bd79c" y="29.979471"/>
      </g>
     </g>
    </g>
   </g>
   <g id="line2d_11">
    <path clip-path="url(#p9bc108413c)" d="M 45.643636 77.408211 
L 46.184992 77.408211 
L 46.360137 76.833897 
L 46.376059 76.833897 
L 46.551203 76.259583 
L 46.74227 76.259583 
L 46.805959 74.967378 
L 46.949259 64.198996 
L 47.204015 44.385173 
L 47.235859 45.964536 
L 47.442848 53.861349 
L 47.52246 55.153555 
L 48.016049 76.690319 
L 48.207115 76.690319 
L 48.398182 74.105907 
L 48.430027 74.105907 
L 48.52556 77.551789 
L 48.780316 87.889436 
L 48.796238 87.745857 
L 48.828082 87.745857 
L 48.939538 85.735759 
L 49.162449 77.551789 
L 49.178372 77.551789 
L 49.305749 77.408211 
L 49.496816 77.408211 
L 49.624194 77.551789 
L 50.929817 77.551789 
L 51.073117 77.264632 
L 51.104961 77.264632 
L 51.232339 77.121054 
L 51.343795 77.121054 
L 51.534862 77.838946 
L 51.821462 77.838946 
L 51.94884 77.695368 
L 52.028451 77.695368 
L 52.171751 77.982524 
L 52.219518 77.982524 
L 52.346895 77.838946 
L 53.461451 77.838946 
L 53.620674 77.408211 
L 53.684363 77.408211 
L 53.859507 77.982524 
L 53.875429 77.982524 
L 53.986885 78.126103 
L 54.114263 77.982524 
L 54.241641 77.982524 
L 54.384941 77.695368 
L 54.703385 77.695368 
L 54.846686 77.982524 
L 55.324352 77.982524 
L 55.45173 77.838946 
L 55.59503 77.838946 
L 55.722408 77.695368 
L 58.461032 77.695368 
L 58.58841 77.838946 
L 58.73171 77.838946 
L 58.859088 77.408211 
L 58.87501 77.551789 
L 59.002388 77.695368 
L 59.145688 77.695368 
L 59.30491 78.126103 
L 59.320832 78.126103 
L 59.464132 79.27473 
L 59.543744 79.131152 
L 59.59151 79.131152 
L 59.73481 78.843995 
L 59.973644 78.843995 
L 60.292088 67.788456 
L 60.530922 48.405369 
L 60.594611 51.276938 
L 60.674222 56.876496 
L 60.721989 54.579241 
L 60.849366 36.344781 
L 60.928978 37.924144 
L 60.9449 37.924144 
L 61.0882 41.800761 
L 61.629556 76.833897 
L 61.852467 77.982524 
L 61.979845 77.838946 
L 62.123145 77.838946 
L 62.250523 78.556838 
L 62.298289 78.41326 
L 62.346056 78.41326 
L 62.521201 77.838946 
L 62.553045 77.838946 
L 62.72819 77.264632 
L 62.919256 77.264632 
L 63.062556 77.551789 
L 63.142168 77.551789 
L 63.381001 78.700417 
L 63.476534 78.700417 
L 63.779057 76.54674 
L 63.794979 76.690319 
L 63.970124 77.264632 
L 64.01789 77.264632 
L 64.193035 77.838946 
L 64.30449 77.838946 
L 64.44779 77.551789 
L 64.591091 77.551789 
L 64.718468 77.695368 
L 64.750313 77.695368 
L 64.877691 77.838946 
L 75.657041 77.838946 
L 75.800341 77.551789 
L 76.086941 77.551789 
L 76.341697 78.843995 
L 76.357619 78.843995 
L 76.484997 80.854093 
L 76.660141 82.720612 
L 76.819364 84.874289 
L 77.042275 89.181642 
L 77.328875 92.483945 
L 77.344797 92.483945 
L 77.679164 96.504141 
L 77.965764 100.093602 
L 78.172753 97.222033 
L 78.427509 88.894485 
L 78.730031 81.571985 
L 78.889253 79.705466 
L 78.905176 79.705466 
L 79.239543 77.695368 
L 79.478376 77.695368 
L 79.542065 77.551789 
L 79.589832 77.695368 
L 79.924198 77.695368 
L 80.019732 77.982524 
L 80.051576 77.838946 
L 80.210799 77.838946 
L 80.338176 77.695368 
L 80.736232 77.695368 
L 80.86361 78.126103 
L 80.990988 78.126103 
L 81.134288 77.838946 
L 81.29351 77.838946 
L 81.420888 77.695368 
L 81.564188 77.695368 
L 81.691566 77.838946 
L 81.739333 77.838946 
L 81.818944 77.695368 
L 81.850788 77.838946 
L 82.137388 77.838946 
L 82.201077 77.551789 
L 82.264766 77.695368 
L 82.408066 77.982524 
L 82.423989 77.982524 
L 82.551366 78.41326 
L 82.567289 78.269681 
L 82.774278 77.408211 
L 82.7902 77.408211 
L 82.949422 77.838946 
L 83.044956 77.838946 
L 83.236022 77.121054 
L 83.315634 77.121054 
L 83.681845 80.279779 
L 83.729612 79.849044 
L 84.063978 77.408211 
L 84.095823 77.551789 
L 84.302812 77.551789 
L 84.43019 77.695368 
L 84.477956 77.695368 
L 84.605334 77.838946 
L 85.210379 77.838946 
L 85.353679 77.551789 
L 85.465135 77.551789 
L 85.512901 77.982524 
L 85.57659 77.838946 
L 85.703968 77.695368 
L 86.054257 77.695368 
L 86.181635 77.838946 
L 86.659302 77.838946 
L 86.78668 77.695368 
L 87.232502 77.695368 
L 87.375802 77.982524 
L 93.474017 77.982524 
L 93.601394 77.838946 
L 93.681006 77.838946 
L 93.808383 77.695368 
L 93.951683 77.695368 
L 94.079061 77.838946 
L 94.317895 77.838946 
L 94.461195 77.551789 
L 94.493039 77.551789 
L 94.636339 77.838946 
L 95.129928 77.838946 
L 95.273229 78.126103 
L 95.400606 78.126103 
L 95.527984 77.982524 
L 95.703129 77.982524 
L 95.830507 77.838946 
L 95.957884 77.838946 
L 96.085262 77.695368 
L 96.244485 77.695368 
L 96.387785 77.982524 
L 96.419629 77.982524 
L 96.547007 77.838946 
L 96.690307 77.838946 
L 96.817685 77.695368 
L 97.024674 77.695368 
L 97.152052 77.838946 
L 97.741174 77.838946 
L 97.868552 77.695368 
L 98.123308 77.695368 
L 98.250686 77.551789 
L 98.378064 78.126103 
L 98.505441 78.126103 
L 98.632819 78.269681 
L 98.807964 77.695368 
L 105.129089 77.695368 
L 105.256467 77.551789 
L 105.558989 77.551789 
L 105.654523 77.408211 
L 105.670445 77.551789 
L 105.702289 77.551789 
L 106.291412 81.859142 
L 106.386945 81.859142 
L 106.960146 77.695368 
L 107.405968 77.695368 
L 107.533346 77.838946 
L 107.740335 77.838946 
L 107.867713 77.695368 
L 107.883635 77.695368 
L 108.026935 77.408211 
L 108.074702 77.408211 
L 108.233924 77.838946 
L 108.265769 77.838946 
L 108.393146 77.982524 
L 108.77528 77.982524 
L 108.91858 78.269681 
L 108.950424 78.269681 
L 109.06188 78.41326 
L 109.252947 77.695368 
L 109.268869 77.695368 
L 109.396247 77.551789 
L 109.459936 77.551789 
L 109.603236 77.838946 
L 110.224203 77.838946 
L 110.351581 77.982524 
L 110.399347 77.982524 
L 110.542648 77.695368 
L 111.004392 77.695368 
L 111.163615 78.126103 
L 111.227303 78.126103 
L 111.482059 79.418309 
L 111.513904 79.418309 
L 112.039337 75.68527 
L 112.421471 78.126103 
L 112.437393 78.126103 
L 112.612537 77.551789 
L 121.258309 77.551789 
L 121.306075 77.408211 
L 121.321998 77.551789 
L 121.321998 77.551789 
L 121.465298 77.838946 
L 121.62452 77.838946 
L 121.751898 77.695368 
L 129.410491 77.695368 
L 129.537868 77.551789 
L 129.872235 77.551789 
L 130.095146 76.54674 
L 130.111069 76.54674 
L 130.779802 97.078455 
L 130.90718 95.068357 
L 131.19378 84.443554 
L 131.448536 76.259583 
L 131.671447 75.254534 
L 131.68737 75.254534 
L 132.021736 77.264632 
L 132.069503 77.264632 
L 132.212803 77.551789 
L 132.244648 77.551789 
L 132.387948 77.838946 
L 132.579014 77.838946 
L 132.69047 77.408211 
L 132.706392 77.551789 
L 132.83377 77.695368 
L 132.881537 77.695368 
L 133.024837 77.982524 
L 133.056681 77.982524 
L 133.231826 78.556838 
L 133.279593 78.556838 
L 133.486582 77.695368 
L 133.55027 77.695368 
L 133.677648 77.551789 
L 133.884637 77.551789 
L 133.996093 77.408211 
L 134.123471 77.551789 
L 134.139393 77.551789 
L 134.266771 77.695368 
L 134.346382 77.695368 
L 134.489682 77.408211 
L 134.537449 77.408211 
L 134.680749 77.121054 
L 134.776282 77.121054 
L 134.967349 77.838946 
L 135.508705 77.838946 
L 135.636083 77.982524 
L 135.699772 77.982524 
L 135.779383 78.126103 
L 135.811227 77.982524 
L 135.858994 77.982524 
L 135.986372 77.838946 
L 136.018216 77.838946 
L 136.145594 77.982524 
L 136.193361 77.982524 
L 136.336661 77.695368 
L 136.639183 77.695368 
L 136.766561 77.838946 
L 137.276072 77.838946 
L 137.419372 78.126103 
L 147.959889 78.126103 
L 148.166878 78.987573 
L 148.1828 78.987573 
L 148.787845 74.105907 
L 148.803767 74.249485 
L 149.297356 78.843995 
L 149.361045 78.41326 
L 149.472501 77.264632 
L 149.504345 77.551789 
L 149.67949 78.126103 
L 149.790946 78.126103 
L 149.918323 77.982524 
L 149.997935 77.982524 
L 150.475601 81.715564 
L 150.491524 81.571985 
L 150.809968 77.695368 
L 151.016957 77.695368 
L 151.160257 77.121054 
L 151.17618 77.264632 
L 151.239868 77.264632 
L 151.430935 77.982524 
L 151.526469 77.982524 
L 151.653846 77.838946 
L 152.211125 77.838946 
L 152.338502 77.982524 
L 152.577336 77.982524 
L 152.720636 77.695368 
L 153.070925 77.695368 
L 153.24607 78.269681 
L 153.309758 78.269681 
L 153.564514 79.561887 
L 153.580436 79.561887 
L 153.707814 79.705466 
L 153.739659 79.705466 
L 153.851114 79.849044 
L 153.978492 79.705466 
L 154.010337 79.705466 
L 154.153637 79.418309 
L 154.185481 79.418309 
L 154.312859 80.423358 
L 154.328781 80.136201 
L 154.519848 77.695368 
L 154.567615 77.695368 
L 154.694992 77.551789 
L 154.790526 77.551789 
L 155.427415 83.151348 
L 155.507026 83.007769 
L 155.682171 80.566936 
L 155.793626 80.136201 
L 155.825471 80.136201 
L 155.857315 80.279779 
L 155.88916 80.136201 
L 155.88916 80.136201 
L 156.064304 79.561887 
L 156.096149 79.561887 
L 156.159838 79.418309 
L 156.17576 79.561887 
L 156.17576 79.561887 
L 156.303138 79.705466 
L 156.46236 79.705466 
L 156.669349 78.843995 
L 156.685271 78.843995 
L 156.828571 78.556838 
L 156.876338 78.556838 
L 157.210705 80.854093 
L 157.640605 74.393064 
L 157.656527 74.536642 
L 158.118272 77.695368 
L 158.739239 77.695368 
L 158.882539 77.982524 
L 158.993995 77.982524 
L 159.185061 78.700417 
L 159.344284 78.700417 
L 159.471662 78.843995 
L 159.646806 78.843995 
L 159.774184 78.987573 
L 160.140395 78.987573 
L 160.267773 78.843995 
L 166.23861 78.843995 
L 166.365987 78.700417 
L 171.699935 78.700417 
L 171.827312 78.556838 
L 172.209446 78.556838 
L 172.432357 77.551789 
L 172.511968 77.551789 
L 172.639346 77.982524 
L 172.703035 77.982524 
L 172.87818 77.408211 
L 172.894102 77.408211 
L 173.037402 77.121054 
L 173.30808 77.121054 
L 173.45138 77.408211 
L 173.642447 77.408211 
L 173.849436 76.54674 
L 173.88128 76.54674 
L 174.104191 75.541691 
L 174.279336 75.541691 
L 174.486325 76.403162 
L 174.661469 76.403162 
L 174.804769 76.116005 
L 174.868458 76.116005 
L 175.011758 75.828848 
L 175.043603 75.828848 
L 175.202825 76.259583 
L 175.218747 76.259583 
L 175.441659 77.264632 
L 175.473503 77.264632 
L 175.66457 77.982524 
L 175.760103 77.982524 
L 175.887481 77.838946 
L 177.941449 77.838946 
L 178.068827 77.695368 
L 178.243971 77.695368 
L 178.371349 77.551789 
L 178.419116 77.551789 
L 178.546494 77.695368 
L 178.657949 77.695368 
L 178.785327 77.838946 
L 180.027261 77.838946 
L 180.154639 77.982524 
L 180.297939 77.982524 
L 180.441239 77.695368 
L 180.934828 77.695368 
L 181.094051 77.264632 
L 181.173662 77.264632 
L 181.412495 78.41326 
L 181.460262 78.41326 
L 181.651329 79.131152 
L 181.746862 79.131152 
L 182.097151 76.977476 
L 182.176762 76.977476 
L 182.30414 75.68527 
L 182.351907 76.116005 
L 182.542973 77.838946 
L 182.574818 77.838946 
L 182.686274 77.264632 
L 182.702196 77.408211 
L 182.829574 77.838946 
L 182.941029 77.838946 
L 183.084329 78.41326 
L 183.100252 78.269681 
L 183.211707 77.838946 
L 184.23073 77.838946 
L 184.358108 77.695368 
L 190.0105 77.695368 
L 190.1538 77.408211 
L 190.201566 77.408211 
L 190.328944 77.551789 
L 191.125056 77.551789 
L 191.4435 81.14125 
L 191.7301 89.468798 
L 191.984856 93.345416 
L 192.016701 93.058259 
L 192.175923 88.320171 
L 192.701356 73.100858 
L 192.733201 73.100858 
L 192.876501 72.526544 
L 192.892423 72.670123 
L 193.019801 74.680221 
L 193.194946 77.408211 
L 193.210868 77.408211 
L 193.354168 77.838946 
L 193.481546 77.695368 
L 193.497468 77.695368 
L 193.640768 77.982524 
L 193.831835 77.982524 
L 193.959213 78.126103 
L 194.182124 78.126103 
L 194.341346 77.695368 
L 194.819013 77.695368 
L 194.946391 77.551789 
L 195.487747 77.551789 
L 195.631047 78.126103 
L 195.758425 77.695368 
L 195.774347 77.695368 
L 195.86988 77.551789 
L 195.885803 77.695368 
L 195.965414 77.695368 
L 196.092792 77.838946 
L 196.172403 77.838946 
L 196.299781 77.982524 
L 196.459003 77.982524 
L 196.602303 77.695368 
L 196.729681 77.695368 
L 196.888903 78.126103 
L 198.71996 78.126103 
L 198.86326 84.587132 
L 199.181704 95.929828 
L 199.340927 97.796347 
L 199.420538 96.073406 
L 200.280338 68.793505 
L 200.359949 68.793505 
L 200.471405 70.803603 
L 200.742083 77.121054 
L 200.758005 77.121054 
L 200.964994 77.982524 
L 201.012761 77.982524 
L 201.140139 77.838946 
L 201.681494 77.838946 
L 201.856639 77.264632 
L 201.888483 77.264632 
L 202.175084 74.967378 
L 202.22285 75.254534 
L 202.302461 76.977476 
L 202.604984 82.433456 
L 202.748284 80.136201 
L 202.923428 78.700417 
L 203.130417 78.700417 
L 203.225951 77.695368 
L 203.273717 77.982524 
L 203.401095 77.982524 
L 203.528473 78.126103 
L 211.21891 78.126103 
L 211.5692 73.962329 
L 211.935411 65.491202 
L 212.046866 59.891643 
L 212.222011 56.158604 
L 212.333467 55.871447 
L 213.0022 55.871447 
L 213.034045 55.153555 
L 213.559478 32.468164 
L 213.623167 34.047527 
L 213.830156 41.94434 
L 213.877923 41.94434 
L 213.941612 46.108114 
L 214.307823 76.116005 
L 214.482968 77.551789 
L 214.49889 77.551789 
L 214.658112 77.982524 
L 214.705879 77.982524 
L 214.849179 77.695368 
L 214.865101 77.695368 
L 215.008401 77.982524 
L 215.326846 77.982524 
L 215.454224 77.838946 
L 215.517913 77.838946 
L 215.661213 78.126103 
L 215.724902 78.126103 
L 215.900046 77.551789 
L 215.979657 77.551789 
L 216.170724 78.269681 
L 216.218491 78.269681 
L 216.409558 77.551789 
L 216.759847 77.551789 
L 216.919069 77.121054 
L 216.99868 77.121054 
L 217.205669 77.982524 
L 230.723643 77.982524 
L 230.851021 77.838946 
L 230.898787 77.838946 
L 231.089854 78.556838 
L 231.312765 78.556838 
L 231.519754 75.68527 
L 231.726743 72.813701 
L 231.838199 70.947182 
L 232.013343 65.060466 
L 232.108877 62.045319 
L 232.331788 54.866398 
L 232.427321 54.435663 
L 232.443244 54.579241 
L 232.506933 57.163653 
L 232.761688 69.654976 
L 232.809455 69.654976 
L 232.857222 71.09076 
L 233.096055 80.566936 
L 233.2712 82.00272 
L 233.573722 78.987573 
L 233.717022 76.54674 
L 233.892167 76.54674 
L 234.035467 76.833897 
L 234.529056 76.833897 
L 234.656434 76.977476 
L 234.799734 76.977476 
L 234.927112 77.121054 
L 235.181867 77.121054 
L 235.277401 76.977476 
L 235.293323 77.121054 
L 235.309245 77.121054 
L 235.436623 76.977476 
L 236.264579 76.977476 
L 236.391957 76.833897 
L 236.646712 76.833897 
L 236.77409 76.977476 
L 236.997002 76.977476 
L 237.124379 77.121054 
L 237.140302 77.121054 
L 237.267679 76.977476 
L 237.363213 77.121054 
L 237.379135 76.977476 
L 237.426902 76.977476 
L 237.665735 78.41326 
L 237.681657 78.269681 
L 237.84088 77.838946 
L 237.98418 77.838946 
L 238.12748 77.551789 
L 238.143402 77.551789 
L 238.238935 78.41326 
L 238.302624 77.982524 
L 238.430002 77.838946 
L 238.477769 77.838946 
L 238.621069 78.700417 
L 238.636991 78.700417 
L 238.684758 78.843995 
L 238.70068 78.700417 
L 238.70068 78.700417 
L 238.955436 76.54674 
L 238.98728 76.833897 
L 239.13058 77.551789 
L 239.305725 78.126103 
L 239.974459 78.126103 
L 240.133681 77.695368 
L 256.310667 77.695368 
L 256.453967 78.41326 
L 256.485812 78.269681 
L 256.597267 78.269681 
L 256.788334 77.551789 
L 256.89979 77.551789 
L 257.074934 76.977476 
L 257.090856 76.977476 
L 257.32969 78.126103 
L 257.361534 78.126103 
L 257.47299 77.838946 
L 257.488912 77.982524 
L 257.520757 77.982524 
L 257.568523 78.126103 
L 257.61629 77.982524 
L 257.648134 77.838946 
L 257.664057 77.982524 
L 257.664057 77.982524 
L 257.727746 78.269681 
L 257.775512 78.126103 
L 257.823279 78.126103 
L 257.950657 77.695368 
L 257.966579 77.838946 
L 258.014346 77.838946 
L 258.205412 76.116005 
L 258.523857 78.41326 
L 258.555701 78.269681 
L 258.667157 77.695368 
L 258.714924 77.838946 
L 258.76269 77.838946 
L 258.874146 77.551789 
L 258.890068 77.695368 
L 259.017446 78.126103 
L 259.128902 78.126103 
L 259.25628 77.982524 
L 259.272202 77.982524 
L 259.39958 77.838946 
L 259.781713 77.838946 
L 259.909091 77.982524 
L 260.291225 77.982524 
L 260.561903 74.680221 
L 260.784814 71.377917 
L 260.864425 69.798554 
L 261.007725 68.649927 
L 261.023647 68.649927 
L 261.103258 70.372868 
L 261.373936 76.54674 
L 261.660536 78.126103 
L 261.867525 78.126103 
L 261.994903 77.695368 
L 262.010825 77.838946 
L 262.138203 77.982524 
L 262.201892 77.982524 
L 262.377037 77.408211 
L 262.392959 77.408211 
L 262.520337 77.121054 
L 262.663637 77.838946 
L 262.679559 77.838946 
L 262.822859 78.126103 
L 262.838781 78.126103 
L 262.950237 78.269681 
L 263.125382 77.695368 
L 263.141304 77.695368 
L 263.316448 77.121054 
L 263.364215 77.121054 
L 263.650815 78.700417 
L 263.857804 77.838946 
L 263.873726 77.838946 
L 264.032949 77.408211 
L 264.415082 77.408211 
L 264.558382 77.695368 
L 264.717605 77.695368 
L 264.844983 77.551789 
L 265.004205 77.551789 
L 265.11566 77.264632 
L 265.290805 77.264632 
L 265.418183 77.121054 
L 265.688861 77.121054 
L 265.848083 77.551789 
L 265.959539 77.551789 
L 266.134683 76.977476 
L 266.230217 76.977476 
L 266.500894 78.556838 
L 266.723806 77.551789 
L 266.914872 77.551789 
L 267.074095 77.982524 
L 267.265162 77.982524 
L 267.392539 78.126103 
L 267.424384 78.126103 
L 267.551762 77.982524 
L 267.583606 77.982524 
L 267.710984 77.838946 
L 267.838362 77.838946 
L 267.902051 77.982524 
L 267.917973 77.838946 
L 267.917973 77.838946 
L 268.029429 77.551789 
L 268.045351 77.695368 
L 268.093118 77.695368 
L 268.236418 77.982524 
L 268.300107 77.982524 
L 268.427484 78.126103 
L 268.475251 78.126103 
L 268.618551 77.838946 
L 268.921073 77.838946 
L 269.064374 78.126103 
L 269.191751 78.126103 
L 269.366896 77.551789 
L 269.430585 77.551789 
L 269.54204 77.838946 
L 270.433685 77.838946 
L 270.576985 77.551789 
L 270.640674 77.551789 
L 270.831741 78.269681 
L 270.847663 78.269681 
L 270.911352 78.41326 
L 270.959119 78.269681 
L 271.086497 77.838946 
L 271.150186 77.838946 
L 271.277564 77.982524 
L 271.373097 77.982524 
L 271.500475 77.838946 
L 271.691542 77.838946 
L 271.818919 77.695368 
L 271.994064 77.695368 
L 272.057753 77.838946 
L 272.073675 77.695368 
L 272.073675 77.695368 
L 272.201053 77.551789 
L 272.296586 77.551789 
L 272.439886 77.838946 
L 272.599109 77.838946 
L 272.82202 78.843995 
L 272.837942 78.843995 
L 272.933476 78.987573 
L 273.092698 77.982524 
L 273.267842 77.408211 
L 273.315609 77.408211 
L 273.442987 77.264632 
L 273.490754 77.264632 
L 273.602209 76.977476 
L 273.618131 77.121054 
L 273.649976 77.121054 
L 273.777354 77.551789 
L 273.793276 77.551789 
L 273.936576 77.838946 
L 274.063954 77.695368 
L 274.159487 77.695368 
L 274.286865 77.838946 
L 274.366476 77.838946 
L 274.493854 77.695368 
L 274.621232 77.695368 
L 274.796377 78.269681 
L 275.162588 78.269681 
L 275.289966 78.41326 
L 275.305888 78.41326 
L 275.640255 80.423358 
L 275.703944 80.423358 
L 275.879088 79.849044 
L 275.958699 79.849044 
L 276.086077 79.992622 
L 276.181611 79.992622 
L 276.308988 79.849044 
L 276.324911 79.849044 
L 276.468211 79.561887 
L 276.627433 79.561887 
L 276.850344 78.556838 
L 276.929955 78.556838 
L 277.057333 78.700417 
L 277.089178 78.700417 
L 277.232478 78.41326 
L 277.264322 78.41326 
L 277.3917 78.269681 
L 277.598689 78.269681 
L 277.741989 77.982524 
L 286.706205 77.982524 
L 286.865427 77.551789 
L 287.056494 77.551789 
L 287.231638 76.833897 
L 287.359016 76.977476 
L 287.470472 76.977476 
L 287.613772 77.264632 
L 287.677461 77.264632 
L 287.820761 77.551789 
L 287.979983 77.551789 
L 288.202895 76.54674 
L 288.218817 76.54674 
L 288.378039 76.116005 
L 288.393961 76.116005 
L 288.537261 75.828848 
L 288.585028 75.828848 
L 288.903473 77.838946 
L 289.014928 77.695368 
L 289.142306 77.838946 
L 289.317451 77.838946 
L 289.508517 78.556838 
L 289.604051 78.556838 
L 289.699584 78.700417 
L 289.715506 78.556838 
L 289.826962 78.556838 
L 289.970262 77.695368 
L 290.018029 77.838946 
L 290.24094 77.838946 
L 290.368318 77.982524 
L 290.38424 77.982524 
L 290.511618 78.126103 
L 290.559385 78.126103 
L 290.702685 77.838946 
L 290.718607 77.838946 
L 290.877829 77.408211 
L 290.925596 77.408211 
L 291.244041 74.249485 
L 291.339574 74.680221 
L 291.45103 75.110956 
L 291.482874 74.967378 
L 291.514718 74.823799 
L 291.59433 74.967378 
L 291.721707 75.110956 
L 292.008308 73.531593 
L 292.087919 73.531593 
L 292.215297 73.675172 
L 292.231219 73.675172 
L 292.820341 77.982524 
L 292.852186 77.982524 
L 293.31393 74.823799 
L 293.329853 74.823799 
L 293.759753 77.695368 
L 293.791597 77.695368 
L 293.918975 77.838946 
L 294.95392 77.838946 
L 295.129065 77.264632 
L 299.842045 77.264632 
L 299.969423 77.121054 
L 303.122024 77.121054 
L 303.265324 77.408211 
L 305.367059 77.408211 
L 305.669581 79.131152 
L 305.685504 79.131152 
L 305.749192 79.418309 
L 305.796959 79.131152 
L 305.940259 78.843995 
L 306.083559 78.843995 
L 306.481615 76.259583 
L 306.608993 76.259583 
L 306.768215 75.828848 
L 306.879671 75.828848 
L 307.22996 77.982524 
L 307.309571 77.982524 
L 307.468793 77.551789 
L 307.707627 77.551789 
L 307.835005 77.695368 
L 307.898694 77.695368 
L 308.041994 77.982524 
L 308.440049 77.982524 
L 308.567427 77.838946 
L 308.822183 77.838946 
L 309.01325 77.121054 
L 309.061016 77.121054 
L 309.268005 77.982524 
L 309.44315 77.408211 
L 309.554606 77.408211 
L 309.697906 77.695368 
L 309.841206 77.695368 
L 309.984506 77.982524 
L 310.048195 77.982524 
L 310.15965 78.269681 
L 310.175572 78.269681 
L 310.30295 77.121054 
L 310.334795 77.264632 
L 310.494017 77.695368 
L 310.58955 77.695368 
L 310.716928 77.838946 
L 310.860228 77.838946 
L 310.876151 77.982524 
L 310.971684 77.838946 
L 311.099062 77.695368 
L 311.194595 77.695368 
L 311.401584 78.556838 
L 311.481195 78.556838 
L 311.640418 78.126103 
L 311.911096 78.126103 
L 312.08624 77.551789 
L 312.181774 77.551789 
L 312.325074 77.838946 
L 312.723129 77.838946 
L 312.882352 77.408211 
L 312.930118 77.408211 
L 313.089341 77.838946 
L 313.232641 77.838946 
L 313.360019 77.982524 
L 313.455552 77.982524 
L 313.630696 77.408211 
L 313.662541 77.408211 
L 313.72623 77.264632 
L 313.773997 77.408211 
L 313.805841 77.408211 
L 314.028752 78.41326 
L 314.044674 78.41326 
L 314.251663 77.551789 
L 314.283508 77.551789 
L 314.363119 77.264632 
L 314.394964 77.551789 
L 314.474575 77.551789 
L 314.506419 77.695368 
L 314.522341 77.551789 
L 314.522341 77.551789 
L 314.649719 76.833897 
L 314.793019 77.121054 
L 314.904475 77.121054 
L 315.159231 78.41326 
L 315.175153 78.41326 
L 315.254764 78.269681 
L 315.286608 78.41326 
L 315.429909 78.700417 
L 315.843887 78.700417 
L 315.971264 78.556838 
L 315.987187 78.556838 
L 316.162331 77.982524 
L 316.178253 77.982524 
L 316.305631 77.838946 
L 316.496698 77.838946 
L 316.65592 78.269681 
L 316.719609 78.269681 
L 316.862909 78.556838 
L 317.292809 78.556838 
L 317.643099 74.680221 
L 317.834165 64.055417 
L 318.120765 54.292084 
L 318.184454 54.148506 
L 318.200377 54.292084 
L 318.455132 63.337525 
L 318.709888 77.264632 
L 318.948721 78.41326 
L 319.076099 78.269681 
L 319.15571 78.41326 
L 319.187555 78.269681 
L 319.330855 78.269681 
L 319.474155 77.982524 
L 319.904055 77.982524 
L 320.031433 78.126103 
L 320.493178 78.126103 
L 320.620556 77.982524 
L 320.779778 77.982524 
L 320.907156 77.838946 
L 320.970845 77.838946 
L 321.098223 77.695368 
L 321.114145 77.695368 
L 321.241523 77.551789 
L 322.212779 77.551789 
L 322.372001 77.982524 
L 322.515301 77.982524 
L 322.642679 77.838946 
L 322.801901 77.838946 
L 322.929279 77.695368 
L 323.709468 77.695368 
L 323.805002 77.838946 
L 323.820924 77.695368 
L 323.836846 77.695368 
L 323.964224 77.551789 
L 324.314513 77.551789 
L 324.457813 77.838946 
L 324.521502 77.838946 
L 324.664802 77.551789 
L 324.855869 77.551789 
L 324.999169 77.838946 
L 325.492758 77.838946 
L 325.636058 77.551789 
L 325.683825 77.551789 
L 325.795281 77.408211 
L 325.938581 77.695368 
L 326.209259 77.695368 
L 326.336636 77.982524 
L 326.479936 77.695368 
L 326.559548 77.695368 
L 326.607314 77.408211 
L 326.686925 77.551789 
L 326.750614 77.551789 
L 326.846148 77.838946 
L 326.86207 77.695368 
L 326.925759 77.551789 
L 326.973526 77.695368 
L 327.180515 77.695368 
L 327.307892 77.838946 
L 327.403426 77.838946 
L 327.43527 77.551789 
L 327.530804 77.695368 
L 327.705948 77.695368 
L 327.833326 77.838946 
L 328.279148 77.838946 
L 328.422449 77.551789 
L 328.517982 77.551789 
L 328.64536 77.695368 
L 328.868271 77.695368 
L 328.995649 77.838946 
L 329.21856 77.838946 
L 329.36186 78.126103 
L 329.409627 78.126103 
L 329.568849 77.695368 
L 329.584771 77.695368 
L 329.712149 77.838946 
L 329.966905 77.838946 
L 330.380883 73.388015 
L 330.556027 73.531593 
L 330.985928 77.121054 
L 331.049617 76.977476 
L 331.129228 76.977476 
L 331.224761 76.690319 
L 331.256606 76.833897 
L 331.320294 76.833897 
L 331.479517 77.264632 
L 331.670584 77.264632 
L 331.829806 77.695368 
L 331.909417 77.695368 
L 332.036795 77.838946 
L 332.068639 77.838946 
L 332.196017 77.695368 
L 332.275628 77.695368 
L 332.434851 77.264632 
L 332.944362 77.264632 
L 333.230962 78.843995 
L 333.310573 78.843995 
L 333.453873 78.556838 
L 333.50164 78.556838 
L 333.660862 77.982524 
L 333.708629 78.700417 
L 333.820085 78.41326 
L 333.899696 78.41326 
L 334.058918 77.982524 
L 334.234063 77.982524 
L 334.393285 77.551789 
L 336.526864 77.551789 
L 336.654242 77.408211 
L 338.198698 77.408211 
L 338.35792 77.838946 
L 338.724132 77.838946 
L 338.867432 78.556838 
L 338.899276 78.556838 
L 338.99481 78.41326 
L 339.010732 78.556838 
L 339.154032 78.556838 
L 339.361021 77.695368 
L 339.42471 77.695368 
L 339.488399 77.551789 
L 339.504321 77.695368 
L 339.504321 77.695368 
L 339.631699 77.838946 
L 340.045677 77.838946 
L 340.157132 77.982524 
L 340.332277 77.408211 
L 340.523344 77.408211 
L 340.666644 77.695368 
L 341.876733 77.695368 
L 342.004111 77.551789 
L 342.020033 77.551789 
L 342.147411 77.695368 
L 342.163333 77.695368 
L 342.306633 77.982524 
L 342.370322 77.982524 
L 342.513622 77.695368 
L 342.768378 77.695368 
L 342.895756 77.551789 
L 342.959445 77.551789 
L 343.118667 77.982524 
L 343.198278 77.982524 
L 343.325656 78.126103 
L 343.357501 78.126103 
L 343.532645 78.700417 
L 343.660023 78.700417 
L 343.85109 77.982524 
L 343.867012 77.982524 
L 344.026234 77.551789 
L 344.042157 77.551789 
L 344.185457 77.264632 
L 344.344679 77.264632 
L 344.56759 78.269681 
L 344.694968 78.269681 
L 344.822346 78.126103 
L 344.886035 78.126103 
L 345.045257 77.695368 
L 345.124868 77.695368 
L 345.252246 77.838946 
L 345.395546 77.838946 
L 345.698069 75.541691 
L 345.713991 75.828848 
L 345.889135 78.126103 
L 346.048358 77.838946 
L 346.271269 77.838946 
L 346.398647 77.982524 
L 346.557869 77.982524 
L 346.685247 77.838946 
L 347.051458 77.838946 
L 347.178836 77.982524 
L 347.290292 77.982524 
L 347.417669 78.126103 
L 347.672425 78.126103 
L 347.752036 78.269681 
L 347.767959 78.126103 
L 347.99087 77.121054 
L 348.13417 77.121054 
L 348.245625 77.982524 
L 348.27747 77.838946 
L 348.293392 77.838946 
L 348.42077 78.126103 
L 348.595914 77.551789 
L 348.659603 77.551789 
L 348.882515 76.54674 
L 348.914359 76.54674 
L 349.296493 78.987573 
L 349.360182 78.987573 
L 349.487559 78.843995 
L 349.710471 78.843995 
L 349.91746 77.982524 
L 350.044837 77.982524 
L 350.188138 77.695368 
L 350.20406 77.695368 
L 350.34736 77.982524 
L 350.554349 77.982524 
L 350.63396 76.833897 
L 351.175316 53.430614 
L 351.35046 52.425565 
L 351.366383 52.569143 
L 351.445994 55.58429 
L 351.812205 77.551789 
L 351.859972 77.551789 
L 351.98735 77.408211 
L 352.13065 77.408211 
L 352.305794 77.982524 
L 352.321716 77.982524 
L 352.465016 78.41326 
L 352.592394 78.269681 
L 352.640161 78.269681 
L 352.799383 77.838946 
L 353.13375 77.838946 
L 353.27705 77.551789 
L 353.324817 77.551789 
L 353.468117 77.264632 
L 353.484039 77.264632 
L 353.515884 77.121054 
L 353.595495 77.264632 
L 353.627339 77.264632 
L 353.754717 77.408211 
L 353.770639 77.408211 
L 353.913939 77.695368 
L 353.977628 77.695368 
L 354.232384 78.987573 
L 354.34384 78.987573 
L 354.48714 78.700417 
L 354.518984 78.700417 
L 354.869273 76.116005 
L 354.901118 76.259583 
L 354.964807 76.259583 
L 355.139951 77.982524 
L 355.171796 77.408211 
L 355.299173 76.833897 
L 355.458396 77.264632 
L 360.569432 77.264632 
L 360.633121 74.393064 
L 360.808265 67.788456 
L 360.871954 69.367819 
L 361.12671 81.284828 
L 361.301854 80.710515 
L 361.333699 80.710515 
L 361.445154 78.700417 
L 361.588455 77.121054 
L 361.604377 77.121054 
L 361.668066 76.977476 
L 361.683988 77.121054 
L 361.683988 77.121054 
L 361.875055 77.838946 
L 362.193499 77.838946 
L 362.320877 79.418309 
L 362.671166 92.771102 
L 362.814466 97.222033 
L 362.925922 98.657818 
L 362.941844 98.370661 
L 362.989611 96.216984 
L 363.276211 83.438505 
L 363.419511 81.715564 
L 363.435433 81.715564 
L 363.992711 77.695368 
L 364.008634 77.695368 
L 364.1997 76.833897 
L 364.343 77.121054 
L 364.470378 77.121054 
L 364.597756 77.264632 
L 365.155034 77.264632 
L 365.282412 77.121054 
L 365.473479 77.121054 
L 365.664545 78.700417 
L 365.744157 78.556838 
L 365.823768 78.556838 
L 365.98299 78.126103 
L 366.030757 78.126103 
L 366.205901 77.551789 
L 366.317357 77.551789 
L 366.444735 77.408211 
L 366.603957 77.408211 
L 366.747257 77.695368 
L 367.145313 77.695368 
L 367.272691 77.838946 
L 367.495602 77.838946 
L 367.62298 77.695368 
L 367.702591 77.695368 
L 367.861813 78.126103 
L 367.90958 78.126103 
L 368.05288 77.838946 
L 368.307636 77.838946 
L 368.435014 77.695368 
L 368.833069 77.695368 
L 368.960447 77.838946 
L 369.119669 77.838946 
L 369.215203 78.41326 
L 369.278892 78.269681 
L 369.390347 77.982524 
L 369.40627 77.982524 
L 369.565492 77.551789 
L 369.708792 77.551789 
L 369.868014 77.982524 
L 370.059081 77.982524 
L 370.186459 77.838946 
L 370.441215 77.838946 
L 370.55267 77.982524 
L 370.69597 77.695368 
L 370.823348 77.695368 
L 370.950726 77.838946 
L 371.253248 77.838946 
L 371.396548 77.551789 
L 371.428393 77.551789 
L 371.730915 75.828848 
L 371.76276 75.828848 
L 372.351882 80.136201 
L 372.367805 80.136201 
L 372.574793 79.27473 
L 372.590716 79.27473 
L 372.845471 77.982524 
L 372.925083 77.982524 
L 373.243527 76.116005 
L 373.259449 76.116005 
L 373.307216 74.967378 
L 373.482361 72.382966 
L 373.705272 71.377917 
L 373.83265 71.521495 
L 373.960028 69.367819 
L 374.071483 69.080662 
L 374.087405 69.080662 
L 374.182939 70.947182 
L 374.469539 77.695368 
L 374.54915 78.41326 
L 374.644683 78.269681 
L 375.106428 78.269681 
L 375.329339 77.264632 
L 375.345262 77.264632 
L 375.488562 77.551789 
L 375.600017 77.551789 
L 375.663706 77.408211 
L 375.695551 77.551789 
L 375.90254 78.41326 
L 376.077684 78.41326 
L 376.205062 78.987573 
L 376.348362 78.987573 
L 376.491662 76.833897 
L 376.666807 74.967378 
L 376.682729 74.967378 
L 376.794185 75.541691 
L 376.810107 75.398113 
L 376.873796 75.398113 
L 376.921562 74.249485 
L 377.255929 58.599437 
L 377.558452 30.170909 
L 377.622141 30.314488 
L 378.067963 30.314488 
L 378.211263 32.611742 
L 378.609319 82.720612 
L 378.784463 85.735759 
L 378.864075 85.448603 
L 378.991452 81.428407 
L 379.150675 78.700417 
L 379.309897 77.695368 
L 379.341741 77.838946 
L 379.516886 78.41326 
L 379.676108 78.41326 
L 379.755719 81.284828 
L 380.026397 92.914681 
L 380.169697 94.924779 
L 380.32892 94.924779 
L 380.456298 98.083504 
L 380.519986 97.652769 
L 380.726975 95.068357 
L 380.854353 88.750906 
L 380.918042 90.473847 
L 380.997653 94.494043 
L 381.077265 94.063308 
L 381.125031 93.91973 
L 381.18872 94.063308 
L 381.236487 94.063308 
L 381.300176 92.914681 
L 381.634543 79.849044 
L 381.745998 83.151348 
L 382.144054 108.421151 
L 382.191821 107.703258 
L 382.366965 105.118847 
L 382.414732 105.118847 
L 382.462499 103.970219 
L 382.589876 89.468798 
L 382.812788 77.838946 
L 382.908321 74.393064 
L 382.97201 74.680221 
L 383.338221 66.496251 
L 383.385988 63.911839 
L 383.417832 66.209094 
L 383.736277 112.297768 
L 383.911422 122.491836 
L 383.943266 124.789091 
L 384.038799 124.501934 
L 384.245788 124.501934 
L 384.277633 123.92762 
L 384.564233 98.083504 
L 384.723455 50.989781 
L 384.771222 55.58429 
L 384.834911 61.471006 
L 384.8986 60.035221 
L 385.169278 30.170909 
L 385.1852 30.170909 
L 385.312578 30.314488 
L 385.455878 30.314488 
L 385.631022 32.611742 
L 385.726556 39.647085 
L 385.869856 80.423358 
L 386.045 118.184483 
L 386.060923 117.753748 
L 386.204223 102.1037 
L 386.490823 40.508556 
L 386.53859 46.395271 
L 386.697812 75.68527 
L 386.761501 68.793505 
L 386.777423 68.649927 
L 386.777423 68.649927 
L 386.777423 68.649927 
L 386.888879 80.423358 
L 387.016256 86.59723 
L 387.048101 86.022916 
L 387.25509 79.705466 
L 387.286934 78.843995 
L 387.366546 79.27473 
L 387.589457 83.151348 
L 387.621301 82.289877 
L 387.796446 77.551789 
L 387.923824 76.977476 
L 388.051201 76.977476 
L 388.178579 81.14125 
L 388.25819 82.289877 
L 388.274113 82.00272 
L 388.465179 74.105907 
L 388.512946 74.536642 
L 388.735857 78.843995 
L 388.75178 78.700417 
L 388.831391 78.126103 
L 388.831391 78.126103 
L 388.831391 78.126103 
L 388.990613 85.305024 
L 389.03838 83.86924 
L 389.102069 80.997671 
L 389.149835 82.720612 
L 389.309058 86.740808 
L 389.388669 86.740808 
L 389.516047 86.59723 
L 389.61158 86.59723 
L 389.643425 86.453652 
L 389.643425 86.453652 
L 389.643425 86.453652 
L 389.75488 92.05321 
L 389.834491 89.899534 
L 390.009636 81.571985 
L 390.073325 81.14125 
L 390.089247 81.571985 
L 390.18478 88.033014 
L 390.264391 86.166495 
L 390.375847 77.695368 
L 390.487303 78.269681 
L 390.614681 78.41326 
L 391.092347 78.41326 
L 391.219725 78.269681 
L 400.916364 78.269681 
L 400.916364 78.269681 
" style="fill:none;stroke:#1f77b4;stroke-linecap:square;stroke-width:1.5;"/>
   </g>
   <g id="patch_3">
    <path d="M 27.88 129.52 
L 27.88 25.44 
" style="fill:none;stroke:#000000;stroke-linecap:square;stroke-linejoin:miter;stroke-width:0.8;"/>
   </g>
   <g id="patch_4">
    <path d="M 418.68 129.52 
L 418.68 25.44 
" style="fill:none;stroke:#000000;stroke-linecap:square;stroke-linejoin:miter;stroke-width:0.8;"/>
   </g>
   <g id="patch_5">
    <path d="M 27.88 129.52 
L 418.68 129.52 
" style="fill:none;stroke:#000000;stroke-linecap:square;stroke-linejoin:miter;stroke-width:0.8;"/>
   </g>
   <g id="patch_6">
    <path d="M 27.88 25.44 
L 418.68 25.44 
" style="fill:none;stroke:#000000;stroke-linecap:square;stroke-linejoin:miter;stroke-width:0.8;"/>
   </g>
   <g id="text_1">
    <!-- Steer Angle -->
    <defs>
     <path d="M 12.984375 25.203125 
Q 13.578125 10.40625 25.78125 10.40625 
Q 30.171875 10.40625 33.109375 12.59375 
Q 37.203125 15.765625 37.203125 21.484375 
Q 37.203125 27.640625 32.078125 32.328125 
Q 28.5625 35.453125 20.015625 40.375 
Q 6.5 48.34375 6.5 59.375 
Q 6.5 66.359375 10.890625 71.1875 
Q 16.21875 77.09375 25.09375 77.09375 
Q 41.65625 77.09375 43.890625 57.171875 
L 35.6875 57.171875 
Q 35.359375 61.765625 33.796875 64.5 
Q 30.671875 70.015625 25.09375 70.015625 
Q 19.34375 70.015625 16.5 66.109375 
Q 14.5 63.328125 14.5 60.015625 
Q 14.5 52.09375 27.390625 44.578125 
Q 35.359375 39.9375 39.59375 35.6875 
Q 45.3125 30.125 45.3125 21.578125 
Q 45.3125 13.53125 40.1875 8.59375 
Q 34.71875 3.078125 26.03125 3.078125 
Q 15.140625 3.078125 9.078125 11.078125 
Q 4.890625 16.65625 4.59375 25.203125 
z
" id="TakaoGothic-53"/>
     <path d="M 19.4375 65.484375 
L 27.046875 65.484375 
L 27.046875 52.59375 
L 38.8125 52.59375 
L 38.8125 45.40625 
L 27.046875 45.40625 
L 27.046875 15.140625 
Q 27.046875 11.71875 30.859375 11.71875 
Q 35.5 11.71875 39.5 12.5 
L 39.5 5.03125 
Q 33.59375 4.203125 29.34375 4.203125 
Q 19.4375 4.203125 19.4375 14.109375 
L 19.4375 45.40625 
L 10.015625 45.40625 
L 10.015625 52.59375 
L 19.4375 52.59375 
z
" id="TakaoGothic-74"/>
     <path d="M 44 19.828125 
Q 39.65625 3.125 25.09375 3.125 
Q 16.0625 3.125 10.796875 10.640625 
Q 6 17.53125 6 28.8125 
Q 6 39.59375 10.5 46.484375 
Q 15.765625 54.5 25 54.5 
Q 43.015625 54.5 44.1875 27.296875 
L 13.53125 27.296875 
Q 14.109375 9.8125 25.203125 9.8125 
Q 33.984375 9.8125 36.1875 19.828125 
z
M 36.1875 33.6875 
Q 34.578125 47.796875 25 47.796875 
Q 15.765625 47.796875 13.8125 33.6875 
z
" id="TakaoGothic-65"/>
     <path d="M 22.21875 52.59375 
L 22.21875 42.578125 
Q 30.859375 51.703125 40.71875 54.5 
L 40.71875 45.796875 
Q 29.390625 43.0625 22.21875 33.5 
L 22.21875 5.078125 
L 14.59375 5.078125 
L 14.59375 52.59375 
z
" id="TakaoGothic-72"/>
     <path id="TakaoGothic-20"/>
     <path d="M 20.015625 75.09375 
L 29.984375 75.09375 
L 47.90625 5.078125 
L 39.203125 5.078125 
L 33.890625 27.9375 
L 16.109375 27.9375 
L 10.796875 5.078125 
L 2.09375 5.078125 
z
M 25 68.015625 
L 17.671875 34.90625 
L 32.28125 34.90625 
z
" id="TakaoGothic-41"/>
     <path d="M 13.234375 52.59375 
L 14.359375 46.484375 
Q 21.875 54.5 29.203125 54.5 
Q 37.359375 54.5 41.109375 47.3125 
Q 43.21875 43.265625 43.21875 37.5 
L 43.21875 5.078125 
L 35.796875 5.078125 
L 35.796875 35.296875 
Q 35.796875 47.40625 28.03125 47.40625 
Q 22.75 47.40625 18.84375 43.609375 
Q 14.75 39.5 14.75 34.1875 
L 14.75 5.078125 
L 7.328125 5.078125 
L 7.328125 52.59375 
z
" id="TakaoGothic-6e"/>
     <path d="M 42.78125 52.59375 
L 42.78125 10.59375 
Q 42.78125 -9.28125 24.515625 -9.28125 
Q 8.890625 -9.28125 6.203125 6.109375 
L 14.015625 6.109375 
Q 15.328125 -2.59375 24.703125 -2.59375 
Q 35.59375 -2.59375 35.59375 10.015625 
L 35.59375 18.109375 
Q 30.375 12.015625 23 12.015625 
Q 15.046875 12.015625 9.765625 18.3125 
Q 4.984375 24.171875 4.984375 32.90625 
Q 4.984375 39.265625 7.46875 44.09375 
Q 12.75 54.5 23.390625 54.5 
Q 30.8125 54.5 35.890625 48.484375 
L 37.59375 52.59375 
z
M 24.078125 47.609375 
Q 18.5625 47.609375 15.28125 42.71875 
Q 12.59375 38.8125 12.59375 33.015625 
Q 12.59375 26.953125 15.578125 22.90625 
Q 18.796875 18.5 24.171875 18.5 
Q 28.609375 18.5 31.6875 21.921875 
Q 35.796875 26.3125 35.796875 32.90625 
Q 35.796875 39.453125 32.28125 43.703125 
Q 28.859375 47.609375 24.078125 47.609375 
" id="TakaoGothic-67"/>
     <path d="M 28.90625 16.015625 
Q 28.90625 11.71875 33.015625 11.71875 
Q 36.375 11.71875 40.375 12.5 
L 40.375 5.03125 
Q 34.46875 4.203125 31.6875 4.203125 
Q 21.09375 4.203125 21.09375 14.59375 
L 21.09375 75.09375 
L 28.90625 75.09375 
z
" id="TakaoGothic-6c"/>
    </defs>
    <g transform="translate(190.28 19.44)scale(0.12 -0.12)">
     <use xlink:href="#TakaoGothic-53"/>
     <use x="50" xlink:href="#TakaoGothic-74"/>
     <use x="100" xlink:href="#TakaoGothic-65"/>
     <use x="150" xlink:href="#TakaoGothic-65"/>
     <use x="200" xlink:href="#TakaoGothic-72"/>
     <use x="250" xlink:href="#TakaoGothic-20"/>
     <use x="300" xlink:href="#TakaoGothic-41"/>
     <use x="350" xlink:href="#TakaoGothic-6e"/>
     <use x="400" xlink:href="#TakaoGothic-67"/>
     <use x="450" xlink:href="#TakaoGothic-6c"/>
     <use x="500" xlink:href="#TakaoGothic-65"/>
    </g>
   </g>
  </g>
  <g id="axes_2">
   <g id="patch_7">
    <path d="M 27.88 261.56 
L 418.68 261.56 
L 418.68 157.48 
L 27.88 157.48 
z
" style="fill:#ffffff;"/>
   </g>
   <g id="matplotlib.axis_3">
    <g id="xtick_6">
     <g id="line2d_12">
      <g>
       <use style="stroke:#000000;stroke-width:0.8;" x="45.643636" xlink:href="#md5dbb7e7df" y="261.56"/>
      </g>
     </g>
    </g>
    <g id="xtick_7">
     <g id="line2d_13">
      <g>
       <use style="stroke:#000000;stroke-width:0.8;" x="125.254788" xlink:href="#md5dbb7e7df" y="261.56"/>
      </g>
     </g>
    </g>
    <g id="xtick_8">
     <g id="line2d_14">
      <g>
       <use style="stroke:#000000;stroke-width:0.8;" x="204.865941" xlink:href="#md5dbb7e7df" y="261.56"/>
      </g>
     </g>
    </g>
    <g id="xtick_9">
     <g id="line2d_15">
      <g>
       <use style="stroke:#000000;stroke-width:0.8;" x="284.477093" xlink:href="#md5dbb7e7df" y="261.56"/>
      </g>
     </g>
    </g>
    <g id="xtick_10">
     <g id="line2d_16">
      <g>
       <use style="stroke:#000000;stroke-width:0.8;" x="364.088245" xlink:href="#md5dbb7e7df" y="261.56"/>
      </g>
     </g>
    </g>
   </g>
   <g id="matplotlib.axis_4">
    <g id="ytick_6">
     <g id="line2d_17">
      <g>
       <use style="stroke:#000000;stroke-width:0.8;" x="27.88" xlink:href="#mbf589bd79c" y="256.829091"/>
      </g>
     </g>
    </g>
    <g id="ytick_7">
     <g id="line2d_18">
      <g>
       <use style="stroke:#000000;stroke-width:0.8;" x="27.88" xlink:href="#mbf589bd79c" y="220.632388"/>
      </g>
     </g>
    </g>
    <g id="ytick_8">
     <g id="line2d_19">
      <g>
       <use style="stroke:#000000;stroke-width:0.8;" x="27.88" xlink:href="#mbf589bd79c" y="184.435685"/>
      </g>
     </g>
    </g>
   </g>
   <g id="line2d_20">
    <path clip-path="url(#p8ff12966fa)" d="M 45.643636 256.829091 
L 45.962081 256.829091 
L 46.248681 248.775324 
L 46.391981 249.064898 
L 46.535281 251.634864 
L 46.583048 251.508176 
L 46.726348 251.689159 
L 46.74227 251.616766 
L 46.965181 246.694014 
L 47.315471 235.816905 
L 48.000126 218.822553 
L 48.111582 219.437897 
L 48.493716 225.084582 
L 49.273905 256.829091 
L 50.786517 256.829091 
L 50.929817 251.309094 
L 51.391562 227.238286 
L 52.060295 197.285514 
L 52.66534 184.146111 
L 52.697184 184.327095 
L 52.713107 184.290898 
L 52.713107 184.290898 
L 52.776796 183.476472 
L 52.840485 183.910833 
L 53.143007 182.698243 
L 53.23854 183.440275 
L 53.254463 183.150702 
L 53.270385 182.51726 
L 53.302229 183.078308 
L 53.302229 183.078308 
L 53.318151 183.367882 
L 53.365918 183.27739 
L 53.365918 183.27739 
L 53.397763 182.354374 
L 53.429607 183.27739 
L 53.429607 183.27739 
L 53.461451 183.440275 
L 53.461451 183.440275 
L 53.461451 183.440275 
L 53.652518 181.63044 
L 53.827663 183.621259 
L 53.875429 184.290898 
L 54.798919 213.664523 
L 55.642797 256.829091 
L 58.556565 256.829091 
L 58.715788 249.716439 
L 59.145688 237.083789 
L 59.368599 234.7672 
L 59.384521 234.966282 
L 59.464132 235.76261 
L 59.814421 245.300441 
L 59.87811 245.463326 
L 59.925877 245.318539 
L 59.989566 245.318539 
L 60.323933 248.214276 
L 60.546844 247.490342 
L 60.610533 247.580833 
L 60.737911 247.526538 
L 61.072278 245.065162 
L 61.183733 242.024639 
L 61.693245 227.926024 
L 62.011689 218.768258 
L 62.361978 210.262032 
L 62.680423 206.841444 
L 62.775956 206.479477 
L 62.791879 206.569969 
L 63.285468 211.60131 
L 63.30139 211.583212 
L 63.492457 213.266359 
L 63.699446 216.397374 
L 63.842746 218.116717 
L 64.049735 220.234224 
L 64.097501 220.397109 
L 64.320413 222.967075 
L 64.352257 222.985174 
L 64.654779 228.613761 
L 65.132446 242.386606 
L 65.530502 254.928764 
L 65.721569 256.829091 
L 75.004229 256.829091 
L 75.195296 249.300177 
L 75.561507 238.658346 
L 75.86403 235.219659 
L 75.975485 234.7672 
L 75.991408 235.038676 
L 76.055096 235.581626 
L 76.628297 243.092442 
L 77.026353 251.960634 
L 77.15373 253.173224 
L 77.201497 252.865552 
L 77.424408 251.399585 
L 77.567708 249.408767 
L 77.758775 243.237229 
L 77.79062 243.345819 
L 78.029453 244.522212 
L 78.045375 244.359327 
L 78.140909 241.698869 
L 78.491198 229.971137 
L 78.79372 225.77232 
L 78.889253 224.957894 
L 78.93702 225.229369 
L 79.048476 225.9895 
L 79.112165 225.518943 
L 79.128087 225.518943 
L 79.382843 223.310944 
L 79.764976 221.573502 
L 79.844587 221.627797 
L 79.987887 222.406026 
L 80.067499 222.080256 
L 80.879532 210.062951 
L 80.943221 209.483803 
L 81.978166 198.878169 
L 81.994088 198.914366 
L 81.994088 198.914366 
L 81.994088 198.914366 
L 82.169233 197.937055 
L 82.185155 197.973252 
L 82.296611 197.430301 
L 82.312533 197.4484 
L 82.3603 197.140728 
L 82.6469 194.932729 
L 82.837967 195.946236 
L 83.172333 197.593186 
L 83.188256 197.484596 
L 83.251945 197.140728 
L 83.299711 197.213121 
L 83.347478 197.792268 
L 83.395245 197.213121 
L 83.443011 196.489187 
L 83.443011 196.489187 
L 83.443011 196.489187 
L 83.5067 197.792268 
L 83.570389 197.575088 
L 83.634078 197.846563 
L 83.665923 197.593186 
L 83.713689 197.285514 
L 83.713689 197.285514 
L 83.713689 197.285514 
L 83.729612 197.810367 
L 83.777378 197.484596 
L 83.777378 197.484596 
L 83.952523 195.367089 
L 83.968445 195.403286 
L 83.968445 195.403286 
L 83.968445 195.403286 
L 84.016212 194.860335 
L 84.239123 190.96919 
L 84.477956 187.204733 
L 84.493879 187.277126 
L 84.669023 184.544275 
L 84.764556 183.223095 
L 84.987468 181.485653 
L 85.114846 180.87031 
L 85.162612 181.177981 
L 85.226301 181.558047 
L 85.481057 185.069127 
L 85.560668 185.865455 
L 85.847268 189.521322 
L 85.879113 189.593715 
L 86.102024 192.272271 
L 86.388624 199.909775 
L 87.630558 252.720765 
L 87.93308 256.829091 
L 93.187416 256.829091 
L 93.330716 251.182405 
L 95.098084 183.259292 
L 95.193617 180.924605 
L 95.448373 176.418115 
L 95.910118 172.653658 
L 95.957884 172.798445 
L 95.957884 172.798445 
L 95.957884 172.798445 
L 96.005651 172.436478 
L 96.06934 172.526969 
L 96.451474 176.291427 
L 96.594774 177.558311 
L 97.13613 193.068598 
L 98.123308 223.02137 
L 98.298452 228.034614 
L 98.600975 235.129167 
L 98.919419 242.802868 
L 99.174175 248.05139 
L 99.508542 253.082732 
L 99.858831 256.829091 
L 103.6324 256.829091 
L 103.807544 252.77506 
L 103.950844 253.372306 
L 103.982689 253.245617 
L 104.285211 247.816112 
L 104.476278 238.984116 
L 105.001711 218.044324 
L 105.622678 199.674497 
L 105.638601 199.982169 
L 105.957045 196.091023 
L 105.972967 196.163417 
L 105.972967 196.163417 
L 105.972967 196.163417 
L 106.195879 193.26768 
L 106.259568 192.326566 
L 106.578012 189.159355 
L 106.832768 187.530503 
L 106.864612 187.711486 
L 106.896457 187.67529 
L 107.007912 186.951356 
L 107.023835 187.096142 
L 107.103446 186.78847 
L 107.13529 187.023749 
L 107.310435 187.89247 
L 107.453735 188.887879 
L 107.469657 188.851683 
L 107.469657 188.851683 
L 107.469657 188.851683 
L 107.708491 190.317649 
L 107.724413 190.064272 
L 107.724413 190.064272 
L 107.724413 190.064272 
L 107.835868 190.806305 
L 107.851791 190.697714 
L 107.867713 190.679616 
L 107.947324 191.132075 
L 107.979168 190.770108 
L 107.995091 190.842501 
L 108.011013 190.824403 
L 108.011013 190.824403 
L 108.34538 188.290634 
L 108.48868 186.915159 
L 108.520524 186.770372 
L 108.854891 183.313587 
L 108.870813 183.331685 
L 108.886736 183.295489 
L 109.125569 181.051293 
L 109.141491 181.141785 
L 109.141491 181.141785 
L 109.141491 181.141785 
L 109.300714 179.368146 
L 109.63508 175.893263 
L 109.651003 176.110443 
L 109.666925 176.001853 
L 109.666925 176.001853 
L 109.937603 173.449985 
L 110.001292 172.671756 
L 110.017214 172.508871 
L 110.017214 172.508871 
L 110.017214 172.508871 
L 110.033136 172.707953 
L 110.033136 172.707953 
L 110.033136 172.707953 
L 110.208281 171.260085 
L 110.224203 171.20579 
L 110.224203 171.20579 
L 110.224203 171.20579 
L 110.463036 173.956739 
L 110.797403 179.350048 
L 111.259148 193.213385 
L 111.27507 192.978107 
L 111.27507 192.978107 
L 111.27507 192.978107 
L 111.768659 204.90492 
L 111.864193 206.479477 
L 112.262248 213.990293 
L 112.437393 219.329307 
L 113.599716 256.829091 
L 120.812486 256.829091 
L 120.955786 252.268306 
L 121.592675 233.934676 
L 121.608598 233.970873 
L 121.879276 235.853101 
L 121.942965 236.269364 
L 122.19772 241.119722 
L 122.675387 251.671061 
L 122.946065 253.498994 
L 123.12121 255.435518 
L 123.232665 256.829091 
L 129.458257 256.829091 
L 129.585635 253.426601 
L 129.744857 249.770734 
L 130.413591 225.102681 
L 130.47728 224.55973 
L 130.732036 223.075665 
L 130.747958 223.111862 
L 130.76388 223.148059 
L 131.002714 220.487601 
L 131.114169 219.238815 
L 131.225625 217.103209 
L 131.926203 196.145318 
L 132.340181 190.516731 
L 132.992992 182.788735 
L 133.438815 176.725787 
L 133.454737 176.761984 
L 133.486582 176.581 
L 133.645804 175.078837 
L 134.632982 167.115562 
L 134.680749 167.097464 
L 134.855893 166.518317 
L 134.951427 166.120153 
L 134.999193 166.138251 
L 135.015116 166.26494 
L 135.015116 166.26494 
L 135.015116 166.26494 
L 135.062882 165.776284 
L 135.142494 165.902973 
L 135.158416 165.957268 
L 135.158416 165.957268 
L 135.158416 165.957268 
L 135.222105 165.577202 
L 135.253949 165.848678 
L 135.572394 171.477265 
L 136.702872 216.578357 
L 137.26015 241.572181 
L 137.69005 253.082732 
L 138.088106 256.829091 
L 147.736978 256.829091 
L 148.262411 241.843656 
L 148.803767 224.052976 
L 149.090367 219.745569 
L 149.10629 220.017044 
L 149.122212 220.107536 
L 149.122212 220.107536 
L 149.122212 220.107536 
L 149.281434 218.333897 
L 149.297356 218.261504 
L 149.313279 218.333897 
L 149.313279 218.333897 
L 149.329201 218.351996 
L 149.408812 217.555668 
L 149.456579 217.736652 
L 149.472501 218.062422 
L 149.472501 218.062422 
L 149.472501 218.062422 
L 149.615801 217.193701 
L 149.647645 216.976521 
L 149.67949 217.103209 
L 149.67949 217.103209 
L 149.96609 218.424389 
L 149.982012 218.243405 
L 149.997935 218.388192 
L 149.997935 218.388192 
L 150.173079 219.419798 
L 150.189001 219.311208 
L 150.189001 219.311208 
L 150.189001 219.311208 
L 150.348224 220.469503 
L 150.364146 220.288519 
L 150.380068 220.270421 
L 150.380068 220.270421 
L 150.380068 220.270421 
L 150.523368 220.849568 
L 150.53929 220.668585 
L 150.555213 220.72288 
L 150.555213 220.72288 
L 150.762202 223.799599 
L 151.287635 238.079199 
L 151.637924 246.513031 
L 151.813069 249.535455 
L 151.940447 248.992505 
L 152.227047 247.18267 
L 152.290736 245.988178 
L 153.039081 221.247732 
L 153.277914 215.691538 
L 154.042181 199.891677 
L 154.488003 196.489187 
L 154.519848 196.814957 
L 154.583537 197.376006 
L 154.726837 199.565907 
L 154.742759 199.276333 
L 154.758681 199.31253 
L 154.774604 199.294431 
L 154.790526 199.004858 
L 154.790526 199.004858 
L 154.790526 199.004858 
L 154.933826 200.814693 
L 154.96567 200.543218 
L 154.981593 200.724201 
L 154.981593 200.724201 
L 155.140815 202.624528 
L 155.172659 202.407348 
L 155.984693 187.240929 
L 156.191682 184.888144 
L 156.350904 182.300079 
L 156.366827 182.372473 
L 156.366827 182.372473 
L 156.366827 182.372473 
L 156.557893 181.105588 
L 156.589738 181.340867 
L 157.115172 185.467291 
L 157.131094 185.250111 
L 157.147016 185.358701 
L 157.147016 185.358701 
L 157.147016 185.358701 
L 157.162938 185.03293 
L 157.17886 185.322504 
L 157.17886 185.322504 
L 157.242549 186.010241 
L 157.306238 185.666373 
L 157.354005 186.02834 
L 157.417694 185.774963 
L 157.81575 180.490244 
L 157.990894 177.884082 
L 158.166039 176.47241 
L 158.181961 176.400017 
L 158.197883 176.418115 
L 158.197883 176.418115 
L 158.357105 177.015361 
L 158.484483 177.630705 
L 158.53225 177.449721 
L 158.67555 176.870574 
L 158.691472 176.997262 
L 158.691472 176.997262 
L 158.691472 176.997262 
L 158.707395 176.653394 
L 158.802928 176.816279 
L 158.993995 177.522114 
L 159.041761 177.395426 
L 159.073606 176.870574 
L 159.073606 176.870574 
L 159.073606 176.870574 
L 159.185061 177.612606 
L 159.232828 177.395426 
L 159.280595 177.504016 
L 159.296517 177.666901 
L 159.296517 177.666901 
L 159.296517 177.666901 
L 159.312439 177.413524 
L 159.312439 177.413524 
L 159.312439 177.413524 
L 159.328362 177.739295 
L 159.328362 177.739295 
L 159.328362 177.739295 
L 159.360206 177.160147 
L 159.439817 177.522114 
L 159.535351 180.852211 
L 159.997095 220.252322 
L 160.506607 256.449026 
L 160.618062 256.829091 
L 171.38149 256.829091 
L 171.540712 249.843127 
L 172.623424 209.972459 
L 173.069246 200.434628 
L 173.387691 194.860335 
L 174.327103 183.458374 
L 174.661469 182.119096 
L 174.677392 182.227686 
L 174.709236 182.119096 
L 174.709236 182.119096 
L 174.741081 181.811424 
L 174.820692 181.865719 
L 174.836614 181.974309 
L 174.852536 181.938112 
L 174.852536 181.938112 
L 175.011758 180.816014 
L 175.027681 180.888408 
L 175.600881 173.992936 
L 175.871559 169.9932 
L 175.983015 168.798709 
L 176.09447 169.142578 
L 176.205926 169.957004 
L 176.221848 169.703627 
L 176.269615 169.124479 
L 176.285537 169.395955 
L 176.285537 169.395955 
L 176.301459 169.902708 
L 176.333304 169.486446 
L 176.333304 169.486446 
L 176.540293 167.839496 
L 176.572137 167.785201 
L 176.651748 167.242251 
L 176.699515 167.459431 
L 176.715437 167.622316 
L 176.795048 167.513726 
L 176.810971 167.441333 
L 176.810971 167.441333 
L 176.810971 167.441333 
L 176.858737 168.110972 
L 176.954271 168.074775 
L 176.986115 167.857595 
L 176.986115 167.857595 
L 176.986115 167.857595 
L 177.129415 168.509135 
L 177.145337 168.672021 
L 177.145337 168.672021 
L 177.145337 168.672021 
L 177.16126 168.038578 
L 177.177182 168.672021 
L 177.177182 168.672021 
L 177.209026 168.961594 
L 177.240871 168.907299 
L 177.240871 168.907299 
L 177.256793 168.509135 
L 177.272715 168.581529 
L 177.272715 168.581529 
L 177.288637 168.925398 
L 177.384171 168.853004 
L 177.400093 168.853004 
L 177.511549 168.472939 
L 177.527471 168.527234 
L 177.543393 168.635824 
L 177.559315 168.581529 
L 177.559315 168.581529 
L 177.702615 167.604218 
L 177.718538 167.658513 
L 177.750382 167.948087 
L 177.766304 167.839496 
L 177.893682 166.825989 
L 177.909604 166.80789 
L 177.925527 167.169857 
L 178.005138 166.898382 
L 178.100671 166.391628 
L 178.132516 166.464022 
L 178.148438 166.554513 
L 178.16436 166.536415 
L 178.16436 166.536415 
L 178.212127 165.649596 
L 178.212127 165.649596 
L 178.212127 165.649596 
L 178.243971 166.880284 
L 178.275816 165.740088 
L 178.275816 165.740088 
L 178.291738 165.468612 
L 178.30766 165.740088 
L 178.30766 165.740088 
L 178.339505 166.301137 
L 178.355427 166.029661 
L 178.355427 166.029661 
L 178.482805 165.179039 
L 178.498727 165.215235 
L 178.498727 165.215235 
L 178.498727 165.215235 
L 178.689794 164.527498 
L 178.705716 164.545596 
L 178.833094 164.056941 
L 178.849016 164.219826 
L 178.849016 164.219826 
L 178.849016 164.219826 
L 178.992316 163.459695 
L 179.008238 163.477794 
L 179.008238 163.477794 
L 179.008238 163.477794 
L 179.151538 162.934843 
L 179.183383 163.07963 
L 179.199305 163.314909 
L 179.199305 163.314909 
L 179.199305 163.314909 
L 179.326683 162.609073 
L 179.342605 162.482384 
L 179.342605 162.482384 
L 179.342605 162.482384 
L 179.390372 162.844351 
L 179.454061 162.681466 
L 179.501827 162.301401 
L 179.533672 162.663368 
L 179.533672 162.663368 
L 179.549594 162.75386 
L 179.549594 162.75386 
L 179.549594 162.75386 
L 179.597361 162.210909 
L 179.66105 162.699565 
L 179.724739 162.373794 
L 179.756583 162.572876 
L 180.154639 167.712808 
L 180.680073 175.277919 
L 180.711917 175.404607 
L 180.839295 178.300344 
L 180.871139 178.22795 
L 181.842395 201.357643 
L 182.956951 241.300705 
L 183.577918 255.236436 
L 183.784907 256.829091 
L 190.121955 256.829091 
L 190.249333 253.462798 
L 190.4404 248.304767 
L 191.125056 223.817698 
L 191.411656 221.211535 
L 191.682334 222.36983 
L 191.714178 222.351731 
L 191.793789 222.134551 
L 192.000778 220.686683 
L 192.128156 217.591865 
L 192.701356 199.692595 
L 192.717279 199.801185 
L 192.717279 199.801185 
L 192.717279 199.801185 
L 192.94019 198.461907 
L 192.956112 198.642891 
L 192.972034 198.751481 
L 192.972034 198.751481 
L 192.972034 198.751481 
L 192.987957 198.516202 
L 193.003879 198.660989 
L 193.003879 198.660989 
L 193.019801 198.823874 
L 193.035723 198.769579 
L 193.035723 198.769579 
L 193.051646 198.606694 
L 193.051646 198.606694 
L 193.051646 198.606694 
L 193.210868 200.018365 
L 193.784068 210.714491 
L 194.022902 215.438161 
L 194.086591 215.854423 
L 194.43688 219.29311 
L 194.452802 219.29311 
L 194.548335 216.578357 
L 194.72348 211.38413 
L 194.771246 210.84118 
L 194.882702 211.203147 
L 195.073769 213.049179 
L 195.089691 213.012982 
L 195.694736 219.419798 
L 196.172403 232.305825 
L 196.427158 242.133229 
L 196.745603 248.992505 
L 197.207348 256.829091 
L 198.497048 256.829091 
L 198.688115 241.517886 
L 198.990638 227.74504 
L 199.14986 225.66373 
L 199.165782 225.790418 
L 199.181704 225.699926 
L 199.181704 225.699926 
L 199.181704 225.699926 
L 199.340927 226.641041 
L 199.372771 226.586745 
L 199.404615 226.224778 
L 199.818593 218.532979 
L 201.203828 187.910568 
L 201.426739 185.684471 
L 201.617806 183.838439 
L 201.999939 191.530239 
L 202.286539 206.388985 
L 203.162262 256.829091 
L 210.773088 256.829091 
L 210.980077 245.246146 
L 211.21891 239.581362 
L 211.266677 239.798542 
L 211.696577 244.703195 
L 212.365311 256.829091 
L 213.065889 256.829091 
L 213.241034 248.576243 
L 213.893845 235.002479 
L 214.244134 227.147794 
L 214.419279 224.867402 
L 214.817335 221.808781 
L 214.865101 221.663994 
L 215.040246 220.759076 
L 215.103935 221.102945 
L 215.677135 226.912516 
L 216.616547 235.111069 
L 217.301202 250.205094 
L 217.747025 256.829091 
L 230.851021 256.829091 
L 231.026165 244.902277 
L 231.249076 237.862019 
L 231.264999 237.970609 
L 231.328687 238.205887 
L 231.77451 243.273426 
L 231.885966 245.626211 
L 231.901888 245.047064 
L 232.331788 234.350938 
L 232.952755 240.088116 
L 233.796633 256.829091 
L 237.331368 256.829091 
L 237.522435 245.101359 
L 237.824957 235.038676 
L 238.095635 230.477891 
L 238.12748 230.676973 
L 238.41408 232.812578 
L 238.445924 232.993562 
L 238.493691 233.283136 
L 238.525536 233.084054 
L 239.003203 221.229633 
L 239.082814 221.863076 
L 239.178347 222.948977 
L 239.385336 228.107007 
L 239.942614 248.05139 
L 240.292903 255.218338 
L 240.499892 256.829091 
L 256.055911 256.829091 
L 256.215134 249.770734 
L 257.090856 207.601575 
L 257.170467 207.909247 
L 257.18639 207.818755 
L 257.313768 208.922754 
L 257.361534 209.320918 
L 257.632212 211.854687 
L 257.648134 211.673704 
L 257.648134 211.673704 
L 257.648134 211.673704 
L 257.871046 213.085375 
L 257.886968 212.994883 
L 258.47609 185.449192 
L 258.492013 185.883553 
L 258.523857 185.449192 
L 258.523857 185.449192 
L 258.539779 185.268209 
L 258.539779 185.268209 
L 258.539779 185.268209 
L 258.667157 186.209323 
L 258.683079 185.992143 
L 258.76269 185.539684 
L 258.794535 185.756864 
L 258.810457 186.010241 
L 258.826379 185.955946 
L 258.826379 185.955946 
L 259.017446 184.399488 
L 259.033368 184.417586 
L 259.702102 175.187427 
L 259.733947 175.477001 
L 259.749869 175.477001 
L 259.781713 175.15123 
L 259.813558 175.477001 
L 259.813558 175.477001 
L 259.877247 176.400017 
L 259.909091 176.182836 
L 260.052391 178.517524 
L 260.084236 179.078573 
L 260.418602 189.575617 
L 260.737047 204.180986 
L 261.166947 216.524062 
L 261.18287 216.723144 
L 261.198792 216.578357 
L 261.198792 216.578357 
L 261.230636 216.343079 
L 261.246558 216.415472 
L 261.246558 216.415472 
L 261.373936 217.048914 
L 261.389859 217.012718 
L 261.724225 217.86334 
L 261.740148 217.790947 
L 261.75607 217.86334 
L 261.75607 217.86334 
L 261.771992 217.899537 
L 261.771992 217.899537 
L 261.771992 217.899537 
L 261.803836 217.772848 
L 261.819759 217.899537 
L 261.819759 217.899537 
L 262.058592 219.437897 
L 262.61587 233.826086 
L 262.918393 240.486279 
L 263.316448 243.816376 
L 263.332371 243.780179 
L 263.332371 243.780179 
L 263.332371 243.780179 
L 263.53936 244.594605 
L 264.001104 246.476834 
L 265.020127 256.829091 
L 265.227116 256.829091 
L 265.386338 251.091913 
L 265.720705 233.880381 
L 266.055072 221.718289 
L 266.198372 219.962749 
L 266.277983 220.017044 
L 266.548661 221.15724 
L 266.771572 223.003272 
L 267.090017 225.446549 
L 267.201473 226.369565 
L 267.233317 226.260975 
L 267.249239 226.007598 
L 267.249239 226.007598 
L 267.249239 226.007598 
L 267.265162 226.351467 
L 267.281084 226.025697 
L 267.281084 226.025697 
L 267.519917 223.23855 
L 267.567684 223.347141 
L 267.67914 224.34255 
L 267.806517 225.464648 
L 267.854284 225.356058 
L 267.96574 223.853894 
L 268.077195 221.320125 
L 268.68224 206.153707 
L 269.096218 202.208266 
L 269.159907 202.153971 
L 269.335051 201.683414 
L 269.430585 202.135873 
L 269.478352 202.045381 
L 269.494274 201.972987 
L 269.526118 202.009184 
L 269.526118 202.009184 
L 269.54204 202.099676 
L 269.557963 202.081578 
L 269.557963 202.081578 
L 269.701263 200.724201 
L 269.749029 201.031873 
L 269.987863 203.167479 
L 270.003785 202.82361 
L 270.338152 197.394104 
L 270.354074 197.4484 
L 270.656597 192.091287 
L 270.831741 188.924076 
L 270.990963 186.607487 
L 271.006886 186.806569 
L 271.006886 186.806569 
L 271.006886 186.806569 
L 271.022808 186.064536 
L 271.054652 186.661782 
L 271.054652 186.661782 
L 271.197952 188.254437 
L 271.213875 187.910568 
L 271.213875 187.910568 
L 271.213875 187.910568 
L 271.357175 189.629912 
L 271.373097 189.937584 
L 271.420864 189.720403 
L 271.420864 189.720403 
L 271.436786 189.575617 
L 271.436786 189.575617 
L 271.436786 189.575617 
L 271.707464 193.014303 
L 271.802997 194.570762 
L 271.978142 196.615875 
L 272.455809 202.914102 
L 272.503575 202.515938 
L 272.551342 201.846299 
L 272.853864 195.855745 
L 272.933476 194.824139 
L 273.315609 184.797652 
L 273.745509 175.712279 
L 273.761432 175.802771 
L 273.904732 174.897854 
L 273.920654 174.952149 
L 274.048032 175.422706 
L 274.095798 175.096935 
L 274.127643 175.332214 
L 274.302787 176.36382 
L 274.366476 175.784673 
L 274.382399 176.237132 
L 274.382399 176.237132 
L 274.812299 182.372473 
L 275.114821 186.842766 
L 275.130743 186.806569 
L 275.146666 186.806569 
L 275.226277 187.403814 
L 275.289966 187.385716 
L 275.337732 187.059946 
L 275.369577 187.331421 
L 275.369577 187.331421 
L 275.544721 189.394633 
L 275.560644 189.32224 
L 275.576566 189.141256 
L 275.576566 189.141256 
L 275.576566 189.141256 
L 275.719866 190.028075 
L 275.847244 190.498633 
L 275.863166 190.390042 
L 276.149766 187.67529 
L 276.165688 187.765781 
L 276.165688 187.765781 
L 276.165688 187.765781 
L 276.245299 186.987552 
L 276.308988 187.277126 
L 276.340833 187.385716 
L 276.372677 187.023749 
L 276.404522 187.240929 
L 276.404522 187.240929 
L 276.500055 187.657191 
L 276.515977 187.548601 
L 276.5319 187.458109 
L 276.5319 187.458109 
L 276.5319 187.458109 
L 276.659277 189.231748 
L 277.089178 208.035935 
L 278.044512 256.829091 
L 281.770313 256.829091 
L 281.786236 255.127846 
L 281.865847 256.829091 
L 286.451449 256.829091 
L 286.610671 249.879324 
L 287.16795 220.342814 
L 287.566005 204.760134 
L 288.218817 186.281717 
L 288.234739 186.516995 
L 288.234739 186.516995 
L 288.234739 186.516995 
L 288.45765 182.607751 
L 288.473572 182.643948 
L 288.473572 182.643948 
L 288.473572 182.643948 
L 288.839784 179.76631 
L 288.871628 179.856802 
L 288.919395 180.399752 
L 288.951239 179.929195 
L 288.951239 179.929195 
L 288.983084 179.820605 
L 289.030851 180.653129 
L 289.046773 180.019687 
L 289.046773 180.019687 
L 289.094539 179.169064 
L 289.158228 179.54913 
L 289.190073 179.404343 
L 289.190073 179.404343 
L 289.190073 179.404343 
L 289.221917 179.585327 
L 289.237839 179.494835 
L 289.237839 179.494835 
L 289.317451 179.150966 
L 289.349295 179.386245 
L 289.365217 179.422441 
L 289.492595 178.553721 
L 289.52444 179.44054 
L 289.619973 179.277655 
L 289.635895 179.241458 
L 289.779195 177.703098 
L 289.795118 177.739295 
L 289.795118 177.739295 
L 289.795118 177.739295 
L 289.874729 177.196344 
L 290.065795 175.983755 
L 290.081718 176.200935 
L 290.081718 176.200935 
L 290.081718 176.200935 
L 290.209096 175.332214 
L 290.225018 175.404607 
L 290.24094 175.458902 
L 290.24094 175.458902 
L 290.24094 175.458902 
L 290.368318 175.04264 
L 290.38424 175.115034 
L 290.400162 174.60828 
L 290.400162 174.60828 
L 290.400162 174.60828 
L 290.416085 175.15123 
L 290.511618 174.807362 
L 290.52754 174.771165 
L 290.52754 174.771165 
L 290.52754 174.771165 
L 290.607151 175.060739 
L 290.623074 174.988345 
L 290.702685 174.463493 
L 290.734529 174.82546 
L 290.782296 174.897854 
L 291.052974 177.232541 
L 291.116663 176.979164 
L 291.132585 176.997262 
L 291.132585 176.997262 
L 291.132585 176.997262 
L 291.148507 176.852475 
L 291.148507 176.852475 
L 291.148507 176.852475 
L 291.164429 177.123951 
L 291.212196 177.015361 
L 291.212196 177.015361 
L 291.403263 175.549394 
L 291.59433 173.938641 
L 291.673941 174.101526 
L 291.721707 174.463493 
L 292.040152 179.404343 
L 292.103841 179.22336 
L 292.119763 178.951884 
L 292.16753 179.150966 
L 292.16753 179.150966 
L 292.247141 179.404343 
L 292.247141 179.404343 
L 292.247141 179.404343 
L 292.374519 178.897589 
L 292.422286 178.698507 
L 292.501897 177.974573 
L 292.645197 177.142049 
L 292.661119 177.123951 
L 292.708886 176.581 
L 292.772575 176.79818 
L 292.963641 178.463229 
L 293.568686 186.661782 
L 293.584608 186.336012 
L 293.584608 186.336012 
L 293.584608 186.336012 
L 293.759753 190.534829 
L 293.871209 193.846828 
L 294.95392 242.477098 
L 295.463432 252.44929 
L 295.813721 255.399321 
L 295.925176 256.829091 
L 305.351137 256.829091 
L 305.526281 248.883915 
L 306.115404 227.871728 
L 306.131326 227.926024 
L 306.131326 227.926024 
L 306.131326 227.926024 
L 306.179093 227.799335 
L 306.195015 227.85363 
L 306.195015 227.85363 
L 306.290548 227.980319 
L 306.322393 227.944122 
L 306.354237 227.998417 
L 306.402004 228.143204 
L 306.417926 228.052712 
L 306.417926 228.052712 
L 306.561226 226.894417 
L 307.070738 216.632652 
L 307.150349 216.397374 
L 307.357338 215.130489 
L 307.37326 215.021899 
L 307.405104 215.039997 
L 307.405104 215.039997 
L 307.580249 215.818226 
L 307.596171 215.78203 
L 307.596171 215.78203 
L 307.596171 215.78203 
L 307.978305 220.704781 
L 308.455972 229.06622 
L 308.487816 229.048121 
L 308.615194 229.211006 
L 308.631116 229.17481 
L 308.647038 229.102416 
L 308.662961 229.120515 
L 308.662961 229.120515 
L 308.694805 229.211006 
L 308.758494 229.156711 
L 308.774416 229.102416 
L 308.774416 229.102416 
L 308.774416 229.102416 
L 308.790338 229.2834 
L 308.854027 229.156711 
L 308.854027 229.156711 
L 309.140628 226.948713 
L 310.000428 209.881967 
L 310.191495 209.52 
L 310.780617 205.592658 
L 311.019451 202.678823 
L 311.210517 200.000267 
L 311.465273 195.385187 
L 311.576729 194.570762 
L 311.608573 194.860335 
L 311.624495 194.769844 
L 311.624495 194.769844 
L 311.624495 194.769844 
L 311.927018 198.968661 
L 312.08624 202.60643 
L 312.547985 218.171012 
L 312.691285 220.252322 
L 312.770896 219.709372 
L 313.057496 212.542425 
L 313.248563 209.176131 
L 313.264485 209.393312 
L 313.280407 209.30282 
L 313.29633 209.357115 
L 313.29633 209.357115 
L 313.328174 209.664787 
L 313.391863 209.41141 
L 313.58293 206.931936 
L 313.885452 200.669906 
L 313.980986 198.244727 
L 314.267586 189.141256 
L 314.426808 183.639357 
L 314.554186 179.675818 
L 314.681564 180.019687 
L 315.270686 202.135873 
L 316.034953 251.526274 
L 316.337476 256.829091 
L 316.51262 256.829091 
L 316.687765 246.440637 
L 316.958443 235.509233 
L 317.022132 234.984381 
L 317.069898 235.310151 
L 317.101743 235.346348 
L 317.324654 237.536248 
L 317.356498 237.481953 
L 317.674943 234.206151 
L 317.690865 234.350938 
L 317.72271 234.206151 
L 317.72271 234.206151 
L 317.913776 232.921169 
L 317.929699 232.866873 
L 317.929699 232.866873 
L 317.929699 232.866873 
L 317.961543 233.01166 
L 317.977465 232.90307 
L 317.977465 232.90307 
L 318.279988 228.342286 
L 318.853188 213.990293 
L 318.86911 214.062686 
L 318.86911 214.062686 
L 318.86911 214.062686 
L 319.919978 206.515674 
L 319.9359 206.533772 
L 319.9359 206.533772 
L 319.9359 206.533772 
L 319.951822 206.388985 
L 319.983666 206.44328 
L 319.983666 206.44328 
L 320.445411 210.479213 
L 320.684245 212.795802 
L 320.7957 213.628326 
L 320.827545 213.465441 
L 320.843467 213.447342 
L 320.843467 213.447342 
L 320.843467 213.447342 
L 321.002689 215.239079 
L 321.894334 232.215333 
L 322.626757 248.630538 
L 323.375102 255.399321 
L 323.502479 256.829091 
L 323.598013 256.829091 
L 323.741313 254.114338 
L 324.043835 250.947127 
L 324.187135 245.789096 
L 324.824024 222.279338 
L 325.301691 214.35226 
L 325.333536 214.551342 
L 325.349458 214.424653 
L 325.349458 214.424653 
L 325.476836 213.718818 
L 325.50868 213.755014 
L 325.524603 213.736916 
L 325.524603 213.736916 
L 325.524603 213.736916 
L 325.699747 214.406555 
L 325.715669 214.008391 
L 325.779358 214.388457 
L 325.779358 214.388457 
L 325.811203 214.497047 
L 325.811203 214.497047 
L 325.811203 214.497047 
L 325.938581 214.098883 
L 325.954503 214.316063 
L 325.954503 214.316063 
L 325.954503 214.316063 
L 326.097803 213.537834 
L 326.113725 213.646424 
L 326.113725 213.646424 
L 326.113725 213.646424 
L 327.084981 204.452462 
L 327.100903 204.561052 
L 327.116826 204.651543 
L 327.116826 204.651543 
L 327.116826 204.651543 
L 327.196437 204.289576 
L 327.244204 204.416265 
L 327.594493 206.135608 
L 327.642259 205.990821 
L 327.86517 202.751217 
L 327.912937 202.371151 
L 328.135848 200.145054 
L 328.151771 200.199349 
L 328.151771 200.199349 
L 328.151771 200.199349 
L 328.310993 199.74689 
L 328.326915 199.819284 
L 328.756815 202.443545 
L 328.772738 202.045381 
L 328.78866 202.135873 
L 328.78866 202.135873 
L 328.93196 203.294167 
L 329.489238 205.574559 
L 329.664383 206.479477 
L 329.759916 206.298493 
L 329.871372 206.588067 
L 330.046516 205.393576 
L 330.237583 203.330364 
L 331.065539 188.417322 
L 331.256606 187.89247 
L 331.383983 188.200142 
L 331.447672 187.801978 
L 331.511361 187.856273 
L 331.527283 187.946765 
L 331.527283 187.946765 
L 331.527283 187.946765 
L 331.702428 187.331421 
L 331.750195 187.114241 
L 331.829806 187.150438 
L 332.132328 190.209059 
L 332.14825 190.172862 
L 332.164173 189.86519 
L 332.180095 190.08237 
L 332.180095 190.08237 
L 332.689606 196.308203 
L 333.342418 212.70531 
L 333.867851 234.350938 
L 334.36144 253.082732 
L 334.648041 256.829091 
L 338.087242 256.829091 
L 338.230542 252.630273 
L 338.533065 237.62674 
L 339.058498 220.125634 
L 339.201799 217.519471 
L 340.539266 193.702041 
L 340.57111 193.15909 
L 340.905477 189.64801 
L 341.3513 195.493778 
L 341.367222 195.385187 
L 341.367222 195.385187 
L 341.367222 195.385187 
L 341.383144 195.511876 
L 341.383144 195.511876 
L 341.383144 195.511876 
L 341.590133 193.575352 
L 341.606055 193.539156 
L 341.892655 189.774698 
L 341.9245 189.738502 
L 342.004111 188.996469 
L 342.083722 189.177453 
L 342.434011 192.489451 
L 342.688767 193.973516 
L 342.736534 194.027811 
L 342.752456 193.919221 
L 342.991289 192.109386 
L 343.102745 191.421648 
L 343.660023 185.738766 
L 343.771479 186.13693 
L 343.819245 186.553192 
L 343.882934 186.408405 
L 344.010312 185.865455 
L 344.599435 182.680145 
L 344.774579 182.263883 
L 344.965646 183.404079 
L 344.981568 183.223095 
L 344.981568 183.223095 
L 344.981568 183.223095 
L 344.99749 183.621259 
L 344.99749 183.621259 
L 344.99749 183.621259 
L 345.029335 182.716341 
L 345.093024 183.585062 
L 345.220402 183.965128 
L 345.236324 183.476472 
L 345.236324 183.476472 
L 345.236324 183.476472 
L 345.284091 185.431094 
L 345.363702 184.634767 
L 345.554768 183.747947 
L 345.570691 183.747947 
L 345.586613 183.928931 
L 345.602535 183.820341 
L 345.602535 183.820341 
L 345.761757 182.62585 
L 345.77768 182.716341 
L 345.793602 182.716341 
L 345.809524 182.589653 
L 345.809524 182.589653 
L 345.809524 182.589653 
L 345.825446 182.879227 
L 345.841369 182.698243 
L 345.841369 182.698243 
L 345.984669 181.865719 
L 346.000591 181.901916 
L 346.000591 181.901916 
L 346.000591 181.901916 
L 346.175735 181.377063 
L 346.446413 184.38139 
L 346.955925 191.874107 
L 347.258447 200.724201 
L 347.497281 205.484068 
L 347.959025 214.551342 
L 348.006792 214.605637 
L 348.022714 214.406555 
L 348.038636 214.533243 
L 348.038636 214.533243 
L 348.341159 217.827143 
L 348.691448 221.37442 
L 348.85067 219.980847 
L 348.914359 220.379011 
L 349.073581 222.496518 
L 349.726393 244.75749 
L 349.837848 245.028966 
L 349.901537 245.246146 
L 349.91746 245.155654 
L 349.91746 245.155654 
L 350.028915 242.748573 
L 350.49066 231.4733 
L 350.586193 230.423596 
L 350.63396 230.658875 
L 350.856871 233.12025 
L 351.079782 236.993298 
L 351.095705 236.884708 
L 351.175316 236.957101 
L 351.541527 228.849039 
L 352.27395 213.103474 
L 352.56055 211.908982 
L 352.576472 211.999474 
L 352.719772 213.067277 
L 352.735694 212.958687 
L 352.942683 214.189375 
L 352.958606 214.13508 
L 352.99045 213.755014 
L 353.006372 213.899801 
L 353.006372 213.899801 
L 353.149672 214.515145 
L 353.165595 214.442752 
L 353.165595 214.442752 
L 353.165595 214.442752 
L 353.340739 215.655341 
L 353.372584 215.492456 
L 353.515884 216.596455 
L 353.818406 219.872257 
L 354.455295 226.460057 
L 354.48714 226.659139 
L 355.028496 237.644838 
L 355.840529 256.829091 
L 360.69681 256.829091 
L 360.84011 252.811257 
L 360.903799 251.942536 
L 360.967488 252.394995 
L 361.063021 253.010339 
L 361.094865 252.756962 
L 361.429232 248.485751 
L 362.12981 224.795009 
L 362.161655 224.867402 
L 362.368644 226.478155 
L 362.432333 226.604844 
L 362.432333 226.604844 
L 362.432333 226.604844 
L 362.671166 224.378747 
L 362.687088 224.414943 
L 362.894077 226.188582 
L 363.069222 228.577564 
L 363.260289 231.03894 
L 363.562811 233.645103 
L 363.578733 233.608906 
L 364.151934 244.43172 
L 364.565912 252.177815 
L 364.820667 255.381223 
L 364.948045 256.829091 
L 365.489401 256.829091 
L 365.616779 253.299912 
L 365.807846 244.413622 
L 366.26959 224.270156 
L 366.333279 222.442223 
L 367.002013 207.022427 
L 367.62298 200.525119 
L 367.702591 200.07266 
L 367.877736 198.697186 
L 367.893658 198.769579 
L 367.893658 198.769579 
L 367.893658 198.769579 
L 367.925502 198.570497 
L 367.925502 198.570497 
L 367.925502 198.570497 
L 368.132491 200.724201 
L 368.148413 200.724201 
L 368.435014 207.058624 
L 369.183358 239.834739 
L 369.358503 240.775853 
L 369.374425 240.721558 
L 369.629181 231.672382 
L 369.899859 219.998946 
L 370.059081 215.401964 
L 370.281992 210.714491 
L 370.55267 206.624264 
L 370.568592 206.66046 
L 370.775581 202.552135 
L 371.237326 197.828465 
L 371.253248 197.864662 
L 371.301015 197.520793 
L 371.47616 199.945972 
L 371.651304 202.135873 
L 371.794604 206.515674 
L 372.47926 232.142939 
L 372.654405 233.319332 
L 372.670327 233.246939 
L 372.718094 232.776382 
L 373.19576 223.437632 
L 373.211683 223.491927 
L 373.243527 223.383337 
L 373.291294 223.310944 
L 373.68935 217.664258 
L 374.135172 214.913309 
L 374.198861 214.859014 
L 374.40585 213.700719 
L 374.437694 213.755014 
L 374.453617 213.700719 
L 374.453617 213.700719 
L 374.501383 213.610227 
L 374.517306 213.646424 
L 374.517306 213.646424 
L 374.740217 215.763931 
L 375.042739 219.582683 
L 375.201962 222.550813 
L 376.173218 246.096768 
L 376.380207 247.544637 
L 376.937485 253.155126 
L 377.04894 253.625683 
L 377.176318 254.820174 
L 377.224085 254.331518 
L 377.351463 252.811257 
L 377.399229 253.046535 
L 377.431074 253.173224 
L 377.431074 253.173224 
L 377.431074 253.173224 
L 377.701752 249.336373 
L 377.860974 246.060572 
L 377.892818 246.657817 
L 377.97243 247.164571 
L 378.004274 246.965489 
L 378.020196 246.893096 
L 378.211263 243.255327 
L 378.386408 238.839329 
L 378.959608 218.641569 
L 379.166597 210.967868 
L 379.357664 209.592393 
L 379.676108 216.741242 
L 380.121931 226.31527 
L 380.647364 230.242613 
L 380.870276 228.794744 
L 381.013576 226.31527 
L 381.172798 223.745304 
L 381.204642 224.143468 
L 381.252409 224.722615 
L 381.284254 224.396845 
L 381.284254 224.396845 
L 381.363865 223.510026 
L 381.411631 223.962485 
L 381.873376 235.002479 
L 382.144054 236.739921 
L 382.860554 241.988443 
L 382.924243 241.318804 
L 382.97201 241.210214 
L 382.987932 241.318804 
L 382.987932 241.318804 
L 383.194921 242.223721 
L 383.338221 242.802868 
L 383.354143 242.78477 
L 383.592977 244.033556 
L 383.608899 244.033556 
L 383.752199 244.395523 
L 383.784044 244.467917 
L 384.054722 247.037883 
L 384.277633 250.784241 
L 384.293555 250.766143 
L 384.293555 250.766143 
L 384.293555 250.766143 
L 384.3254 251.200504 
L 384.612 256.829091 
L 384.643844 256.829091 
L 384.787144 252.684568 
L 384.818989 252.974142 
L 384.834911 252.811257 
L 384.850833 252.956044 
L 384.850833 252.956044 
L 384.930444 254.078141 
L 384.994133 253.535191 
L 385.153356 252.087323 
L 385.169278 252.141618 
L 385.217044 252.55788 
L 385.3285 254.403912 
L 385.376267 254.241027 
L 385.487722 253.716174 
L 385.535489 254.060043 
L 385.774323 256.829091 
L 385.790245 256.467124 
L 385.949467 251.272897 
L 385.997234 250.47657 
L 386.029078 250.91093 
L 386.029078 250.91093 
L 386.331601 256.829091 
L 386.522667 252.322601 
L 386.650045 251.924438 
L 386.68189 252.014929 
L 386.729656 252.3407 
L 386.793345 252.051126 
L 387.064023 250.766143 
L 387.079945 250.929028 
L 387.11179 251.110012 
L 387.191401 250.929028 
L 387.223245 250.856635 
L 387.239168 250.892832 
L 387.318779 251.761552 
L 387.366546 251.508176 
L 387.764601 248.775324 
L 387.796446 248.811521 
L 387.82829 248.775324 
L 387.82829 248.775324 
L 388.019357 248.232374 
L 388.035279 248.286669 
L 388.130813 248.250472 
L 388.146735 248.232374 
L 388.178579 248.268571 
L 388.433335 249.969816 
L 388.449257 249.933619 
L 388.465179 249.951717 
L 388.512946 249.879324 
L 388.528868 249.825029 
L 388.544791 249.861226 
L 388.544791 249.861226 
L 388.688091 251.01952 
L 388.815469 251.453881 
L 388.831391 251.399585 
L 389.340902 249.0468 
L 389.643425 250.856635 
L 389.707113 251.164307 
L 389.770802 251.073815 
L 389.882258 251.490077 
L 390.073325 252.829355 
L 390.152936 253.155126 
L 390.200703 253.082732 
L 390.264391 252.55788 
L 390.344003 251.924438 
L 390.391769 252.250208 
L 390.694292 253.806666 
L 390.710214 253.842863 
L 390.742058 253.806666 
L 390.742058 253.806666 
L 391.012736 253.118929 
L 391.028659 253.155126 
L 391.347103 254.114338 
L 391.39487 254.023846 
L 391.601859 253.698076 
L 391.713314 253.788568 
L 391.792926 254.349617 
L 391.904381 256.195649 
L 392.015837 256.829091 
L 392.143215 256.829091 
L 392.190981 255.978468 
L 392.238748 256.829091 
L 400.916364 256.829091 
L 400.916364 256.829091 
" style="fill:none;stroke:#1f77b4;stroke-linecap:square;stroke-width:1.5;"/>
   </g>
   <g id="patch_8">
    <path d="M 27.88 261.56 
L 27.88 157.48 
" style="fill:none;stroke:#000000;stroke-linecap:square;stroke-linejoin:miter;stroke-width:0.8;"/>
   </g>
   <g id="patch_9">
    <path d="M 418.68 261.56 
L 418.68 157.48 
" style="fill:none;stroke:#000000;stroke-linecap:square;stroke-linejoin:miter;stroke-width:0.8;"/>
   </g>
   <g id="patch_10">
    <path d="M 27.88 261.56 
L 418.68 261.56 
" style="fill:none;stroke:#000000;stroke-linecap:square;stroke-linejoin:miter;stroke-width:0.8;"/>
   </g>
   <g id="patch_11">
    <path d="M 27.88 157.48 
L 418.68 157.48 
" style="fill:none;stroke:#000000;stroke-linecap:square;stroke-linejoin:miter;stroke-width:0.8;"/>
   </g>
   <g id="text_2">
    <!-- Speed -->
    <defs>
     <path d="M 12.9375 52.59375 
L 14.15625 46.296875 
Q 20.84375 54.5 28.03125 54.5 
Q 35.359375 54.5 40.046875 48 
Q 45.015625 41.015625 45.015625 29.9375 
Q 45.015625 19.578125 41.015625 12.640625 
Q 36.28125 4.4375 27.9375 4.4375 
Q 20.703125 4.4375 14.84375 11.03125 
L 14.84375 -9.28125 
L 7.421875 -9.28125 
L 7.421875 52.59375 
z
M 26.3125 47.40625 
Q 21.4375 47.40625 18.015625 42.53125 
Q 14.546875 37.5 14.546875 29.828125 
Q 14.546875 22.859375 16.9375 18.21875 
Q 20.21875 11.625 26.421875 11.625 
Q 31.34375 11.625 34.234375 16.3125 
Q 37.109375 21.390625 37.109375 29.828125 
Q 37.109375 37.546875 34.421875 42.234375 
Q 31.453125 47.40625 26.3125 47.40625 
" id="TakaoGothic-70"/>
     <path d="M 35.15625 75.09375 
L 42.578125 75.09375 
L 42.578125 5.078125 
L 37.15625 5.078125 
L 35.25 11.28125 
Q 30.171875 3.078125 21.96875 3.078125 
Q 14.40625 3.078125 9.765625 10.40625 
Q 5.078125 17.53125 5.078125 29.390625 
Q 5.078125 39.109375 8.59375 45.796875 
Q 13.234375 54.5 21.875 54.5 
Q 29.046875 54.5 35.15625 47.21875 
z
M 23.6875 47.40625 
Q 18.5 47.40625 15.484375 41.796875 
Q 12.890625 36.71875 12.890625 29.296875 
Q 12.890625 21.234375 15.28125 16.265625 
Q 18.109375 10.15625 23.6875 10.15625 
Q 28.71875 10.15625 32.03125 15.1875 
Q 35.453125 20.21875 35.453125 29.296875 
Q 35.453125 36.671875 32.859375 41.40625 
Q 29.6875 47.40625 23.6875 47.40625 
" id="TakaoGothic-64"/>
    </defs>
    <g transform="translate(208.28 151.48)scale(0.12 -0.12)">
     <use xlink:href="#TakaoGothic-53"/>
     <use x="50" xlink:href="#TakaoGothic-70"/>
     <use x="100" xlink:href="#TakaoGothic-65"/>
     <use x="150" xlink:href="#TakaoGothic-65"/>
     <use x="200" xlink:href="#TakaoGothic-64"/>
    </g>
   </g>
  </g>
 </g>
 <defs>
  <clipPath id="p9bc108413c">
   <rect height="104.08" width="390.8" x="27.88" y="25.44"/>
  </clipPath>
  <clipPath id="p8ff12966fa">
   <rect height="104.08" width="390.8" x="27.88" y="157.48"/>
  </clipPath>
 </defs>
</svg>
