<svg height="288pt" stroke-linejoin="round" viewBox="0 0 432 288" width="432pt" xmlns="http://www.w3.org/2000/svg" xmlns:xlink="http://www.w3.org/1999/xlink"><defs stroke-linejoin="round"><clipPath id="a" stroke-linejoin="round"><path d="m27.88 25.44h390.8v104.08h-390.8z"/></clipPath><clipPath id="b" stroke-linejoin="round"><path d="m27.88 157.48h390.8v104.08h-390.8z"/></clipPath><path id="c" d="m0 0v3.5" stroke="#000" stroke-linejoin="round" stroke-width=".8"/><path id="d" d="m0 0h-3.5" stroke="#000" stroke-linejoin="round" stroke-width=".8"/><path id="e" d="m12.984375 25.203125q.59375-14.796875 12.796875-14.796875 4.390625 0 7.328125 2.1875 4.09375 3.171875 4.09375 8.890625 0 6.15625-5.125 10.84375-3.515625 3.125-12.0625 8.046875-13.515625 7.96875-13.515625 19 0 6.984375 4.390625 11.8125 5.328125 5.90625 14.203125 5.90625 16.5625 0 18.796875-19.921875h-8.203125q-.328125 4.59375-1.890625 7.328125-3.125 5.515625-8.703125 5.515625-5.75 0-8.59375-3.90625-2-2.78125-2-6.09375 0-7.921875 12.890625-15.4375 7.96875-4.640625 12.203125-8.890625 5.71875-5.5625 5.71875-14.109375 0-8.046875-5.125-12.984375-5.46875-5.515625-14.15625-5.515625-10.890625 0-16.953125 8-4.1875 5.578125-4.484375 14.125z" stroke-linejoin="round"/><path id="f" d="m44 19.828125q-4.34375-16.703125-18.90625-16.703125-9.03125 0-14.296875 7.515625-4.796875 6.890625-4.796875 18.171875 0 10.78125 4.5 17.671875 5.265625 8.015625 14.5 8.015625 18.015625 0 19.1875-27.203125h-30.65625q.578125-17.484375 11.671875-17.484375 8.78125 0 10.984375 10.015625zm-7.8125 13.859375q-1.609375 14.109375-11.1875 14.109375-9.234375 0-11.1875-14.109375z" stroke-linejoin="round"/></defs><g stroke-linejoin="round"><path d="m0 288h432v-288h-432z" fill="#fff"/><g><path d="m27.88 129.52h390.8v-104.08h-390.8z" fill="#fff" stroke-linejoin="round"/><g stroke="#000" stroke-linejoin="round" stroke-width=".8"><use x="45.643636" xlink:href="#c" y="129.52"/><use x="125.254788" xlink:href="#c" y="129.52"/><use x="204.865941" xlink:href="#c" y="129.52"/><use x="284.477093" xlink:href="#c" y="129.52"/><use x="364.088245" xlink:href="#c" y="129.52"/></g><g stroke="#000" stroke-linejoin="round" stroke-width=".8"><use x="27.88" xlink:href="#d" y="125.698421"/><use x="27.88" xlink:href="#d" y="101.768683"/><use x="27.88" xlink:href="#d" y="77.838946"/><use x="27.88" xlink:href="#d" y="53.909209"/><use x="27.88" xlink:href="#d" y="29.979471"/></g><g fill="none" stroke-linecap="square"><path clip-path="url(#a)" d="m45.643636 77.408211h.541356l.175145-.574314h.015922l.175144-.574314h.191067l.063689-1.292205.1433-10.768382.254756-19.813823.031844 1.579363.206989 7.896813.079612 1.292206.493589 21.536764h.191066l.191067-2.584412h.031845l.095533 3.445882.254756 10.337647.015922-.143579h.031844l.111456-2.010098.222911-8.18397h.015923l.127377-.143578h.191067l.127378.143578h1.305623l.1433-.287157h.031844l.127378-.143578h.111456l.191067.717892h.2866l.127378-.143578h.079611l.1433.287156h.047767l.127377-.143578h1.114556l.159223-.430735h.063689l.175144.574313h.015922l.111456.143579.127378-.143579h.127378l.1433-.287156h.318444l.143301.287156h.477666l.127378-.143578h.1433l.127378-.143578h2.738624l.127378.143578h.1433l.127378-.430735.015922.143578.127378.143579h.1433l.159222.430735h.015922l.1433 1.148627.079612-.143578h.047766l.1433-.287157h.238834l.318444-11.055539.238834-19.383087.063689 2.871569.079611 5.599558.047767-2.297255.127377-18.23446.079612 1.579363h.015922l.1433 3.876617.541356 35.033136.222911 1.148627.127378-.143578h.1433l.127378.717892.047766-.143578h.047767l.175145-.574314h.031844l.175145-.574314h.191066l.1433.287157h.079612l.238833 1.148628h.095533l.302523-2.153677.015922.143579.175145.574313h.047766l.175145.574314h.111455l.1433-.287157h.143301l.127377.143579h.031845l.127378.143578h10.77935l.1433-.287157h.2866l.254756 1.292206h.015922l.127378 2.010098.175144 1.866519.159223 2.153677.222911 4.307353.2866 3.302303h.015922l.334367 4.020196.2866 3.589461.206989-2.871569.254756-8.327548.302522-7.3225.159222-1.866519h.015923l.334367-2.010098h.238833l.063689-.143579.047767.143579h.334366l.095534.287156.031844-.143578h.159223l.127377-.143578h.398056l.127378.430735h.127378l.1433-.287157h.159222l.127378-.143578h.1433l.127378.143578h.047767l.079611-.143578.031844.143578h.2866l.063689-.287157.063689.143579.1433.287156h.015923l.127377.430736.015923-.143579.206989-.86147h.015922l.159222.430735h.095534l.191066-.717892h.079612l.366211 3.158725.047767-.430735.334366-2.440833.031845.143578h.206989l.127378.143579h.047766l.127378.143578h.605045l.1433-.287157h.111456l.047766.430735.063689-.143578.127378-.143578h.350289l.127378.143578h.477667l.127378-.143578h.445822l.1433.287156h6.098215l.127377-.143578h.079612l.127377-.143578h.1433l.127378.143578h.238834l.1433-.287157h.031844l.1433.287157h.493589l.143301.287157h.127377l.127378-.143579h.175145l.127378-.143578h.127377l.127378-.143578h.159223l.1433.287156h.031844l.127378-.143578h.1433l.127378-.143578h.206989l.127378.143578h.589122l.127378-.143578h.254756l.127378-.143579.127378.574314h.127377l.127378.143578.175145-.574313h6.321125l.127378-.143579h.302522l.095534-.143578.015922.143578h.031844l.589123 4.307353h.095533l.573201-4.163774h.445822l.127378.143578h.206989l.127378-.143578h.015922l.1433-.287157h.047767l.159222.430735h.031845l.127377.143578h.382134l.1433.287157h.031844l.111456.143579.191067-.717892h.015922l.127378-.143579h.063689l.1433.287157h.620967l.127378.143578h.047766l.143301-.287156h.461744l.159223.430735h.063688l.254756 1.292206h.031845l.525433-3.733039.382134 2.440833h.015922l.175144-.574314h8.645772l.047766-.143578.015923.143578.1433.287157h.159222l.127378-.143578h7.658593l.127377-.143579h.334367l.222911-1.005049h.015923l.668733 20.531715.127378-2.010098.2866-10.624803.254756-8.183971.222911-1.005049h.015923l.334366 2.010098h.047767l.1433.287157h.031845l.1433.287157h.191066l.111456-.430735.015922.143578.127378.143579h.047767l.1433.287156h.031844l.175145.574314h.047767l.206989-.86147h.063688l.127378-.143579h.206989l.111456-.143578.127378.143578h.015922l.127378.143579h.079611l.1433-.287157h.047767l.1433-.287157h.095533l.191067.717892h.541356l.127378.143578h.063689l.079611.143579.031844-.143579h.047767l.127378-.143578h.031844l.127378.143578h.047767l.1433-.287156h.302522l.127378.143578h.509511l.1433.287157h10.540517l.206989.86147h.015922l.605045-4.881666.015922.143578.493589 4.59451.063689-.430735.111456-1.148628.031844.287157.175145.574314h.111456l.127377-.143579h.079612l.477666 3.73304.015923-.143579.318444-3.876617h.206989l.1433-.574314.015923.143578h.063688l.191067.717892h.095534l.127377-.143578h.557279l.127377.143578h.238834l.1433-.287156h.350289l.175145.574313h.063688l.254756 1.292206h.015922l.127378.143579h.031845l.111455.143578.127378-.143578h.031845l.1433-.287157h.031844l.127378 1.005049.015922-.287157.191067-2.440833h.047767l.127377-.143579h.095534l.636889 5.599559.079611-.143579.175145-2.440833.111455-.430735h.031845l.031844.143578.031845-.143578.175144-.574314h.031845l.063689-.143578.015922.143578.127378.143579h.159222l.206989-.861471h.015922l.1433-.287157h.047767l.334367 2.297255.4299-6.461029.015922.143578.461745 3.158726h.620967l.1433.287156h.111456l.191066.717893h.159223l.127378.143578h.175144l.127378.143578h.366211l.127378-.143578h5.970837l.127377-.143578h5.333948l.127377-.143579h.382134l.222911-1.005049h.079611l.127378.430735h.063689l.175145-.574313h.015922l.1433-.287157h.270678l.1433.287157h.191067l.206989-.861471h.031844l.222911-1.005049h.175145l.206989.861471h.175144l.1433-.287157h.063689l.1433-.287157h.031845l.159222.430735h.015922l.222912 1.005049h.031844l.191067.717892h.095533l.127378-.143578h2.053968l.127378-.143578h.175144l.127378-.143579h.047767l.127378.143579h.111455l.127378.143578h1.241934l.127378.143578h.1433l.1433-.287156h.493589l.159223-.430736h.079611l.238833 1.148628h.047767l.191067.717892h.095533l.350289-2.153676h.079611l.127378-1.292206.047767.430735.191066 1.722941h.031845l.111456-.574314.015922.143579.127378.430735h.111455l.1433.574314.015923-.143579.111455-.430735h1.019023l.127378-.143578h5.652392l.1433-.287157h.047766l.127378.143578h.796112l.318444 3.589461.2866 8.327548.254756 3.876618.031845-.287157.159222-4.738088.525433-15.219313h.031845l.1433-.574314.015922.143579.127378 2.010098.175145 2.72799h.015922l.1433.430735.127378-.143578h.015922l.1433.287156h.191067l.127378.143579h.222911l.159222-.430735h.477667l.127378-.143579h.541356l.1433.574314.127378-.430735h.015922l.095533-.143579.015923.143579h.079611l.127378.143578h.079611l.127378.143578h.159222l.1433-.287156h.127378l.159222.430735h1.831057l.1433 6.461029.318444 11.342696.159223 1.866519.079611-1.722941.8598-27.279901h.079611l.111456 2.010098.270678 6.317451h.015922l.206989.86147h.047767l.127378-.143578h.541355l.175145-.574314h.031844l.286601-2.297254.047766.287156.079611 1.722942.302523 5.45598.1433-2.297255.175144-1.435784h.206989l.095534-1.005049.047766.287156h.127378l.127378.143579h7.690437l.35029-4.163774.366211-8.471127.111455-5.599559.175145-3.733039.111456-.287157h.668733l.031845-.717892.525433-22.685391.063689 1.579363.206989 7.896813h.047767l.063689 4.163774.366211 30.007891.175145 1.435784h.015922l.159222.430735h.047767l.1433-.287156h.015922l.1433.287156h.318445l.127378-.143578h.063689l.1433.287157h.063689l.175144-.574314h.079611l.191067.717892h.047767l.191067-.717892h.350289l.159222-.430735h.079611l.206989.86147h13.517974l.127378-.143578h.047766l.191067.717892h.222911l.206989-2.871568.206989-2.871569.111456-1.866519.175144-5.886716.095534-3.015147.222911-7.178921.095533-.430735.015923.143578.063689 2.584412.254755 12.491323h.047767l.047767 1.435784.238833 9.476176.175145 1.435784.302522-3.015147.1433-2.440833h.175145l.1433.287157h.493589l.127378.143579h.1433l.127378.143578h.254755l.095534-.143578.015922.143578h.015922l.127378-.143578h.827956l.127378-.143579h.254755l.127378.143579h.222912l.127377.143578h.015923l.127377-.143578.095534.143578.015922-.143578h.047767l.238833 1.435784.015922-.143579.159223-.430735h.1433l.1433-.287157h.015922l.095533.861471.063689-.430736.127378-.143578h.047767l.1433.861471h.015922l.047767.143578.015922-.143578.254756-2.153677.031844.287157.1433.717892.175145.574314h.668734l.159222-.430735h16.176986l.1433.717892.031845-.143579h.111455l.191067-.717892h.111456l.175144-.574313h.015922l.238834 1.148627h.031844l.111456-.287157.015922.143578h.031845l.047766.143579.047767-.143579.031844-.143578.015923.143578.063689.287157.047766-.143578h.047767l.127378-.430735.015922.143578h.047767l.191066-1.722941.318445 2.297255.031844-.143579.111456-.574313.047767.143578h.047766l.111456-.287157.015922.143579.127378.430735h.111456l.127378-.143579h.015922l.127378-.143578h.382133l.127378.143578h.382134l.270678-3.302303.222911-3.302304.079611-1.579363.1433-1.148627h.015922l.079611 1.722941.270678 6.173872.2866 1.579363h.206989l.127378-.430735.015922.143578.127378.143578h.063689l.175145-.574313h.015922l.127378-.287157.1433.717892h.015922l.1433.287157h.015922l.111456.143578.175145-.574313h.015922l.175144-.574314h.047767l.2866 1.579363.206989-.861471h.015922l.159223-.430735h.382133l.1433.287157h.159223l.127378-.143579h.159222l.111455-.287157h.175145l.127378-.143578h.270678l.159222.430735h.111456l.175144-.574313h.095534l.270677 1.579362.222912-1.005049h.191066l.159223.430735h.191067l.127377.143579h.031845l.127378-.143579h.031844l.127378-.143578h.127378l.063689.143578.015922-.143578.111456-.287157.015922.143579h.047767l.1433.287156h.063689l.127377.143579h.047767l.1433-.287157h.302522l.143301.287157h.127377l.175145-.574314h.063689l.111455.287157h.891645l.1433-.287157h.063689l.191067.717892h.015922l.063689.143579.047767-.143579.127378-.430735h.063689l.127378.143578h.095533l.127378-.143578h.191067l.127377-.143578h.175145l.063689.143578.015922-.143578.127378-.143579h.095533l.1433.287157h.159223l.222911 1.005049h.015922l.095534.143578.159222-1.005049.175144-.574313h.047767l.127378-.143579h.047767l.111455-.287156.015922.143578h.031845l.127378.430735h.015922l.1433.287157.127378-.143578h.095533l.127378.143578h.079611l.127378-.143578h.127378l.175145.574313h.366211l.127378.143579h.015922l.334367 2.010098h.063689l.175144-.574314h.079611l.127378.143578h.095534l.127377-.143578h.015923l.1433-.287157h.159222l.222911-1.005049h.079611l.127378.143579h.031845l.1433-.287157h.031844l.127378-.143579h.206989l.1433-.287157h8.964216l.159222-.430735h.191067l.175144-.717892.127378.143579h.111456l.1433.287156h.063689l.1433.287157h.159222l.222912-1.005049h.015922l.159222-.430735h.015922l.1433-.287157h.047767l.318445 2.010098.111455-.143578.127378.143578h.175145l.191066.717892h.095534l.095533.143579.015922-.143579h.111456l.1433-.86147.047767.143578h.222911l.127378.143578h.015922l.127378.143579h.047767l.1433-.287157h.015922l.159222-.430735h.047767l.318445-3.158726.095533.430736.111456.430735.031844-.143578.031844-.143579.079612.143579.127377.143578.286601-1.579363h.079611l.127378.143579h.015922l.589122 4.307352h.031845l.461744-3.158725h.015923l.4299 2.871569h.031844l.127378.143578h1.034945l.175145-.574314h4.71298l.127378-.143578h3.152601l.1433.287157h2.101735l.302522 1.722941h.015923l.063688.287157.047767-.287157.1433-.287157h.1433l.398056-2.584412h.127378l.159222-.430735h.111456l.350289 2.153676h.079611l.159222-.430735h.238834l.127378.143579h.063689l.1433.287156h.398055l.127378-.143578h.254756l.191067-.717892h.047766l.206989.86147.175145-.574313h.111456l.1433.287157h.1433l.1433.287156h.063689l.111455.287157h.015922l.127378-1.148627.031845.143578.159222.430736h.095533l.127378.143578h.1433l.015923.143578.095533-.143578.127378-.143578h.095533l.206989.86147h.079611l.159223-.430735h.270678l.175144-.574314h.095534l.1433.287157h.398055l.159223-.430735h.047766l.159223.430735h.1433l.127378.143578h.095533l.175144-.574313h.031845l.063689-.143579.047767.143579h.031844l.222911 1.005049h.015922l.206989-.861471h.031845l.079611-.287157.031845.287157h.079611l.031844.143579.015922-.143579.127378-.717892.1433.287157h.111456l.254756 1.292206h.015922l.079611-.143579.031844.143579.143301.287157h.413978l.127377-.143579h.015923l.175144-.574314h.015922l.127378-.143578h.191067l.159222.430735h.063689l.1433.287157h.4299l.35029-3.876617.191066-10.624804.2866-9.763333.063689-.143578.015923.143578.254755 9.045441.254756 13.927107.238833 1.148628.127378-.143579.079611.143579.031845-.143579h.1433l.1433-.287157h.4299l.127378.143579h.461745l.127378-.143579h.159222l.127378-.143578h.063689l.127378-.143578h.015922l.127378-.143579h.971256l.159222.430735h.1433l.127378-.143578h.159222l.127378-.143578h.780189l.095534.143578.015922-.143578h.015922l.127378-.143579h.350289l.1433.287157h.063689l.1433-.287157h.191067l.1433.287157h.493589l.1433-.287157h.047767l.111456-.143578.1433.287157h.270678l.127377.287156.1433-.287156h.079612l.047766-.287157.079611.143578h.063689l.095534.287157.015922-.143578.063689-.143579.047767.143579h.206989l.127377.143578h.095534l.031844-.287157.095534.143579h.175144l.127378.143578h.445822l.143301-.287157h.095533l.127378.143579h.222911l.127378.143578h.222911l.1433.287157h.047767l.159222-.430735h.015922l.127378.143578h.254756l.413978-4.450931.175144.143578.429901 3.589461.063689-.143578h.079611l.095533-.287157.031845.143578h.063688l.159223.430735h.191067l.159222.430736h.079611l.127378.143578h.031844l.127378-.143578h.079611l.159223-.430736h.509511l.2866 1.579363h.079611l.1433-.287157h.047767l.159222-.574314.047767.717893.111456-.287157h.079611l.159222-.430736h.175145l.159222-.430735h2.133579l.127378-.143578h1.544456l.159222.430735h.366212l.1433.717892h.031844l.095534-.143578.015922.143578h.1433l.206989-.86147h.063689l.063689-.143579.015922.143579.127378.143578h.413978l.111455.143578.175145-.574313h.191067l.1433.287157h1.210089l.127378-.143579h.015922l.127378.143579h.015922l.1433.287156h.063689l.1433-.287156h.254756l.127378-.143579h.063689l.159222.430735h.079611l.127378.143579h.031845l.175144.574314h.127378l.191067-.717893h.015922l.159222-.430735h.015923l.1433-.287157h.159222l.222911 1.005049h.127378l.127378-.143578h.063689l.159222-.430735h.079611l.127378.143578h.1433l.302523-2.297255.015922.287157.175144 2.297255.159223-.287157h.222911l.127378.143578h.159222l.127378-.143578h.366211l.127378.143578h.111456l.127377.143579h.254756l.079611.143578.015923-.143578.222911-1.005049h.1433l.111455.86147.031845-.143578h.015922l.127378.287157.175144-.574314h.063689l.222912-1.005049h.031844l.382134 2.440833h.063689l.127377-.143578h.222912l.206989-.861471h.127377l.143301-.287156h.015922l.1433.287156h.206989l.079611-1.148627.541356-23.403283.175144-1.005049.015923.143578.079611 3.015147.366211 21.967499h.047767l.127378-.143578h.1433l.175144.574313h.015922l.1433.430736.127378-.143579h.047767l.159222-.430735h.334367l.1433-.287157h.047767l.1433-.287157h.015922l.031845-.143578.079611.143578h.031844l.127378.143579h.015922l.1433.287157h.063689l.254756 1.292205h.111456l.1433-.287156h.031844l.350289-2.584412.031845.143578h.063689l.175144 1.722941.031845-.574313.127377-.574314.159223.430735h5.111036l.063689-2.871568.175144-6.604608.063689 1.579363.254756 11.917009.175144-.574313h.031845l.111455-2.010098.143301-1.579363h.015922l.063689-.143578.015922.143578.191067.717892h.318444l.127378 1.579363.350289 13.352793.1433 4.450931.111456 1.435785.015922-.287157.047767-2.153677.2866-12.778479.1433-1.722941h.015922l.557278-4.020196h.015923l.191066-.861471.1433.287157h.127378l.127378.143578h.557278l.127378-.143578h.191067l.191066 1.579363.079612-.143579h.079611l.159222-.430735h.047767l.175144-.574314h.111456l.127378-.143578h.159222l.1433.287157h.398056l.127378.143578h.222911l.127378-.143578h.079611l.159222.430735h.047767l.1433-.287157h.254756l.127378-.143578h.398055l.127378.143578h.159222l.095534.574314.063689-.143579.111455-.287157h.015923l.159222-.430735h.1433l.159222.430735h.191067l.127378-.143578h.254756l.111455.143578.1433-.287156h.127378l.127378.143578h.302522l.1433-.287157h.031845l.302522-1.722941h.031845l.589122 4.307353h.015923l.206988-.861471h.015923l.254755-1.292206h.079612l.318444-1.866519h.015922l.047767-1.148627.175145-2.584412.222911-1.005049.127378.143578.127378-2.153676.111455-.287157h.015922l.095534 1.86652.2866 6.748186.079611.717892.095533-.143579h.461745l.222911-1.005049h.015923l.1433.287157h.111455l.063689-.143578.031845.143578.206989.861471h.175144l.127378.574313h.1433l.1433-2.153676.175145-1.866519h.015922l.111456.574313.015922-.143578h.063689l.047766-1.148628.334367-15.650048.302523-28.428528.063689.143579h.445822l.1433 2.297254.398056 50.10887.175144 3.015147.079612-.287156.127377-4.020196.159223-2.72799.159222-1.005049.031844.143578.175145.574314h.159222l.079611 2.871568.270678 11.629853.1433 2.010098h.159223l.127378 3.158725.063688-.430735.206989-2.584412.127378-6.317451.063689 1.722941.079611 4.020196.079612-.430735.047766-.143578.063689.143578h.047767l.063689-1.148627.334367-13.065637.111455 3.302304.398056 25.269803.047767-.717893.175144-2.584411h.047767l.047767-1.148628.127377-14.501421.222912-11.629852.095533-3.445882.063689.287157.366211-8.18397.047767-2.584412.031844 2.297255.318445 46.088674.175145 10.194068.031844 2.297255.095533-.287157h.206989l.031845-.574314.2866-25.844116.159222-47.093723.047767 4.594509.063689 5.886716.063689-1.435785.270678-29.864312h.015922l.127378.143579h.1433l.175144 2.297254.095534 7.035343.1433 40.776273.175144 37.761125.015923-.430735.1433-15.650048.2866-61.595144.047767 5.886715.159222 29.289999.063689-6.891765.015922-.143578.111456 11.773431.127377 6.173872.031845-.574314.206989-6.31745.031844-.861471.079612.430735.222911 3.876618.031844-.861471.175145-4.738088.127378-.574313h.127377l.127378 4.163774.079611 1.148627.015923-.287157.191066-7.896813.047767.430735.222911 4.307353.015923-.143578.079611-.574314.159222 7.178921.047767-1.435784.063689-2.871569.047766 1.722941.159223 4.020196h.079611l.127378-.143578h.095533l.031845-.143578.111455 5.599558.079611-2.153676.175145-8.327549.063689-.430735.015922.430735.095533 6.461029.079611-1.866519.111456-8.471127.111456.574313.127378.143579h.477666l.127378-.143579h9.696639" stroke="#1f77b4" stroke-linejoin="round" stroke-width="1.5"/><path d="m27.88 129.52v-104.08" stroke="#000" stroke-linejoin="miter" stroke-width=".8"/><path d="m418.68 129.52v-104.08" stroke="#000" stroke-linejoin="miter" stroke-width=".8"/><path d="m27.88 129.52h390.8" stroke="#000" stroke-linejoin="miter" stroke-width=".8"/><path d="m27.88 25.44h390.8" stroke="#000" stroke-linejoin="miter" stroke-width=".8"/></g><g stroke-linejoin="round" transform="matrix(.12 0 0 -.12 190.28 19.44)"><use xlink:href="#e"/><path d="m19.4375 65.484375h7.609375v-12.890625h11.765625v-7.1875h-11.765625v-30.265625q0-3.421875 3.8125-3.421875 4.640625 0 8.640625.78125v-7.46875q-5.90625-.828125-10.15625-.828125-9.90625 0-9.90625 9.90625v31.296875h-9.421875v7.1875h9.421875z" transform="translate(50)"/><use x="100" xlink:href="#f"/><use x="150" xlink:href="#f"/><path d="m22.21875 52.59375v-10.015625q8.640625 9.125 18.5 11.921875v-8.703125q-11.328125-2.734375-18.5-12.296875v-28.421875h-7.625v47.515625z" transform="translate(200)"/><path d="m20.015625 75.09375h9.96875l17.921875-70.015625h-8.703125l-5.3125 22.859375h-17.78125l-5.3125-22.859375h-8.703125zm4.984375-7.078125-7.328125-33.109375h14.609375z" transform="translate(300)"/><path d="m13.234375 52.59375 1.125-6.109375q7.515625 8.015625 14.84375 8.015625 8.15625 0 11.90625-7.1875 2.109375-4.046875 2.109375-9.8125v-32.421875h-7.421875v30.21875q0 12.109375-7.765625 12.109375-5.28125 0-9.1875-3.796875-4.09375-4.109375-4.09375-9.421875v-29.109375h-7.421875v47.515625z" transform="translate(350)"/><path d="m42.78125 52.59375v-42q0-19.875-18.265625-19.875-15.625 0-18.3125 15.390625h7.8125q1.3125-8.703125 10.6875-8.703125 10.890625 0 10.890625 12.609375v8.09375q-5.21875-6.09375-12.59375-6.09375-7.953125 0-13.234375 6.296875-4.78125 5.859375-4.78125 14.59375 0 6.359375 2.484375 11.1875 5.28125 10.40625 15.921875 10.40625 7.421875 0 12.5-6.015625l1.703125 4.109375zm-18.703125-4.984375q-5.515625 0-8.796875-4.890625-2.6875-3.90625-2.6875-9.703125 0-6.0625 2.984375-10.109375 3.21875-4.40625 8.59375-4.40625 4.4375 0 7.515625 3.421875 4.109375 4.390625 4.109375 10.984375 0 6.546875-3.515625 10.796875-3.421875 3.90625-8.203125 3.90625" transform="translate(400)"/><path d="m28.90625 16.015625q0-4.296875 4.109375-4.296875 3.359375 0 7.359375.78125v-7.46875q-5.90625-.828125-8.6875-.828125-10.59375 0-10.59375 10.390625v60.5h7.8125z" transform="translate(450)"/><use x="500" xlink:href="#f"/></g></g><g><path d="m27.88 261.56h390.8v-104.08h-390.8z" fill="#fff" stroke-linejoin="round"/><g stroke="#000" stroke-linejoin="round" stroke-width=".8"><use x="45.643636" xlink:href="#c" y="261.56"/><use x="125.254788" xlink:href="#c" y="261.56"/><use x="204.865941" xlink:href="#c" y="261.56"/><use x="284.477093" xlink:href="#c" y="261.56"/><use x="364.088245" xlink:href="#c" y="261.56"/></g><g stroke="#000" stroke-linejoin="round" stroke-width=".8"><use x="27.88" xlink:href="#d" y="256.829091"/><use x="27.88" xlink:href="#d" y="220.632388"/><use x="27.88" xlink:href="#d" y="184.435685"/></g><g fill="none" stroke-linecap="square"><path clip-path="url(#b)" d="m45.643636 256.829091h.318445l.2866-8.053767.1433.289574.1433 2.569966.047767-.126688.1433.180983.015922-.072393.222911-4.922752.35029-10.877109.684655-16.994352.111456.615344.382134 5.646685.780189 31.744509h1.512612l.1433-5.519997.461745-24.070808.668733-29.952772.605045-13.139403.031844.180984.015923-.036197.063689-.814426.063689.434361.302522-1.21259.095533.742032.015923-.289573.015922-.633442.031844.561048.015922.289574.047767-.090492.031845-.923016.031844.923016.031844.162885.191067-1.809835.175145 1.990819.047766.669639.92349 29.373625.843878 43.164568h2.913768l.159223-7.112652.4299-12.63265.222911-2.316589.015922.199082.079611.796328.350289 9.537831.063689.162885.047767-.144787h.063689l.334367 2.895737.222911-.723934.063689.090491.127378-.054295.334367-2.461376.111455-3.040523.509512-14.098615.318444-9.157766.350289-8.506226.318445-3.420588.095533-.361967.015923.090492.493589 5.031341.015922-.018098.191067 1.683147.206989 3.131015.1433 1.719343.206989 2.117507.047766.162885.222912 2.569966.031844.018099.302522 5.628587.477667 13.772845.398056 12.542158.191067 1.900327h9.28266l.191067-7.528914.366211-10.641831.302523-3.438687.111455-.452459.015923.271476.063688.54295.573201 7.510816.398056 8.868192.127377 1.21259.047767-.307672.222911-1.465967.1433-1.990818.191067-6.171538.031845.10859.238833 1.176393.015922-.162885.095534-2.660458.350289-11.727732.302522-4.198817.095533-.814426.047767.271475.111456.760131.063689-.470557h.015922l.254756-2.207999.382133-1.737442.079611.054295.1433.778229.079612-.32577.812033-12.017305.063689-.579148 1.034945-10.605634.015922.036197.175145-.977311.015922.036197.111456-.542951.015922.018099.047767-.307672.2866-2.207999.191067 1.013507.334366 1.64695.015923-.10859.063689-.343868.047766.072393.047767.579147.047767-.579147.047766-.723934.063689 1.303081.063689-.21718.063689.271475.031845-.253377.047766-.307672.015923.524853.047766-.325771.175145-2.117507.015922.036197.047767-.542951.222911-3.891145.238833-3.764457.015923.072393.175144-2.732851.095533-1.32118.222912-1.737442.127378-.615343.047766.307671.063689.380066.254756 3.51108.079611.796328.2866 3.655867.031845.072393.222911 2.678556.2866 7.637504 1.241934 52.81099.302522 4.108326h5.254336l.1433-5.646686 1.767368-67.923113.095533-2.334687.254756-4.50649.461745-3.764457.047766.144787.047767-.361967.063689.090491.382134 3.764458.1433 1.266884.541356 15.510287.987178 29.952772.175144 5.013244.302523 7.094553.318444 7.673701.254756 5.248522.334367 5.031342.350289 3.746359h3.773569l.175144-4.054031.1433.597246.031845-.126689.302522-5.429505.191067-8.831996.525433-20.939792.620967-18.369827.015923.307672.318444-3.891146.015922.072394.222912-2.895737.063689-.941114.318444-3.167211.254756-1.628852.031844.180983.031845-.036196.111455-.723934.015923.144786.079611-.307672.031844.235279.175145.868721.1433.995409.015922-.036196.238834 1.465966.015922-.253377.111455.742033.015923-.108591.015922-.018098.079611.452459.031844-.361967.015923.072393.015922-.018098.334367-2.533769.1433-1.375475.031844-.144787.334367-3.456785.015922.018098.015923-.036196.238833-2.244196.015922.090492.159223-1.773639.334366-3.474883.015923.21718.015922-.10859.270678-2.551868.063689-.778229.015922-.162885.015922.199082.175145-1.447868.015922-.054295.238833 2.750949.334367 5.393309.461745 13.863337.015922-.235278.493589 11.926813.095534 1.574557.398055 7.510816.175145 5.339014 1.162323 37.499784h7.21277l.1433-4.560785.636889-18.33363.015923.036197.270678 1.882228.063689.416263.254755 4.850358.477667 10.551339.270678 1.827933.175145 1.936524.111455 1.393573h6.225592l.127378-3.40249.159222-3.655867.668734-24.668053.063689-.542951.254756-1.484065.015922.036197.015922.036197.238834-2.660458.111455-1.248786.111456-2.135606.700578-20.957891.413978-5.628587.652811-7.727996.445823-6.062948.015922.036197.031845-.180984.159222-1.502163.987178-7.963275.047767-.018098.175144-.579147.095534-.398164.047766.018098.015923.126689.047766-.488656.079612.126689.015922.054295.063689-.380066.031844.271476.318445 5.628587 1.130478 45.101092.557278 24.993824.4299 11.510551.398056 3.746359h9.648872l.525433-14.985435.541356-17.79068.2866-4.307407.015923.271475.015922.090492.159222-1.773639.015922-.072393.015923.072393.015922.018099.079611-.796328.047767.180984.015922.32577.1433-.868721.031844-.21718.031845.126688.2866 1.32118.015922-.180984.015923.144787.175144 1.031606.015922-.10859.159223 1.158295.015922-.180984.015922-.018098.1433.579147.015922-.180983.015923.054295.206989 3.076719.525433 14.2796.350289 8.433832.175145 3.022424.127378-.54295.2866-1.809835.063689-1.194492.748345-24.740446.238833-5.556194.764267-15.799861.445822-3.40249.031845.32577.063689.561049.1433 2.189901.015922-.289574.015922.036197.015923-.018099.015922-.289573.1433 1.809835.031844-.271475.015923.180983.159222 1.900327.031844-.21718.812034-15.166419.206989-2.352785.159222-2.588065.015923.072394.191066-1.266885.031845.235279.525434 4.126424.015922-.21718.015922.10859.015922-.325771.015922.289574.063689.687737.063689-.343868.047767.361967.063689-.253377.398056-5.284719.175144-2.606162.175145-1.411672.015922-.072393.015922.018098.159222.597246.127378.615344.047767-.180984.1433-.579147.015922.126688.015923-.343868.095533.162885.191067.705835.047766-.126688.031845-.524852.111455.742032.047767-.21718.047767.10859.015922.162885.015922-.253377.015923.325771.031844-.579148.079611.361967.095534 3.330097.461744 39.400111.509512 36.196704.111455.380065h10.763428l.159222-6.985964 1.082712-39.870668.445822-9.537831.318445-5.574293.939412-11.401961.334366-1.339278.015923.10859.031844-.10859.031845-.307672.079611.054295.015922.10859.015922-.036197.159222-1.122098.015923.072394.5732-6.895472.270678-3.999736.111456-1.194491.111455.343869.111456.814426.015922-.253377.047767-.579148.015922.271476.015922.506753.031845-.416262.206989-1.64695.031844-.054295.079611-.54295.047767.21718.015922.162885.079611-.10859.015923-.072393.047766.669639.095534-.036197.031844-.21718.1433.65154.015922.162886.015923-.633443.015922.633443.031844.289573.031845-.054295.015922-.398164.015922.072394.015922.343869.095534-.072394h.015922l.111456-.380065.015922.054295.015922.10859.015922-.054295.1433-.977311.015923.054295.031844.289574.015922-.108591.127378-1.013507.015922-.018099.015923.361967.079611-.271475.095533-.506754.031845.072394.015922.090491.015922-.018098.047767-.886819.031844 1.230688.031845-1.140196.015922-.271476.015922.271476.031845.561049.015922-.271476.127378-.850622.015922.036196.191067-.687737.015922.018098.127378-.488655.015922.162885.1433-.760131.015922.018099.1433-.542951.031845.144787.015922.235279.127378-.705836.015922-.126689.047767.361967.063689-.162885.047766-.380065.031845.361967.015922.090492.047767-.542951.063689.488656.063689-.325771.031844.199082.398056 5.139932.525434 7.565111.031844.126688.127378 2.895737.031844-.072394.971256 23.129693 1.114556 39.943062.620967 13.935731.206989 1.592655h6.337048l.127378-3.366293.191067-5.158031.684656-24.487069.2866-2.606163.270678 1.158295.031844-.018099.079611-.21718.206989-1.447868.127378-3.094818.5732-17.89927.015923.10859.222911-1.339278.015922.180984.015922.10859.015923-.235279.015922.144787.015922.162885.015922-.054295.015923-.162885.159222 1.411671.5732 10.696126.238834 4.72367.063689.416262.350289 3.438687h.015922l.095533-2.714753.175145-5.194227.047766-.54295.111456.361967.191067 1.846032.015922-.036197.605045 6.406816.477667 12.886027.254755 9.827404.318445 6.859276.461745 7.836586h1.2897l.191067-15.311205.302523-13.772846.159222-2.08131.015922.126688.015922-.090492.159223.941115.031844-.054296.031844-.361967.413978-7.691799 1.385235-30.622411.222911-2.226097.191067-1.846032.382133 7.6918.2866 14.858746.875723 50.440106h7.610826l.206989-11.582945.238833-5.664784.047767.21718.4299 4.904653.668734 12.125896h.700578l.175145-8.252848.652811-13.573764.350289-7.854685.175145-2.280392.398056-3.058621.047766-.144787.175145-.904918.063689.343869.5732 5.809571.939412 8.198553.684655 15.094025.445823 6.623997h13.103996l.175144-11.926814.222911-7.040258.015923.10859.063688.235278.445823 5.067539.111456 2.352785.015922-.579147.4299-10.696126.620967 5.737178.843878 16.740975h3.534735l.191067-11.727732.302522-10.062683.270678-4.560785.031845.199082.2866 2.135605.031844.180984.047767.289574.031845-.199082.477667-11.854421.079611.633443.095533 1.085901.206989 5.15803.557278 19.944383.350289 7.166948.206989 1.610753h15.556019l.159223-7.058357.875722-42.169159.079611.307672.015923-.090492.127378 1.103999.047766.398164.270678 2.533769.015922-.180983.222912 1.411671.015922-.090492.589122-27.545691.015923.434361.031844-.434361.015922-.180983.127378.941114.015922-.21718.079611-.452459.031845.21718.015922.253377.015922-.054295.191067-1.556458.015922.018098.668734-9.230159.031845.289574h.015922l.031844-.325771.031845.325771.063689.923016.031844-.217181.1433 2.334688.031845.561049.334366 10.497044.318445 14.605369.4299 12.343076.015923.199082.015922-.144787.031844-.235278.015922.072393.127378.633442.015923-.036196.334366.850622.015923-.072393.015922.072393.015922.036197.031844-.126689.015923.126689.238833 1.53836.557278 14.388189.302523 6.660193.398055 3.330097.015923-.036197.206989.814426.461744 1.882229 1.019023 10.352257h.206989l.159222-5.737178.334367-17.211532.334367-12.162092.1433-1.75554.079611.054295.270678 1.140196.222911 1.846032.318445 2.443277.111456.923016.031844-.10859.015922-.253377.015923.343869.015922-.32577.238833-2.787147.047767.108591.111456.995409.127377 1.122098.047767-.10859.111456-1.502164.111455-2.533769.605045-15.166418.413978-3.945441.063689-.054295.175144-.470557.095534.452459.047767-.090492.015922-.072394.031844.036197.015922.090492.015923-.018098.1433-1.357377.047766.307672.238834 2.135606.015922-.343869.334367-5.429506.015922.054296.302523-5.357113.175144-3.167211.159222-2.316589.015923.199082.015922-.742033.031844.597246.1433 1.592655.015923-.343869.1433 1.719344.015922.307672.047767-.217181.015922-.144786.270678 3.438686.095533 1.556459.175145 2.045113.477667 6.298227.047766-.398164.047767-.669639.302522-5.990554.079612-1.031606.382133-10.026487.4299-9.085373.015923.090492.1433-.904917.015922.054295.127378.470557.047766-.325771.031845.235279.175144 1.031606.063689-.579147.015923.452459.4299 6.135341.302522 4.470293.015922-.036197h.015923l.079611.597245.063689-.018098.047766-.32577.031845.271475.175144 2.063212.015923-.072393.015922-.180984.1433.886819.127378.470558.015922-.108591.2866-2.714752.015922.090491.079611-.778229.063689.289574.031845.10859.031844-.361967.031845.21718.095533.416262.015922-.10859.015923-.090492.127377 1.773639.429901 18.804187.955334 48.793156h3.725801l.015923-1.701245.079611 1.701245h4.585602l.159222-6.949767.557279-29.53651.398055-15.58268.652812-18.478417.015922.235278.222911-3.909244.015922.036197.366212-2.877638.031844.090492.047767.54295.031844-.470557.031845-.10859.047767.832524.015922-.633442.047766-.850623.063689.380066.031845-.144787.031844.180984.015922-.090492.079612-.343869.031844.235279.015922.036196.127378-.86872.031845.886819.095533-.162885.015922-.036197.1433-1.53836.015923.036197.079611-.542951.191066-1.212589.015923.21718.127378-.868721.015922.072393.015922.054295.127378-.416262.015922.072394.015922-.506754.015923.54295.095533-.343868.015922-.036197.079611.289574.015923-.072394.079611-.524852.031844.361967.047767.072394.270678 2.334687.063689-.253377.015922.018098.015922-.144787.015922.271476.047767-.10859.191067-1.465967.191067-1.610753.079611.162885.047766.361967.318445 4.94085.063689-.180983.015922-.271476.047767.199082.079611.253377.127378-.506754.047767-.199082.079611-.723934.1433-.832524.015922-.018098.047767-.542951.063689.21718.191066 1.665049.605045 8.198553.015922-.32577.175145 4.198817.111456 3.311999 1.082711 48.63027.509512 9.972192.350289 2.950031.111455 1.42977h9.425961l.175144-7.945176.589123-21.012187.015922.054296.047767-.126689.015922.054295.095533.126689.031845-.036197.031844.054295.047767.144787.015922-.090492.1433-1.158295.509512-10.261765.079611-.235278.206989-1.266885.015922-.10859.031844.018098.175145.778229.015922-.036196.382134 4.922751.477667 8.361439.031844-.018099.127378.162885.015922-.036196.015922-.072394.015923.018099.031844.090491.063689-.054295.015922-.054295.015922.180984.063689-.126689.286601-2.207998.8598-17.066746.191067-.361967.589122-3.927342.238834-2.913835.191066-2.678556.254756-4.61508.111456-.814425.031844.289573.015922-.090491.302523 4.198817.159222 3.637769.461745 15.564582.1433 2.08131.079611-.54295.2866-7.166947.191067-3.366294.015922.217181.015922-.090492.015923.054295.031844.307672.063689-.253377.191067-2.479474.302522-6.26203.095534-2.425179.2866-9.103471.159222-5.501899.127378-3.963539.127378.343869.589122 22.116186.764267 49.390401.302523 5.302817h.175144l.175145-10.388454.270678-10.931404.063689-.524852.047766.32577.031845.036197.222911 2.1899.031844-.054295.318445-3.275802.015922.144787.031845-.144787.191066-1.284982.015923-.054296.031844.144787.015922-.10859.302523-4.560784.5732-14.351993.015922.072393 1.050868-7.547012.015922.018098.015922-.144787.031844.054295.461745 4.035933.238834 2.316589.111455.832524.031845-.162885.015922-.018099.159222 1.791737.891645 16.976254.732423 16.415205.748345 6.768783.127377 1.42977h.095534l.1433-2.714753.302522-3.167211.1433-5.158031.636889-23.509758.477667-7.927078.031845.199082.015922-.126689.127378-.705835.031844.036196.015923-.018098.175144.669639.015922-.398164.063689.380066.031845.10859.127378-.398164.015922.21718.1433-.778229.015922.10859.971256-9.193962.015922.10859.015923.090491.079611-.361967.047767.126689.350289 1.719343.047766-.144787.222911-3.239604.047767-.380066.222911-2.226097.015923.054295.159222-.452459.015922.072394.4299 2.624261.015923-.398164.015922.090492.1433 1.158294.557278 2.280392.175145.904918.095533-.180984.111456.289574.175144-1.194491.191067-2.063212.827956-14.913042.191067-.524852.127377.307672.063689-.398164.063689.054295.015922.090492.175145-.615344.047767-.21718.079611.036197.302522 3.058621.015922-.036197.015923-.307672.015922.21718.509511 6.225833.652812 16.397107.525433 21.645628.493589 18.731794.286601 3.746359h3.439201l.1433-4.198818.302523-15.003533.525433-17.501106.143301-2.606163 1.337467-23.81743.031844-.542951.334367-3.51108.445823 5.845768.015922-.108591.015922.126689.206989-1.936524.015922-.036196.2866-3.764458.031845-.036196.079611-.742033.079611.180984.350289 3.311998.254756 1.484065.047767.054295.015922-.10859.238833-1.809835.111456-.687738.557278-5.682882.111456.398164.047766.416262.063689-.144787.127378-.54295.589123-3.18531.175144-.416262.191067 1.140196.015922-.180984.015922.398164.031845-.904918.063689.868721.127378.380066.015922-.488656.047767 1.954622.079611-.796327.191066-.88682h.015923l.015922.180984.015922-.10859.159222-1.194491.015923.090491h.015922l.015922-.126688.015922.289574.015923-.180984.1433-.832524.015922.036197.175144-.524853.270678 3.004327.509512 7.492717.302522 8.850094.238834 4.759867.461744 9.067274.047767.054295.015922-.199082.015922.126688.302523 3.2939.350289 3.547277.159222-1.393573.063689.398164.159222 2.117507.652812 22.260972.111455.271476.063689.21718.015923-.090492.111455-2.407081.461745-11.275273.095533-1.049704.047767.235279.222911 2.461375.222911 3.873048.015923-.10859.079611.072393.366211-8.108062.732423-15.745565.2866-1.194492.015922.090492.1433 1.067803.015922-.10859.206989 1.230688.015923-.054295.031844-.380066.015922.144787.1433.615344.015923-.072393.175144 1.212589.031845-.162885.1433 1.103999.302522 3.275802.636889 6.5878.031845.199082.541356 10.985699.812033 19.184253h4.856281l.1433-4.017834.063689-.868721.063689.452459.095533.615344.031844-.253377.334367-4.271211.700578-23.690742.031845.072393.206989 1.610753.063689.126689.238833-2.226097.015922.036196.206989 1.773639.175145 2.388982.191067 2.461376.302522 2.606163.015922-.036197.573201 10.822814.413978 7.746095.254755 3.203408.127378 1.447868h.541356l.127378-3.529179.191067-8.88629.461744-20.143466.063689-1.827933.668734-15.419796.620967-6.497308.079611-.452459.175145-1.375474.015922.072393.031844-.199082.206989 2.153704h.015922l.286601 6.334423.748344 32.776115.175145.941114.015922-.054295.254756-9.049176.270678-11.673436.159222-4.596982.222911-4.687473.270678-4.090227.015922.036196.206989-4.108325.461745-4.72367.015922.036197.047767-.343869.175145 2.425179.175144 2.189901.1433 4.379801.684656 25.627265.175145 1.176393.015922-.072393.047767-.470557.477666-9.33875.015923.054295.031844-.10859.047767-.072393.398056-5.646686.445822-2.750949.063689-.054295.206989-1.158295.031844.054295.015923-.054295.047766-.090492.015923.036197.222911 2.117507.302522 3.818752.159223 2.96813.971256 23.545955.206989 1.447869.557278 5.610489.111455.470557.127378 1.194491.047767-.488656.127378-1.520261.047766.235278.031845.126689.270678-3.836851.159222-3.275801.031844.597245.079612.506754.031844-.199082.015922-.072393.191067-3.637769.175145-4.415998.5732-20.19776.206989-7.673701.191067-1.375475.318444 7.148849.445823 9.574028.525433 3.927343.222912-1.447869.1433-2.479474.159222-2.569966.031844.398164.047767.579147.031845-.32577.079611-.886819.047766.452459.461745 11.039994.270678 1.737442.7165 5.248522.063689-.669639.047767-.10859.015922.10859.206989.904917.1433.579147.015922-.018098.238834 1.248786h.015922l.1433.361967.031845.072394.270678 2.569966.222911 3.746358.015922-.018098.031845.434361.2866 5.628587h.031844l.1433-4.144523.031845.289574.015922-.162885.015922.144787.079611 1.122097.063689-.54295.159223-1.447868.015922.054295.047766.416262.111456 1.846032.047767-.162885.111455-.524853.047767.343869.238834 2.769048.015922-.361967.159222-5.194227.047767-.796327.031844.43436.302523 5.918161.191066-4.50649.127378-.398163.031845.090491.047766.325771.063689-.289574.270678-1.284983.015922.162885.031845.180984.079611-.180984.031844-.072393.015923.036197.079611.86872.047767-.253376.398055-2.732852.031845.036197.031844-.036197.191067-.54295.015922.054295.095534-.036197.015922-.018098.031844.036197.254756 1.701245.015922-.036197.015922.018098.047767-.072393.015922-.054295.015923.036197.1433 1.158294.127378.434361.015922-.054296.509511-2.352785.302523 1.809835.063688.307672.063689-.090492.111456.416262.191067 1.339278.079611.325771.047767-.072394.063688-.524852.079612-.633442.047766.32577.302523 1.556458.015922.036197.031844-.036197.270678-.687737.015923.036197.318444.959212.047767-.090492.206989-.32577.111455.090492.079612.561049.111455 1.846032.111456.633442h.127378l.047766-.850623.047767.850623h8.677616" stroke="#1f77b4" stroke-linejoin="round" stroke-width="1.5"/><path d="m27.88 261.56v-104.08" stroke="#000" stroke-linejoin="miter" stroke-width=".8"/><path d="m418.68 261.56v-104.08" stroke="#000" stroke-linejoin="miter" stroke-width=".8"/><path d="m27.88 261.56h390.8" stroke="#000" stroke-linejoin="miter" stroke-width=".8"/><path d="m27.88 157.48h390.8" stroke="#000" stroke-linejoin="miter" stroke-width=".8"/></g><g stroke-linejoin="round" transform="matrix(.12 0 0 -.12 208.28 151.48)"><use xlink:href="#e"/><path d="m12.9375 52.59375 1.21875-6.296875q6.6875 8.203125 13.875 8.203125 7.328125 0 12.015625-6.5 4.96875-6.984375 4.96875-18.0625 0-10.359375-4-17.296875-4.734375-8.203125-13.078125-8.203125-7.234375 0-13.09375 6.59375v-20.3125h-7.421875v61.875zm13.375-5.1875q-4.875 0-8.296875-4.875-3.46875-5.03125-3.46875-12.703125 0-6.96875 2.390625-11.609375 3.28125-6.59375 9.484375-6.59375 4.921875 0 7.8125 4.6875 2.875 5.078125 2.875 13.515625 0 7.71875-2.6875 12.40625-2.96875 5.171875-8.109375 5.171875" transform="translate(50)"/><use x="100" xlink:href="#f"/><use x="150" xlink:href="#f"/><path d="m35.15625 75.09375h7.421875v-70.015625h-5.421875l-1.90625 6.203125q-5.078125-8.203125-13.28125-8.203125-7.5625 0-12.203125 7.328125-4.6875 7.125-4.6875 18.984375 0 9.71875 3.515625 16.40625 4.640625 8.703125 13.28125 8.703125 7.171875 0 13.28125-7.28125zm-11.46875-27.6875q-5.1875 0-8.203125-5.609375-2.59375-5.078125-2.59375-12.5 0-8.0625 2.390625-13.03125 2.828125-6.109375 8.40625-6.109375 5.03125 0 8.34375 5.03125 3.421875 5.03125 3.421875 14.109375 0 7.375-2.59375 12.109375-3.171875 6-9.171875 6" transform="translate(200)"/></g></g></g></svg>